<svg width="356" height="301" viewBox="0 0 356 301" fill="none" xmlns="http://www.w3.org/2000/svg">
<g clip-path="url(#clip0_1484_8)">
<path d="M327.258 150.217C327.258 233.178 260.001 300.438 177.037 300.438C94.076 300.438 26.8193 233.182 26.8193 150.217C26.8193 67.2529 94.0722 0 177.033 0C259.997 0 327.258 67.2529 327.258 150.217Z" fill="white"/>
<path d="M323.108 150.093C323.108 230.767 257.711 296.16 177.037 296.16C96.3664 296.16 30.9692 230.767 30.9692 150.093C30.9692 69.4226 96.3664 4.02539 177.037 4.02539C257.711 4.02539 323.108 69.4226 323.108 150.093Z" fill="#131230"/>
<path d="M291.213 149.968C291.213 212.935 240.174 263.981 177.203 263.981C114.236 263.981 63.1938 212.935 63.1938 149.968C63.1938 87.0009 114.24 35.9546 177.203 35.9546C240.17 35.9546 291.213 87.0009 291.213 149.968Z" fill="white"/>
<path d="M148.554 149.049C148.554 148.804 148.539 148.562 148.539 148.316L156.718 152.886L158.052 150.493L148.471 145.141C148.381 141.573 148.16 138.009 147.81 134.457L156.442 138.675L157.644 136.218L147.451 131.229C147.024 127.714 146.464 124.241 145.788 120.805L155.093 123.836L155.943 121.236L145.172 117.721C144.494 114.651 143.716 111.605 142.84 108.586L151.918 110.438L152.462 107.754L141.971 105.611C141.15 102.989 140.255 100.39 139.287 97.8179L148.751 99.7493L149.299 97.0658L138.112 94.7792C136.905 91.781 135.599 88.8238 134.196 85.9124L143.841 86.9329L144.125 84.2116L132.779 83.0097C131.224 79.965 129.563 76.976 127.797 74.0485L137.155 74.0447V71.3045H126.142C124.333 68.4487 122.426 65.6564 120.423 62.9329L129.29 62.1921L129.063 59.467L118.485 60.3477C117.57 59.1533 116.659 57.9628 115.707 56.7949L112.176 58.73C113.197 59.9659 114.176 61.2245 115.151 62.4944L111.285 72.9864L113.855 73.9313L117.109 65.1099C119.129 67.8502 121.052 70.6614 122.873 73.5382L118.314 83.3045L120.798 84.4611L124.577 76.3615C126.308 79.2718 127.945 82.2387 129.475 85.2737L124.127 94.1556L126.471 95.5653L130.915 88.1952C132.238 90.9845 133.467 93.8343 134.612 96.7218L128.432 105.052L130.636 106.677L135.787 99.7303C136.656 102.074 137.458 104.447 138.206 106.843L131.599 115.737L133.803 117.369L139.17 110.132C140.016 113.114 140.776 116.13 141.43 119.187L134.309 126.796L136.313 128.67L142.095 122.487C142.696 125.673 143.184 128.897 143.569 132.155L135.447 138.724L137.171 140.852L143.932 135.386C144.25 138.712 144.435 142.072 144.518 145.455L135.749 151.774L137.356 154.001L144.593 148.785L144.597 149.049C144.597 151.786 144.491 154.499 144.34 157.202L135.145 162.554L136.52 164.923L144.117 160.501C143.912 163.149 143.633 165.791 143.278 168.423L133.538 173.401L134.789 175.842L142.757 171.768C142.311 174.527 141.812 177.267 141.215 179.97L131.535 184.331L132.658 186.826L140.391 183.349C139.759 185.913 139.055 188.458 138.282 190.983L128.376 194.884L129.377 197.431L137.182 194.358C136.263 197.08 135.281 199.763 134.207 202.409L124.108 205.24L124.849 207.874L132.839 205.636C131.804 208.014 130.708 210.357 129.551 212.666L119.233 214.53L119.72 217.232L127.964 215.739C126.798 217.92 125.575 220.07 124.297 222.187L113.715 222.954L113.911 225.687L122.551 225.063C121.275 227.061 119.949 229.027 118.575 230.959L108.484 231.133L108.533 233.873L116.565 233.73C115.149 235.643 113.686 237.521 112.176 239.361L114.376 242.903C116.549 240.301 118.632 237.625 120.62 234.879L125.072 244.006L127.533 242.797L122.434 232.358C123.767 230.439 125.053 228.488 126.293 226.507L130.98 234.898L133.372 233.563L127.937 223.827C129.358 221.45 130.726 219.035 132.015 216.574L137.666 224.576L139.903 222.996L133.402 213.8C134.668 211.249 135.882 208.671 137 206.037L143.411 213.498L145.489 211.706L138.157 203.168C139.302 200.296 140.379 197.393 141.347 194.434L148.415 201.143L150.301 199.155L142.25 191.512C143.07 188.795 143.822 186.051 144.491 183.273L151.85 189.615L153.638 187.544L145.187 180.257C145.784 177.513 146.291 174.739 146.736 171.942L154.099 177.672L155.781 175.51L147.22 168.85C147.606 166.023 147.878 163.158 148.097 160.282L155.898 165.702L157.459 163.453L148.313 157.096C148.456 154.428 148.554 151.756 148.554 149.049ZM245.934 231.133L235.846 230.956C234.473 229.024 233.149 227.058 231.874 225.059L240.514 225.687L240.703 222.954L230.128 222.187C228.849 220.071 227.626 217.921 226.462 215.739L234.701 217.228L235.189 214.53L224.874 212.666C223.714 210.354 222.617 208.01 221.586 205.636L229.569 207.874L230.309 205.24L220.214 202.409C219.141 199.757 218.149 197.074 217.24 194.362L225.037 197.431L226.042 194.884L216.14 190.983C215.361 188.466 214.666 185.919 214.023 183.345L221.756 186.826L222.883 184.331L213.207 179.97C212.606 177.267 212.111 174.527 211.665 171.768L219.625 175.842L220.876 173.401L211.143 168.427C210.789 165.793 210.508 163.151 210.301 160.501L217.897 164.923L219.273 162.554L210.081 157.202C209.919 154.486 209.833 151.766 209.824 149.046L209.828 148.781L217.062 153.997L218.665 151.774L209.904 145.463C209.987 142.072 210.172 138.712 210.49 135.386L217.247 140.852L218.967 138.724L210.845 132.159C211.234 128.901 211.725 125.673 212.326 122.487L218.109 128.67L220.108 126.799L212.992 119.187C213.644 116.146 214.397 113.127 215.248 110.135L220.615 117.369L222.815 115.737L216.216 106.843C216.956 104.454 217.76 102.085 218.627 99.7379L223.778 106.677L225.982 105.052L219.806 96.7218C220.955 93.8343 222.176 90.9883 223.502 88.1952L227.943 95.5653L230.29 94.1518L224.942 85.2774C226.469 82.2425 228.11 79.268 229.845 76.3653L233.616 84.4611L236.1 83.3045L231.545 73.542C233.359 70.6582 235.295 67.8538 237.309 65.1137L240.559 73.9351L243.133 72.9902L239.263 62.4982C240.242 61.2283 241.228 59.9659 242.245 58.73L238.711 56.7949C237.759 57.959 236.848 59.1533 235.933 60.3477L225.354 59.467L225.128 62.1959L233.994 62.9367C231.991 65.6597 230.084 68.4519 228.276 71.3083H217.262V74.0447H226.621C224.855 76.9735 223.194 79.9637 221.639 83.0097L210.289 84.2116L210.576 86.9329L220.218 85.9124C218.82 88.8189 217.516 91.7707 216.31 94.7792L205.119 97.0658L205.667 99.7493L215.131 97.8217C214.162 100.392 213.267 102.99 212.447 105.611L201.952 107.758L202.496 110.442L211.578 108.586C210.709 111.594 209.915 114.633 209.242 117.721L198.471 121.236L199.321 123.836L208.626 120.805C207.953 124.241 207.394 127.714 206.963 131.233L196.774 136.218L197.972 138.675L206.608 134.453C206.26 137.983 206.041 141.547 205.947 145.145L196.365 150.493L197.696 152.882L205.879 148.32C205.879 148.562 205.86 148.804 205.86 149.046C205.86 151.752 205.958 154.431 206.105 157.096L196.959 163.453L198.52 165.702L206.321 160.282C206.54 163.158 206.812 166.023 207.194 168.85L198.641 175.51L200.319 177.672L207.681 171.938C208.127 174.735 208.634 177.513 209.231 180.257L200.78 187.544L202.568 189.615L209.926 183.269C210.595 186.047 211.348 188.795 212.171 191.509L204.121 199.158L206.007 201.143L213.071 194.434C214.039 197.393 215.116 200.3 216.265 203.168L208.932 211.71L211.007 213.498L217.417 206.037C218.532 208.671 219.749 211.253 221.012 213.8L214.515 222.992L216.752 224.572L222.406 216.571C223.691 219.035 225.063 221.446 226.488 223.827L221.053 233.56L223.446 234.894L228.125 226.503C229.372 228.484 230.653 230.438 231.988 232.354L226.885 242.797L229.346 244.002L233.805 234.879C235.792 237.624 237.873 240.299 240.045 242.899L242.249 239.361C240.737 237.524 239.278 235.638 237.857 233.73L245.885 233.87L245.934 231.133Z" fill="#C7C6C6"/>
<path d="M116.371 86.6494H117.883C120.824 86.6381 121.474 85.92 123.118 81.1691C124.804 76.4598 124.702 75.7115 121.757 75.719H120.242L116.371 86.6494ZM113.813 72.4308L124.838 72.4384C133.629 72.4498 132.593 76.5997 130.968 81.1653C129.328 85.765 127.404 89.9187 118.654 89.9187H107.614L113.813 72.4308ZM140.345 87.1937C142.673 87.1861 143.365 85.9162 145.043 81.1691C146.71 76.4636 146.925 75.1672 144.604 75.1786C142.273 75.1824 141.566 76.4636 139.918 81.1691C138.217 85.9124 138.013 87.1823 140.345 87.1937ZM145.697 72.0869C153.445 72.0907 155.195 74.6343 152.897 81.1691C150.569 87.7304 147.012 90.2778 139.249 90.2778C131.486 90.2702 129.751 87.7228 132.056 81.1691C134.362 74.6419 137.926 72.0983 145.697 72.0869ZM162.3 87.1861C164.613 87.2012 165.324 85.9238 166.994 81.1691C168.657 76.4674 168.873 75.1861 166.522 75.1748C164.216 75.1786 163.532 76.456 161.843 81.1842C160.184 85.9275 159.98 87.1861 162.3 87.1861ZM167.641 72.0907C175.396 72.0907 177.158 74.6419 174.841 81.1691C172.513 87.7266 168.971 90.2702 161.204 90.2664C153.437 90.2664 151.691 87.7266 154 81.1691C156.332 74.6457 159.878 72.102 167.641 72.0907ZM188.938 77.4916L189.108 77.0797C189.449 76.0403 189.063 75.1899 187.597 75.1861C185.971 75.1861 184.962 75.9496 184.671 76.7168C183.469 80.1827 196.463 78.497 194.199 84.8882C192.888 88.6072 188.666 90.274 181.976 90.2778C175.684 90.2778 172.633 88.9814 173.915 85.3493L174.13 84.7446L181.462 84.7521L181.33 85.1603C180.793 86.6494 181.625 87.1861 183.11 87.1786C184.649 87.2012 185.798 86.4491 186.134 85.4891C187.381 82.0384 174.833 83.7581 177.029 77.5446C178.288 74.0409 182.101 72.0945 188.523 72.0907C195.144 72.102 197.382 73.7348 196.04 77.4841L188.938 77.4916ZM208.804 76.0176H208.724L204.007 83.452H208.259L208.804 76.0176ZM205.251 72.446L214.787 72.4535L215.686 89.9301L207.605 89.9225L207.93 86.8649L201.883 86.8497L200.039 89.9263L191.947 89.9187L205.251 72.446ZM222.852 72.4498H231.318L232.407 83.2252H232.497L236.315 72.4422H243.42L237.222 89.9338L228.888 89.9225L227.656 79.1395L227.576 79.1282L223.736 89.9376L216.654 89.9187L222.852 72.4498ZM152.179 220.853V228.098L148.324 231.885H140.496L136.906 228.227V224.281H143.153V226.22H145.772V223.147H139.623L136.743 220.173V213.993L140.496 210.304H148.52L151.918 213.77V217.323H145.927V215.936H143.149V218.003H149.423L152.179 220.853Z" fill="black"/>
<path d="M150.301 221.628L148.392 219.719H141.986L141.245 218.974V215.32L142.473 214.122H146.548L147.681 215.32V215.641H150.301V214.836L147.678 212.152H141.404L138.69 214.836V219.428L140.663 221.431H147.001L147.681 222.179V226.836L146.389 228.098H142.473L141.245 226.836V225.929H138.69V227.255L141.407 230.007H147.421L150.301 227.255V221.628ZM169.164 210.304V217.228H163.378V215.936H160.592V218.234H165.706V223.729H160.592V226.224H163.378V224.67H169.164V231.889H152.636V226.22H154.126V215.936H152.636V210.304H169.164Z" fill="black"/>
<path d="M167.225 212.152H154.575V214.125H156.064V228.098H154.575V230.007H167.225V226.575H165.286V228.098H158.619V221.824H163.797V220.078H158.619V214.125H165.286V215.384H167.225V212.152ZM185.341 214.125V228.098L181.523 231.885H173.341L169.618 228.098V214.023L173.435 210.304H181.523L185.341 214.125Z" fill="black"/>
<path d="M183.401 214.9L180.65 212.152H174.338L171.492 214.9V227.221L174.115 230.007H180.65L183.401 227.32V214.9Z" fill="black"/>
<path d="M180.813 215.384V226.806L179.55 228.098H175.279L174.119 226.806V215.384L175.408 214.125H179.55L180.813 215.384Z" fill="black"/>
<path d="M178.9 215.936H175.99V226.22H178.9V215.936Z" fill="white"/>
<path d="M204.491 210.304V215.936H202.775V228.098L198.992 231.885H191.066L187.313 228.098V215.936H185.631V210.304H194.623V215.747H193.784V226.22H196.369V215.743H195.53V210.301L204.491 210.304Z" fill="black"/>
<path d="M202.583 212.152H197.246V214.125H198.282V226.87L197.049 228.098H193.039L191.875 226.87V214.125H192.911V212.152H187.57V214.125H189.256V227.289L191.875 230.007H198.149L200.867 227.418V214.125H202.583V212.152ZM215.036 210.304V215.936H213.26V226.22H215.648V222.762H221.408V231.885H205.361V226.22H206.853V215.936H205.361V210.304H215.036Z" fill="black"/>
<path d="M213.127 212.152H207.303V214.125H208.792V228.098H207.303V230.007H219.496V224.602H217.557V228.098H211.351V214.125H213.127V212.152Z" fill="black"/>
<path d="M177.207 42.2931C218.302 42.2931 254.007 65.3218 272.153 99.175H279.277C260.599 61.7085 221.915 35.9624 177.207 35.9624C132.495 35.9624 93.8119 61.7085 75.1335 99.175H82.2579C100.4 65.3218 136.105 42.2931 177.207 42.2931ZM177.207 257.647C135.818 257.647 99.9083 234.289 81.8875 200.047H74.7744C93.3168 237.906 132.208 263.981 177.207 263.981C222.199 263.981 261.094 237.903 279.636 200.047H272.523C254.499 234.289 218.589 257.647 177.203 257.647" fill="#ED1C24"/>
<path d="M68.0617 117.407V140.882L64.1499 145.213L68.0617 149.386V174.13L52.0932 189.634H0V164.685H5.91874V127.982L0.0264567 127.937V103.003H53.7184L68.0617 117.407Z" fill="white"/>
<path d="M134.487 102.996V131.32H109.202V126.448H101.103V132.703H120.854V156.605H101.103V163.517H109.202V158.672H134.351L134.487 188.402H67.5215V163.911H72.862V126.384H67.9788V102.954L134.487 102.996Z" fill="white"/>
<path d="M187.261 102.996L206.143 164.712H213.876V189.634H176.066V166.046H181.33L180.541 163.427H166.454L165.925 166.046H170.536V189.634H134.23L134.351 158.672L141.082 165.815L161.851 102.996H187.261Z" fill="white"/>
<path d="M288.023 164.712V189.634H251.55V166.326H252.782L249.441 158.427H245.888V166.326H250.893V189.634H213.101V164.697H219.689V127.941H213.793V102.985H266.801L281.416 117.891L281.178 143.414L274.197 150.527L280.52 164.712H288.023Z" fill="white"/>
<path d="M349.039 144.423L348.752 174.35L332.901 189.634H301.757L287.104 175.174L287.1 157.187H313.701V164.871H321.335V155.913H298.522L286.537 143.94L286.443 118.284L301.916 103L334.397 102.985L347.72 116.583V133.474H321.732V127.737H313.568V132.945L338.695 133.565L349.039 144.423ZM74.8458 125.48V147.78L74.7173 152.353L74.8458 156.284L73.4247 181.024L58.5674 195.636L5.85807 195.61L0.0375977 189.581L12.8729 171.636V134.899H6.80295V109.894H59.773L74.8458 125.48Z" fill="white"/>
<path d="M140.833 109.746V138.841H115.548V134.135H107.452V137.703H127.393V164.288H107.452V171.205H115.548V165.475L140.833 165.683L140.802 195.632H74.4188L66.5952 187.468L79.2075 171.594V134.064H73.8708L134.339 103.09L140.833 109.746Z" fill="white"/>
<path d="M193.731 109.674L212.829 172.036H220.562V195.609L167.951 195.636V172.94H188.016L187.223 170.324H173.14L172.611 172.94H177.222V195.636H140.806V172.036H148.002L187.264 102.996L193.731 109.674Z" fill="white"/>
<path d="M294.387 172.377V195.609H250.507L258.33 173.563H259.563L256.225 165.66H252.669V173.563H257.677V195.609H219.881V172.377H226.333V134.978H220.274V110.298H273.951L287.535 124.093L287.599 149.182L280.365 156.378L287.244 171.352L294.387 172.377Z" fill="white"/>
<path d="M355.117 150.663V180.038L339.311 195.674L307.843 195.712L294.198 182.094L293.62 164.519H320.485V171.768H328.12V162.811L305.254 162.864L293.688 150.886L292.864 124.792L308.22 109.693L340.581 109.296L354.112 123.088L354.089 139.189H328.517V134.634H320.353V139.843H344.583L355.117 150.663Z" fill="white"/>
<path d="M353.594 151.287V179.384L338.665 194.064H308.304L294.384 179.883V164.576H318.595V172.105H328.755V160.191H304.921L293.756 148.653V124.69L308.308 110.389H339.413L352.588 123.814V137.613H329.382V132.215H318.595V140.247H342.936L353.594 151.287Z" fill="white"/>
<path d="M73.0963 125.197V146.899L69.0257 151.283L73.0925 155.346V179.259L57.9139 194.067H7.23044L1.65186 188.273L13.1341 172.108V132.219L13.8371 131.86L7.238 110.392H58.7945L73.0963 125.197Z" fill="#131230"/>
<path d="M3.15967 187.729L13.7348 172.721V130.843H7.72912V110.831L57.634 110.959L72.3515 125.45V146.476L67.782 151.336L72.3364 155.837V166.836L71.5049 166.7L71.1609 180.06L57.8948 192.884L8.18644 192.892L3.15967 187.729Z" fill="#131230"/>
<path d="M67.4988 119.399V141.105L63.6134 145.243L67.4988 149.378V173.469L52.3202 188.273H1.63672V166.314H7.53278V126.425H1.63672V104.598H53.197L67.4988 119.399Z" fill="#ED1C24"/>
<path d="M61.8027 123.288L48.6802 110.287H7.33214V120.718H13.2169V172.003H7.3208V182.578H48.0452L61.7989 169.33V152.145L53.3176 145.497L61.7989 138.849L61.8027 123.288Z" fill="white"/>
<path d="M43.4723 120.71L48.1135 124.172V137.465L43.7255 140.398H26.797V120.71H43.4723ZM43.2077 150.697L48.0984 154.276V168.325L42.8335 171.987H26.7856V150.697H43.2077Z" fill="#ED1C24"/>
<path d="M42.4061 126.425H32.5V134.702H42.4137L42.4061 126.425ZM42.4061 156.412H32.5V166.314H42.4137L42.4061 156.412ZM139.249 110.392L139.223 137.261H116.647L116.795 132.219H106.012L114.792 129.437L125.828 141.18V162.452H106.012V172.108H116.795L133.651 160.297L139.245 166.088V194.067H75.152L69.5545 188.273L83.278 182.812L80.9195 132.219L84.3324 133.304L133.663 104.591L139.249 110.392Z" fill="#131230"/>
<path d="M119.743 136.407L124.637 141.649V161.284H104.889V173.265H117.793L133.591 161.922L138.07 166.534V192.888H75.613L70.522 187.612L81.9739 173.136V131.259H76.2744L132.873 105.509L138.07 110.906V136.078H119.724L119.743 136.407Z" fill="#131230"/>
<path d="M133.652 104.598V131.444H111.201V126.425H100.411V135.337H120.23V156.654H100.411V166.314H111.201V160.297H133.652V188.273H69.5508V166.314H75.3221V126.425H69.5508V104.598H133.652Z" fill="#ED1C24"/>
<path d="M127.956 110.268H75.2354V120.711H81.0142V171.999H75.2354V182.559H127.956V165.982H116.89V171.999H94.715V150.947H114.531V141.022H94.6999V120.711H116.886V125.734H127.956V110.268ZM190.201 152.527H165.46V180.707H190.201V152.527ZM266.309 152.527H241.569V180.707H266.309V152.527ZM332.939 155.422H308.198V183.602H332.939V155.422Z" fill="white"/>
<path d="M266.241 152.527H241.5V180.707H266.241V152.527ZM332.874 155.422H308.13V183.602H332.874V155.422Z" fill="white"/>
<path d="M192.295 110.404L210.285 169.024L213.165 166.326L218.763 172.12V194.079H183.636L178.36 188.353L189.033 172.997L187.529 168.234H171.591L170.09 172.997H175.23L184.944 194.075H141.233L135.64 188.281L148.131 172.12L186.701 104.61L192.295 110.404Z" fill="#131230"/>
<path d="M191.244 111.035L210.293 173.155L212.663 167.516L217.584 172.634V192.884H179.664L174.145 182.033L191.017 174.002L188.632 166.957H170.476L168.351 174.002H173.9L183.606 192.884H141.717L136.6 187.555L149.628 173.408L186.376 105.982L191.244 111.035Z" fill="#131230"/>
<path d="M190.209 152.534H165.472V180.718H190.209V152.534Z" fill="#131230"/>
<path d="M186.701 104.61L205.636 166.326H213.165V188.285H178.042V167.203H183.435L181.931 162.44H165.993L164.489 167.203H169.629V188.281H135.636V166.322H142.537L162.984 104.61H186.701Z" fill="#ED1C24"/>
<path d="M182.457 110.313H167.093L146.676 171.995H141.324V182.581H163.941V171.999H156.696L162.013 156.748H185.983L191.048 171.98H183.723V182.578H207.474V171.995H201.404L182.457 110.313Z" fill="white"/>
<path d="M174.905 119.41L184.562 150.535H163.362L173.529 119.41H174.905Z" fill="#ED1C24"/>
<path d="M174.153 136.214L171.27 144.873H176.912L174.153 136.214Z" fill="#131230"/>
<path d="M286.337 167.546L292.014 173.238V192.952H260.413L249.993 181.508L263.176 174.463L257.254 161.692H250.008V174.467H254.487L262.447 192.949H222.017L216.371 187.181L228.151 173.28V131.403H222.017V111.326L271.295 111.606L284.901 125.397V147.863L277.006 155.936L283.703 169.391L286.337 167.546Z" fill="white"/>
<path d="M266.325 152.534H241.58V180.718H266.325V152.534ZM332.954 155.433H308.209V183.613H332.954V155.433Z" fill="white"/>
<path d="M287.18 166.322L292.804 172.021L292.842 194.06L259.431 194.045L248.364 182.23L261.317 173.571L256.422 162.909H251.036V173.567H255.421L263.384 194.045L221.261 194.06L215.448 188.288L226.946 172.316V132.427L224.402 131.928L221.049 110.6L271.831 110.298L286.004 124.721L286.012 148.584L278.476 156.057L284.553 169.19L287.18 166.322ZM353.537 151.294V179.395L338.608 194.075L308.349 194.094L294.425 179.913L294.327 164.595H318.539V172.12H328.702V160.199H304.857L293.692 148.664V124.702L308.243 110.404H339.352L352.524 123.825V137.62H329.322V132.23H318.539V140.254H342.875L353.537 151.294Z" fill="#131230"/>
<path d="M353.537 151.294V179.395L338.608 194.075L308.349 194.094L294.425 179.913L294.327 164.595H318.538V172.12H328.702V160.199H304.857L293.692 148.664V124.702L308.243 110.404L339.364 110.328L352.532 123.708L352.524 137.624H329.318V132.23H318.538L315.56 137.284H339.9L353.537 151.294ZM286.231 167.259L291.56 172.789L291.647 192.884L260.19 192.888L249.732 181.546L262.919 174.501L256.993 161.73H249.747V174.505H254.23L262.223 192.888L221.59 192.903L215.807 187.17L227.89 173.318V131.441H221.76V111.364L271.007 111.451L284.617 125.246L284.644 148.025L276.884 155.83L283.226 169.614C283.427 169.822 286.231 167.259 286.231 167.259Z" fill="#131230"/>
<path d="M352.358 151.756L352.35 178.927L338.154 192.888L308.844 192.903L295.328 179.199L295.43 165.763H317.631V173.14H329.881V159.043H305.257L294.818 148.248V125.276L309.029 111.318L338.627 111.235L351.371 124.252L351.352 136.441H330.538V131.131H317.374V141.267L341.987 141.026L352.358 151.756ZM266.252 152.534H241.512V180.718H266.249L266.252 152.534Z" fill="#131230"/>
<path d="M332.882 155.433H308.137V183.613H332.882V155.433ZM337.357 114.35H312.62V142.534H337.357V114.35Z" fill="#131230"/>
<path d="M287.187 166.326V188.285H253.814V167.584H255.704L250.806 156.918H245.412V167.584H249.808V188.281H215.433V166.322H221.329V126.44H215.433V104.614H266.234L280.415 119.036V142.488L272.636 150.266L280.033 166.322L287.187 166.326Z" fill="#ED1C24"/>
<path d="M281.484 171.968H276.435L265.795 149.091L274.73 139.994L274.704 121.243L263.792 110.219H221.11V120.695H227.006V171.972H221.121V182.555H244.12V171.972H239.735V151.204L254.612 151.241L264.287 171.972H259.48V182.555H281.488L281.484 171.968Z" fill="white"/>
<path d="M261.872 125.314V135.451L256.604 140.719H240.56V120.673H257.103L261.872 125.314Z" fill="#ED1C24"/>
<path d="M256.188 126.387H246.274V135.043H256.184L256.188 126.387Z" fill="#131230"/>
<path d="M347.94 145.504V173.601L333.01 188.281H302.649L288.729 174.104V158.797H312.937V166.326H323.097V154.409H299.267L288.102 142.866V118.908L302.653 104.61H333.759L346.934 118.035V131.83H323.728V126.437H312.937V134.461H337.277L347.94 145.504Z" fill="#ED1C24"/>
<path d="M342.244 147.825L334.813 140.152L310.133 140.134L307.249 137.238V125.371L312.011 120.737H325.02L329.412 125.374V126.127H342.278L342.274 121.383L331.325 110.271H304.943L293.775 121.383L293.79 140.553L301.629 148.702H326.158L328.788 151.585V167.119L323.769 172.01H312L307.234 167.119V164.474H294.414V171.791L305.129 182.612L330.61 182.547L342.24 171.334L342.244 147.825Z" fill="white"/>
</g>
<defs>
<clipPath id="clip0_1484_8">
<rect width="355.117" height="300.437" fill="white"/>
</clipPath>
</defs>
</svg>
