<svg width="413" height="308" viewBox="0 0 413 308" fill="none" xmlns="http://www.w3.org/2000/svg">
<g clip-path="url(#clip0_1484_62)">
<path d="M92.4405 0V67.4217L0 67.3477L24.7213 100.302L44.5511 99.2841L44.5319 170.076L92.4405 158.556V226.752L206.441 308L320.512 226.716V158.687L370.145 172.176C385.199 172.548 389.074 164.141 390.068 158.521C390.549 155.739 390.846 152.756 390.952 150.336C391.057 148.621 391.079 146.916 391.081 145.239C391.082 142.941 391.078 139.917 391.071 136.902C391.06 130.872 391.039 124.883 391.039 124.88V124.877C391.031 121.473 390.7 117.577 388.611 113.737C387.156 111.068 384.927 108.823 382.287 107.064L413.001 67.4715L320.514 67.4667V0H92.4405Z" fill="white"/>
<path d="M206.455 274.554L100.767 214.537V222.481L206.455 297.751L312.141 222.481V214.537L206.455 274.554Z" fill="#06141F"/>
<path d="M187.943 227.385H224.989L233.886 245.98L312.143 205.672V159.999C242.506 144.775 170.402 144.778 100.767 160.007V205.674L179.02 245.982L187.943 227.385Z" fill="#06141F"/>
<path d="M178.568 75.9087H126.417C127.233 76.2721 133.867 78.5635 133.867 85.2351L133.826 130.542C133.724 137.011 138.494 140.121 147.706 139.177C162.64 137.695 177.626 136.795 192.63 136.48V103.788C182.786 103.883 174.325 104.094 164.488 104.431V115.414C167.674 115.266 169.374 115.144 172.567 115.02V126.389C166.992 126.639 162.295 126.967 156.704 127.352C155.242 127.448 154.572 126.966 154.572 125.808V88.4478C154.572 87.4718 155.273 86.983 156.711 86.9653C161.295 86.8897 165.436 86.8318 170.018 86.782C171.449 86.7707 172.033 87.2869 172.033 88.3851V94.9265C178.936 94.8026 185.867 94.7126 192.763 94.666L192.797 85.5004C192.808 79.5058 187.668 75.9087 178.571 75.9087" fill="#EA0029"/>
<path d="M299.007 90.043V106.022C299.007 107.205 298.343 107.892 296.913 107.782C291.707 107.393 287.543 107.035 282.316 106.692V87.5618C287.535 87.6905 291.642 87.8384 296.852 87.9687C298.293 88.0233 299.007 88.6585 299.007 90.043ZM319.75 111.114V87.319C319.612 80.1715 313.725 75.9151 304.627 75.9087H254.136C255.019 76.2785 261.846 78.4815 261.846 84.9923L261.867 139.164C268.564 139.81 275.648 140.597 282.316 141.476V117.871C285.67 118.151 289.222 118.456 292.577 118.783C296.135 127.16 298.785 135.45 302.335 144.276C309.062 145.418 316.388 146.964 323.079 148.347C319.447 139.043 315.712 129.779 311.876 120.558C316.983 119.612 319.832 116.21 319.75 111.114Z" fill="#EA0029"/>
<path d="M29.0791 91.5915C37.1914 91.1445 44.9114 90.7151 53.0479 90.3324V156.711C59.7259 154.9 67.0439 153.205 73.7749 151.621V89.4078C78.6423 89.2036 84.3186 89.0106 89.1763 88.8386V75.9103H17.1172C21.004 81.2127 24.992 86.4418 29.0791 91.5915ZM375.139 112.729C368.916 109.939 354.637 103.446 350.231 101.4C348.617 100.641 348.017 99.3468 348.017 98.4608V91.9292C347.996 90.5431 348.712 89.8645 350.132 89.9352C360.724 90.4144 373.11 90.9483 383.66 91.5352L395.778 75.9103H319.951C320.995 76.4731 327.806 78.8127 327.806 86.5022C327.806 86.5022 327.863 94.7512 327.863 99.1491C327.863 103.56 330.139 107.105 335.648 109.625C341.141 112.143 359.021 119.813 360.386 120.555C362.171 121.5 362.47 122.428 362.47 125.056V141.272C362.478 143.475 360.889 143.12 360.371 143.002C356.737 142.179 353.721 141.563 350.067 140.791C349.55 140.682 348.25 140.33 348.226 138.238V127.509C341.601 126.406 334.962 125.383 328.311 124.443V136.799C328.44 144.733 334.175 150.626 343.256 152.888C351.788 154.975 359.989 157.249 368.424 159.73C377.403 162.448 382.631 158.74 382.613 149.118C382.677 148.876 382.597 124.904 382.597 124.904C382.581 119.309 381.361 115.541 375.138 112.729M99.9483 85.9957V146.083C106.808 144.827 113.782 143.671 120.688 142.649V75.9087H92.537C94.4055 76.4554 99.9499 79.5524 99.9499 85.9973M194.947 75.9087C195.979 76.3814 202.83 78.5555 202.83 84.5951C202.812 101.857 202.812 119.109 202.801 136.36C218.969 136.279 234.862 136.894 250.981 138.156V127.115C241.649 126.499 232.306 126.08 222.957 125.858V112C231.286 112.166 239.588 112.351 247.905 112.711V101.352C239.591 101.094 231.274 100.916 222.957 100.82C222.979 87.0441 222.957 87.0441 222.957 86.6967C232.259 86.7627 240.986 86.8479 250.28 86.9765V75.9103L194.947 75.9087Z" fill="#EA0029"/>
<path d="M137.08 181.89C137.748 181.803 138.222 181.578 138.5 181.215C138.773 180.861 138.91 180.4 138.91 179.845C138.91 179.211 138.754 178.761 138.413 178.526C138.092 178.298 137.648 178.213 137.079 178.28C136.127 178.414 135.17 178.544 134.21 178.674V182.268C135.17 182.139 136.127 182.014 137.08 181.89ZM136.71 176.201C137.374 176.109 137.849 175.889 138.122 175.542C138.404 175.199 138.543 174.759 138.543 174.217C138.534 173.582 138.384 173.151 138.069 172.926C137.752 172.7 137.3 172.63 136.71 172.708C135.876 172.814 135.042 172.927 134.21 173.046V176.54C135.056 176.428 135.874 176.306 136.71 176.201ZM136.763 170.568C137.551 170.462 138.203 170.449 138.754 170.533C139.307 170.618 139.738 170.795 140.097 171.065C140.434 171.348 140.7 171.713 140.843 172.176C140.991 172.638 141.074 173.205 141.074 173.881C141.074 174.472 140.98 175.002 140.811 175.45C140.634 175.889 140.361 176.277 140.004 176.63C140.452 176.812 140.811 177.124 141.065 177.568C141.316 178.012 141.443 178.665 141.443 179.528C141.443 180.252 141.349 180.863 141.137 181.388C140.949 181.891 140.648 182.344 140.258 182.712C139.846 183.09 139.364 183.384 138.839 183.577C138.236 183.806 137.607 183.962 136.966 184.042C135.233 184.267 133.499 184.508 131.764 184.744V171.253C133.424 171.02 135.098 170.79 136.763 170.568ZM147.749 177.343C148.831 177.222 149.933 177.098 151.017 176.981C150.478 175.309 149.944 173.635 149.396 171.962C148.852 173.75 148.28 175.543 147.749 177.343ZM151.716 179.049C150.163 179.21 148.605 179.38 147.063 179.557C146.717 180.673 146.379 181.789 146.045 182.913C145.172 183.014 144.311 183.119 143.448 183.218C144.898 178.544 146.368 173.881 147.812 169.214C148.862 169.099 149.925 168.988 150.972 168.873L155.326 181.93C154.463 182.014 153.602 182.099 152.742 182.196C152.385 181.141 152.057 180.094 151.716 179.049ZM165.855 170.025C165.179 169.901 164.493 169.83 163.805 169.814C163.162 169.787 162.567 169.814 162.004 169.846C161.702 169.874 161.401 169.919 161.104 169.981C160.811 170.03 160.57 170.128 160.346 170.266C160.134 170.384 159.957 170.556 159.832 170.764C159.692 170.977 159.634 171.247 159.634 171.583C159.615 171.842 159.665 172.101 159.779 172.334C159.877 172.533 160.036 172.694 160.234 172.795C160.452 172.926 160.724 173.022 161.073 173.098C161.408 173.178 161.829 173.249 162.319 173.332C163.006 173.455 163.606 173.593 164.128 173.747C164.664 173.895 165.1 174.112 165.455 174.382C165.802 174.654 166.074 174.985 166.262 175.383C166.439 175.789 166.547 176.285 166.547 176.875C166.547 178.298 166.108 179.38 165.235 180.149C164.373 180.917 163.16 181.342 161.634 181.453C160.967 181.49 160.259 181.49 159.509 181.438C158.77 181.394 158.035 181.297 157.31 181.149V179.161C158.137 179.253 158.897 179.306 159.592 179.329C160.272 179.37 160.943 179.356 161.618 179.303C162.438 179.231 163.049 179.02 163.416 178.684C163.805 178.346 163.984 177.82 163.984 177.118C163.989 176.895 163.931 176.676 163.815 176.485C163.699 176.295 163.531 176.142 163.331 176.045C163.072 175.918 162.796 175.829 162.512 175.781C162.191 175.714 161.776 175.643 161.343 175.576C160.725 175.484 160.115 175.343 159.52 175.154C159.033 175.005 158.577 174.769 158.172 174.46C157.813 174.178 157.528 173.812 157.341 173.395C157.142 172.898 157.044 172.366 157.052 171.831C157.052 170.673 157.428 169.73 158.195 169.009C158.951 168.285 160.147 167.864 161.829 167.716C163.179 167.602 164.538 167.705 165.855 168.021V170.025ZM169.382 167.262C172.421 167.05 175.469 166.867 178.515 166.695C178.507 167.415 178.507 168.132 178.515 168.848C176.33 168.968 174.133 169.092 171.95 169.238V172.689C174.061 172.559 176.172 172.432 178.287 172.318C178.013 173.049 177.726 173.786 177.446 174.516C175.619 174.622 173.779 174.722 171.95 174.849V178.427C174.133 178.282 176.33 178.158 178.515 178.044C178.507 178.756 178.507 179.48 178.515 180.199C175.469 180.351 172.421 180.544 169.382 180.758V167.262ZM186.902 177.684C187.576 177.668 188.047 177.479 188.317 177.153C188.597 176.812 188.742 176.381 188.742 175.817C188.742 175.174 188.584 174.717 188.243 174.448C187.922 174.191 187.459 174.062 186.902 174.088C185.934 174.125 184.979 174.161 184.01 174.193V177.795C184.979 177.759 185.933 177.719 186.902 177.684ZM186.521 171.964C187.195 171.938 187.668 171.763 187.952 171.435C188.223 171.126 188.362 170.686 188.362 170.152C188.362 169.525 188.218 169.074 187.888 168.824C187.576 168.563 187.124 168.449 186.521 168.468C185.683 168.5 184.854 168.531 184.01 168.57V172.059C184.854 172.025 185.682 171.988 186.521 171.964ZM186.589 166.326C187.364 166.301 188.026 166.362 188.584 166.492C189.129 166.621 189.593 166.852 189.938 167.156C190.276 167.458 190.536 167.848 190.688 168.327C190.844 168.809 190.913 169.378 190.913 170.047C190.913 170.652 190.832 171.173 190.654 171.599C190.477 172.025 190.2 172.39 189.845 172.699C190.306 172.926 190.654 173.286 190.906 173.747C191.164 174.209 191.292 174.873 191.292 175.733C191.292 176.462 191.189 177.058 190.988 177.566C190.797 178.046 190.491 178.471 190.096 178.804C189.674 179.148 189.187 179.402 188.663 179.549C188.054 179.715 187.427 179.807 186.796 179.822C185.042 179.89 183.286 179.965 181.543 180.044V166.547C183.225 166.458 184.897 166.395 186.589 166.326ZM197.629 174.149L200.921 174.095C200.364 172.371 199.831 170.647 199.271 168.917C198.723 170.662 198.166 172.401 197.629 174.149ZM201.601 176.224C200.049 176.241 198.494 176.27 196.927 176.285C196.589 177.378 196.246 178.475 195.907 179.562C195.036 179.576 194.162 179.597 193.302 179.615C194.761 175.087 196.235 170.562 197.694 166.026C198.747 166.013 199.808 166.002 200.855 165.987C202.318 170.473 203.765 174.96 205.237 179.46C204.368 179.46 203.495 179.46 202.622 179.47C202.286 178.385 201.952 177.307 201.601 176.224ZM207.35 179.46V165.948C208.205 165.948 209.064 165.968 209.927 165.968V177.312C211.976 177.326 214.025 177.353 216.073 177.393C215.785 178.097 215.507 178.814 215.232 179.528C212.605 179.485 209.977 179.463 207.35 179.46ZM218.344 179.576V166.079C219.196 166.108 220.04 166.127 220.902 166.156V177.491C222.957 177.547 225.002 177.619 227.043 177.693C226.769 178.409 226.496 179.108 226.213 179.816C223.589 179.729 220.955 179.642 218.344 179.576ZM244.506 180.216C243.819 180.376 243.124 180.494 242.423 180.57C241.732 180.654 241.06 180.666 240.42 180.629C239.444 180.562 238.627 180.35 237.94 179.965C237.276 179.592 236.708 179.069 236.281 178.438C235.84 177.758 235.526 177.004 235.353 176.212C235.149 175.303 235.05 174.372 235.057 173.44C235.057 172.39 235.157 171.435 235.353 170.605C235.546 169.763 235.851 169.068 236.281 168.489C236.71 167.926 237.255 167.497 237.94 167.227C238.627 166.95 239.465 166.841 240.42 166.902C241.135 166.95 241.819 167.052 242.462 167.196C243.091 167.341 243.787 167.561 244.504 167.848V169.787C244.107 169.685 243.753 169.584 243.428 169.496C243.099 169.42 242.788 169.343 242.492 169.283C242.205 169.232 241.914 169.19 241.627 169.155C241.341 169.127 241.032 169.091 240.716 169.074C239.629 169.01 238.834 169.37 238.374 170.152C237.9 170.953 237.667 172.093 237.667 173.588C237.667 174.305 237.712 174.961 237.837 175.543C237.94 176.132 238.117 176.646 238.374 177.058C238.627 177.491 238.948 177.822 239.339 178.073C239.717 178.319 240.178 178.462 240.732 178.491C241.032 178.513 241.327 178.513 241.595 178.513C241.885 178.513 242.166 178.513 242.472 178.491C242.761 178.462 243.068 178.433 243.406 178.394C243.731 178.359 244.107 178.311 244.506 178.23V180.216ZM247.193 181.012V167.511C248.032 167.574 248.878 167.643 249.753 167.716V179.058C251.787 179.231 253.834 179.407 255.882 179.589C255.591 180.281 255.318 180.98 255.043 181.667C252.428 181.426 249.811 181.209 247.193 181.012ZM260.798 177.812C260.798 178.665 261.026 179.287 261.483 179.674C261.94 180.081 262.522 180.316 263.268 180.382C264.044 180.472 264.652 180.369 265.104 180.072C265.556 179.774 265.781 179.198 265.781 178.343V169.266C266.641 169.357 267.498 169.46 268.378 169.568V178.66C268.378 179.47 268.244 180.155 268.04 180.702C267.809 181.245 267.477 181.668 267.048 181.98C266.609 182.294 266.064 182.485 265.44 182.575C264.72 182.676 263.989 182.677 263.268 182.58C262.531 182.512 261.804 182.357 261.103 182.118C260.522 181.914 259.989 181.594 259.536 181.176C259.1 180.759 258.769 180.245 258.571 179.676C258.342 178.997 258.231 178.284 258.243 177.568V168.478C259.095 168.563 259.955 168.642 260.798 168.727V177.812ZM277.053 182.014C277.712 182.099 278.19 182.004 278.46 181.72C278.74 181.438 278.885 181.012 278.885 180.461C278.885 179.816 278.719 179.33 278.389 179.01C278.048 178.689 277.608 178.491 277.055 178.414C276.096 178.28 275.13 178.156 274.172 178.034V181.634C275.13 181.753 276.096 181.892 277.053 182.014ZM276.677 176.225C277.336 176.317 277.818 176.225 278.085 175.947C278.367 175.683 278.503 175.28 278.503 174.722C278.515 174.095 278.356 173.628 278.042 173.313C277.724 173.012 277.275 172.815 276.677 172.739C275.843 172.624 275.007 172.516 274.172 172.414V175.904C275.008 176.011 275.837 176.121 276.677 176.225ZM276.735 170.605C277.516 170.718 278.166 170.882 278.725 171.112C279.271 171.337 279.726 171.642 280.06 171.996C280.395 172.358 280.657 172.795 280.808 173.299C280.964 173.808 281.036 174.398 281.046 175.059C281.046 175.669 280.941 176.169 280.777 176.566C280.589 176.962 280.33 177.288 279.968 177.521C280.428 177.846 280.777 178.25 281.036 178.756C281.277 179.266 281.399 179.946 281.399 180.818C281.399 181.533 281.303 182.12 281.108 182.59C280.921 183.029 280.613 183.408 280.221 183.681C279.827 183.95 279.353 184.116 278.796 184.172C278.178 184.239 277.554 184.225 276.939 184.13C275.202 183.902 273.464 183.673 271.713 183.461V169.965C273.388 170.171 275.066 170.388 276.735 170.605Z" fill="white"/>
<path d="M113.533 61.8228V21.0794H139.283L157.474 61.8228H254.673L273.679 21.0794H299.375V61.8228H312.143V8.31348H100.765V61.8228H113.533Z" fill="#06141F"/>
<path d="M213.894 47.4262C213.894 47.587 213.942 47.6787 214.037 47.6787C214.111 47.6686 214.18 47.6398 214.24 47.5951L240.519 30.5342C240.963 30.2239 241.494 30.0647 242.035 30.0792H247.811C248.696 30.0792 249.296 30.6693 249.296 31.5553V42.5862C249.296 43.9176 249 44.6927 247.819 45.4018L240.813 49.6179C240.744 49.6668 240.662 49.6962 240.577 49.7032C240.493 49.7032 240.408 49.6356 240.408 49.3912V36.5224C240.408 36.3697 240.366 36.2684 240.265 36.2684C240.191 36.2772 240.121 36.3068 240.062 36.3536L220.858 48.8349C220.423 49.1312 219.908 49.2872 219.382 49.2819H206.651C205.757 49.2819 205.167 48.6917 205.167 47.7977V31.901C205.167 31.7821 205.117 31.6727 205.016 31.6727C204.942 31.6815 204.872 31.7104 204.814 31.7563L192.143 39.3638C192.014 39.4474 191.982 39.5085 191.982 39.5664C191.982 39.6162 192.007 39.6677 192.091 39.7593L201.146 48.8091C201.265 48.9265 201.348 49.0198 201.348 49.1211C201.348 49.2047 201.213 49.2722 201.054 49.2722H192.876C192.234 49.2722 191.737 49.1806 191.392 48.8349L185.904 43.3516C185.883 43.3268 185.857 43.3066 185.828 43.2922C185.799 43.2778 185.767 43.2696 185.735 43.268C185.675 43.2714 185.617 43.289 185.566 43.3194L176.392 48.8349C175.836 49.1725 175.456 49.2642 174.908 49.2642H166.469C165.569 49.2738 164.977 48.6741 164.977 47.788V36.9694C164.977 35.6284 165.273 34.8598 166.461 34.1522L173.509 29.9184C173.565 29.8819 173.629 29.8614 173.696 29.8589C173.805 29.8589 173.863 29.9698 173.863 30.2126V44.7007C173.863 44.8535 173.897 44.921 174.008 44.921C174.083 44.909 174.154 44.8805 174.217 44.8374L198.026 30.5101C198.481 30.1966 199.039 30.0438 199.594 30.0711H212.41C213.294 30.0711 213.894 30.6613 213.894 31.5457L213.886 47.4262H213.894Z" fill="white"/>
</g>
<defs>
<clipPath id="clip0_1484_62">
<rect width="413.002" height="308" fill="white"/>
</clipPath>
</defs>
</svg>
