<svg width="354" height="260" viewBox="0 0 354 260" fill="none" xmlns="http://www.w3.org/2000/svg">
<g clip-path="url(#clip0_1484_72)">
<path d="M177.585 0C105.812 0 47.6221 58.1858 47.6221 129.967C47.6221 201.74 105.812 259.929 177.585 259.929C249.362 259.929 307.551 201.744 307.551 129.967C307.551 58.1858 249.362 0 177.585 0Z" fill="#570514"/>
<path d="M177.585 255.171C108.435 255.171 52.377 199.121 52.377 129.963C52.377 60.8166 108.435 4.75488 177.585 4.75488C246.743 4.75488 302.801 60.8166 302.801 129.963C302.801 199.125 246.743 255.171 177.585 255.171Z" fill="#7D0521"/>
<path d="M94.1293 73.0129L81.4943 63.4393L83.7431 60.4762L88.7963 64.3049L88.8229 64.2671L85.425 58.2538L87.723 55.2226L91.253 62.143L100.483 64.6223L98.1092 67.7593L92.4738 66.0585L93.2525 67.6837L96.3667 70.046L94.1293 73.0129ZM104.447 60.4119L93.1655 49.285L95.7734 46.6318L107.055 57.7625L104.447 60.4119ZM117.192 43.2075L117.23 43.1849L111.523 33.5697L114.353 31.4721L121.697 45.7587L118.345 48.2532L110.763 39.9874L110.733 40.0138L116.413 49.6894L113.102 52.1537L101.511 41.0305L104.391 38.8875L111.938 47.1496V47.0853L106.519 37.3001L109.406 35.1458L117.192 43.2075ZM129.196 28.7546C129.087 28.5339 128.969 28.3182 128.84 28.1083C128.724 27.9014 128.573 27.7161 128.395 27.5603C128.235 27.4115 128.035 27.314 127.82 27.2806C127.566 27.244 127.307 27.2918 127.083 27.4167C126.864 27.508 126.679 27.6668 126.556 27.8699C126.433 28.0731 126.378 28.3101 126.399 28.5467C126.407 28.7847 126.454 29.0197 126.539 29.2422C126.629 29.4689 126.72 29.7071 126.83 29.9225L129.71 35.7581C129.804 35.9546 129.929 36.17 130.076 36.4006C130.216 36.6274 130.379 36.8201 130.56 36.9827C130.734 37.1426 130.949 37.2523 131.18 37.3001C131.433 37.3505 131.695 37.3104 131.921 37.1867C132.155 37.0833 132.346 36.8998 132.457 36.669C132.548 36.4584 132.584 36.228 132.56 36C132.534 35.7471 132.473 35.499 132.378 35.263C132.284 35.0333 132.183 34.8064 132.076 34.5826L129.196 28.7546ZM135.269 32.6551C135.666 33.4488 135.935 34.1971 136.086 34.8774C136.237 35.5653 136.233 36.2003 136.086 36.7786C135.915 37.3826 135.592 37.9329 135.148 38.3773C134.687 38.8724 134.03 39.326 133.183 39.7417C132.337 40.1575 131.577 40.4031 130.9 40.4787C130.22 40.5543 129.604 40.4787 129.048 40.2595C128.452 40.0074 127.925 39.6145 127.514 39.1143C127.007 38.504 126.576 37.8338 126.233 37.1187L123.383 31.3436C122.702 29.9603 122.578 28.7168 122.997 27.6019C123.424 26.4945 124.373 25.576 125.832 24.8541C127.295 24.1285 128.591 23.9471 129.717 24.2872C130.844 24.6425 131.739 25.5042 132.416 26.88L135.269 32.6551ZM145.799 22.3748C145.724 22.148 145.648 21.9099 145.55 21.6756C145.467 21.4567 145.349 21.2526 145.202 21.0708C145.062 20.9007 144.879 20.7703 144.673 20.6929C144.425 20.6173 144.158 20.628 143.917 20.7231C143.675 20.7856 143.46 20.9232 143.301 21.1162C143.177 21.2962 143.099 21.5038 143.074 21.7209C143.044 21.9575 143.052 22.1973 143.097 22.4315C143.146 22.6847 143.21 22.9228 143.274 23.1496L145.191 29.3669C145.259 29.5861 145.349 29.8167 145.455 30.0661C145.551 30.2975 145.68 30.5139 145.837 30.7086C145.992 30.9052 146.181 31.045 146.4 31.1319C146.642 31.2204 146.907 31.2204 147.148 31.1319C147.398 31.0708 147.616 30.9218 147.765 30.7124C147.887 30.5178 147.958 30.2956 147.972 30.0661C147.982 29.811 147.96 29.5557 147.904 29.3064C147.852 29.0644 147.789 28.8247 147.715 28.5883L145.799 22.3748ZM151.174 27.1974C151.438 28.0403 151.589 28.8226 151.627 29.5181C151.665 30.2286 151.559 30.8485 151.321 31.3927C151.059 31.9635 150.656 32.4579 150.149 32.8289C149.493 33.2928 148.762 33.6405 147.988 33.857C147.225 34.1151 146.423 34.2391 145.618 34.2236C144.986 34.2008 144.369 34.023 143.822 33.7058C143.273 33.3626 142.817 32.8903 142.492 32.3301C142.087 31.6507 141.77 30.9231 141.547 30.1644L139.65 24.0037C139.196 22.5335 139.272 21.29 139.862 20.262C140.463 19.2264 141.54 18.4667 143.097 17.9867C144.658 17.5067 145.969 17.5294 147.02 18.051C148.078 18.5763 148.827 19.5704 149.28 21.0368L151.174 27.1974ZM158.585 30.5763L156.741 14.8384L161.945 14.2261L164.946 23.3045L164.984 23.2932L165.872 13.7688L171.035 13.1641L172.88 28.8982L169.353 29.314L168.284 16.9285L168.246 16.936L167.086 29.5823L164.338 29.9036L160.35 17.862H160.313L162.089 30.1644L158.585 30.5763ZM188.753 29.5408L191.263 13.8935L194.937 14.4831L193.973 20.4888L196.52 20.9008L197.48 14.8913L201.154 15.4771L198.645 31.1244L194.971 30.5348L196.014 24.0226L193.47 23.6182L192.423 30.1266L188.753 29.5408ZM204.609 32.606L209.484 17.5408L217.588 20.16L216.605 23.176L212.043 21.6945L211.147 24.4724L215.569 25.9049L214.59 28.9134L210.168 27.4809L209.118 30.7389L213.918 32.296L212.95 35.3121L204.609 32.606ZM225.955 31.113L227.082 31.68C227.287 31.7961 227.523 31.8488 227.758 31.8312C227.961 31.8103 228.155 31.7374 228.321 31.6195C228.505 31.4906 228.664 31.3292 228.79 31.1433C228.927 30.9489 229.048 30.7442 229.153 30.531C229.335 30.2061 229.459 29.8518 229.52 29.4841C229.562 29.2269 229.508 28.9632 229.368 28.7433C229.209 28.5061 228.994 28.3125 228.741 28.1801C228.403 27.9866 228.057 27.8063 227.705 27.6397L225.955 31.113ZM221.847 39.2428L218.529 37.5647L225.672 23.4217L230.514 25.8633C231.889 26.5549 232.759 27.3675 233.129 28.3049C233.503 29.2497 233.329 30.4214 232.623 31.8274C232.237 32.5833 231.791 33.1691 231.285 33.5849C230.767 34.0082 230.09 34.1971 229.236 34.1631L229.221 34.2047C229.614 34.5113 229.906 34.9286 230.06 35.4028C230.197 35.8874 230.155 36.4052 229.943 36.8617L229.47 37.9502L228.888 39.2428L228.337 40.5014C228.196 40.8204 228.077 41.1488 227.981 41.4841C227.962 41.7052 227.989 41.9278 228.061 42.1379L227.962 42.3269L224.334 40.4976C224.364 40.3351 224.383 40.1801 224.421 40.029C224.457 39.8793 224.505 39.7328 224.565 39.5905C224.852 38.948 225.15 38.3508 225.441 37.799C225.732 37.2472 225.971 36.7408 226.141 36.2683C226.298 35.8848 226.375 35.4733 226.367 35.0589C226.341 34.7187 226.141 34.4315 225.763 34.2123L224.667 33.6604L221.847 39.2428ZM244.316 39.806C244.456 39.6056 244.592 39.4053 244.721 39.1861C244.847 38.9868 244.94 38.7686 244.997 38.5398C245.046 38.3276 245.04 38.1062 244.978 37.8973C244.889 37.6534 244.723 37.4451 244.505 37.3039C244.308 37.149 244.068 37.0604 243.817 37.0507C243.596 37.0597 243.38 37.1206 243.186 37.2283C242.986 37.3535 242.804 37.5062 242.646 37.6819C242.472 37.8708 242.317 38.0598 242.177 38.2526L238.364 43.5288C238.235 43.7102 238.099 43.9219 237.963 44.1562C237.833 44.3748 237.736 44.6118 237.676 44.8592C237.619 45.0881 237.623 45.3277 237.687 45.5546C237.763 45.8022 237.923 46.0151 238.141 46.1556C238.338 46.3153 238.586 46.3985 238.84 46.3899C239.07 46.37 239.291 46.292 239.482 46.1631C239.696 46.0252 239.887 45.8557 240.049 45.6604C240.219 45.4526 240.374 45.2636 240.503 45.0746L244.316 39.806ZM243.7 46.9984C243.179 47.7165 242.65 48.3061 242.113 48.7634C241.632 49.1863 241.056 49.4883 240.435 49.6441C239.821 49.7798 239.183 49.7538 238.583 49.5685C237.818 49.3276 237.1 48.9554 236.463 48.4686C235.799 48.0088 235.216 47.4417 234.739 46.7905C234.375 46.2722 234.147 45.6703 234.078 45.0406C234.013 44.4472 234.115 43.816 234.361 43.1584C234.626 42.497 235.019 41.8091 235.533 41.091L239.312 35.8677C240.212 34.6204 241.247 33.9288 242.43 33.7889C243.617 33.6453 244.868 34.0535 246.191 35.0097C247.518 35.9659 248.285 37.0242 248.504 38.177C248.723 39.3297 248.379 40.5354 247.476 41.7789L243.7 46.9984ZM245.375 55.0904L256.502 43.8047L262.564 49.7839L260.342 52.0403L256.925 48.6689L254.876 50.7477L258.191 54.0094L255.961 56.2696L252.654 53.0041L250.246 55.4419L253.841 58.9871L251.622 61.2472L245.375 55.0904ZM261.577 64.9247L260.685 65.5975C260.512 65.7271 260.354 65.8754 260.213 66.0397C260.076 66.1858 259.973 66.3599 259.911 66.5499C259.847 66.7415 259.838 66.9468 259.884 67.1433C259.939 67.3884 260.051 67.6174 260.209 67.8123C260.474 68.1524 260.788 68.3112 261.169 68.2734C261.547 68.2356 261.899 68.0957 262.22 67.8463C262.468 67.6758 262.667 67.444 262.798 67.1735C262.915 66.9336 262.989 66.6753 263.017 66.4101C263.045 66.1357 263.039 65.8589 262.999 65.5861C262.968 65.3018 262.943 65.0171 262.923 64.7319C262.838 64.1225 262.78 63.5096 262.749 62.8951C262.721 62.3422 262.767 61.788 262.885 61.2472C263.01 60.7256 263.214 60.2419 263.494 59.7883C263.781 59.3348 264.2 58.9001 264.771 58.4768C265.962 57.5811 267.103 57.2296 268.211 57.445C269.31 57.6529 270.301 58.3408 271.17 59.4973C271.654 60.1398 271.979 60.7823 272.145 61.4249C272.311 62.0674 272.326 62.6797 272.198 63.2693C272.073 63.8626 271.82 64.4182 271.427 64.9474C271 65.4982 270.484 65.9735 269.9 66.3534L267.848 63.617L268.4 63.1445C268.593 62.9909 268.764 62.8102 268.906 62.6078C269.039 62.426 269.121 62.2121 269.144 61.988C269.152 61.7321 269.078 61.4804 268.932 61.2699C268.725 60.9449 268.479 60.7521 268.195 60.6954C267.889 60.6391 267.572 60.7027 267.311 60.873C266.895 61.1112 266.638 61.4097 266.548 61.7537C266.451 62.1376 266.413 62.5338 266.434 62.9291C266.495 63.7682 266.585 64.5165 266.676 65.1741C266.774 65.8356 266.789 66.4592 266.729 67.0488C266.663 67.649 266.471 68.2285 266.166 68.7496C265.852 69.2787 265.308 69.8381 264.537 70.4239C263.309 71.3461 262.125 71.7278 260.988 71.5653C259.85 71.3952 258.811 70.6923 257.885 69.4488C257.425 68.8684 257.067 68.214 256.827 67.5137C256.636 66.9526 256.568 66.3572 256.626 65.7675C256.681 65.2511 256.851 64.7537 257.125 64.3124C257.401 63.8778 257.745 63.5036 258.161 63.1899L259.51 62.1694L261.577 64.9247ZM84.7901 183.908C85.6858 183.409 86.5135 182.838 85.9315 181.829C85.58 181.206 85.1 180.952 84.431 181.327C83.6751 181.757 83.6524 182.4 83.6184 183.19C83.5806 184.021 83.4824 185.567 83.267 186.365C83.01 187.351 82.5224 187.895 81.6682 188.383C79.7898 189.453 78.1079 188.761 77.0761 186.947C75.8137 184.728 76.6074 183.228 78.3762 182.222L79.1018 181.807L80.1526 183.659L79.5705 183.987C78.5878 184.498 78.0512 185.185 78.569 186.104C79.015 186.879 79.6348 187.011 80.3832 186.595C80.9728 186.255 81.2146 185.768 81.2751 185.102C81.4754 183.704 81.3356 182.196 81.8988 180.884C82.1688 180.32 82.6037 179.851 83.146 179.539C84.843 178.583 86.3057 179.002 87.4169 180.96C89.095 183.908 86.7781 185.125 85.8068 185.692L84.7901 183.908ZM80.9916 192.922L90.3838 186.459L93.7777 191.384L92.4059 192.34L90.2137 189.158L87.8477 190.783L89.8622 193.716L88.4864 194.665L86.472 191.728L83.5769 193.727L85.769 196.902L84.3932 197.847L80.9916 192.922ZM90.9129 199.846C90.1834 200.455 89.0533 201.494 89.9831 202.613C90.9544 203.785 92.1715 202.802 93.0143 202.103L95.2631 200.232C95.9623 199.654 97.5498 198.399 96.5406 197.182C95.471 195.897 94.0272 197.272 93.3469 197.832L90.9129 199.846ZM91.5857 196.452C93.8798 194.665 95.6902 193.463 97.8597 196.082C100.04 198.701 98.5173 200.258 96.3403 202.186L95.0931 203.221C92.7498 205.16 90.894 206.404 88.6679 203.713C86.4304 201.025 87.9913 199.427 90.3309 197.488L91.5857 196.452ZM105.559 204.775L107.074 206.279L101.481 211.926C99.7041 213.721 98.2754 213.997 96.295 212.035C94.2918 210.062 94.5564 208.637 96.3328 206.838L101.926 201.184L103.446 202.681L97.9769 208.199C97.2059 208.981 96.4877 209.805 97.5195 210.83C98.4984 211.805 99.3261 211.075 100.097 210.3L105.559 204.775ZM102.04 217.043L109.312 208.259L110.944 209.62L104.746 217.111L107.788 219.632L106.73 220.917L102.04 217.043ZM114.028 226.182L120.019 216.484L121.826 217.599L119.456 221.442L121.992 223.003L124.362 219.163L126.176 220.278L120.185 229.988L118.371 228.862L121.111 224.432L118.579 222.867L115.835 227.301L114.028 226.182ZM123.636 231.863L128.731 221.665L134.09 224.341L133.346 225.842L129.895 224.111L128.602 226.681L131.788 228.276L131.04 229.773L127.858 228.181L126.289 231.326L129.744 233.049L128.992 234.546L123.636 231.863ZM136.626 230.653L138.191 231.265C138.856 231.477 139.533 231.247 139.945 230.185C140.41 228.994 139.994 228.601 139.249 228.299L137.775 227.728L136.626 230.653ZM136.022 232.21L134.238 236.791L132.253 236.009L136.399 225.392L140.153 226.866C141.869 227.524 142.942 228.627 142.175 230.585C141.721 231.742 140.946 232.845 139.544 232.513L139.533 232.539C140.644 233.155 140.712 234.043 140.308 235.06C140.137 235.502 139.064 238.084 139.423 238.586L139.348 238.779L137.163 237.929C137.189 237.154 137.741 235.869 138.002 235.158C138.248 234.497 138.607 233.613 138.002 233.144C137.522 232.785 136.94 232.569 136.373 232.35L136.022 232.21ZM145.935 236.738C145.674 237.645 145.331 239.146 146.737 239.535C148.207 239.947 148.638 238.447 148.936 237.392L149.73 234.58C149.976 233.707 150.565 231.768 149.046 231.349C147.436 230.888 147.028 232.842 146.789 233.692L145.935 236.738ZM144.556 233.556C145.429 230.778 146.234 228.763 149.514 229.697C152.788 230.612 152.425 232.755 151.722 235.57L151.283 237.135C150.463 240.06 149.639 242.139 146.275 241.191C142.904 240.246 143.29 238.046 144.114 235.117L144.556 233.556ZM153.676 242.763L155.747 231.549L161.643 232.637L161.337 234.278L157.538 233.575L157.013 236.406L160.513 237.056L160.211 238.696L156.718 238.054L156.076 241.504L159.874 242.207L159.572 243.848L153.676 242.763ZM168.216 236.874C168.329 235.869 168.336 234.856 167.169 234.743C166.462 234.682 165.978 234.92 165.902 235.688C165.819 236.549 166.33 236.942 166.957 237.426C167.611 237.929 168.809 238.904 169.346 239.535C170.003 240.317 170.17 241.013 170.071 242.007C169.863 244.154 168.333 245.133 166.262 244.936C163.718 244.687 162.947 243.179 163.144 241.149L163.227 240.317L165.343 240.518L165.279 241.191C165.128 242.287 165.385 243.129 166.424 243.224C167.316 243.311 167.788 242.884 167.872 242.018C167.936 241.357 167.675 240.869 167.169 240.442C166.148 239.467 164.833 238.719 164.077 237.498C163.779 236.951 163.647 236.328 163.699 235.706C163.888 233.764 165.082 232.815 167.32 233.031C170.695 233.363 170.351 235.956 170.257 237.071L168.216 236.874ZM181.486 243.473C181.932 243.458 182.385 243.481 182.759 243.3C183.326 243.024 183.371 242.275 183.345 241.689C183.3 240.461 183.043 239.951 181.72 240.008L180.892 240.042L181.028 243.492L181.486 243.473ZM181.221 238.352C181.739 238.337 182.404 238.337 182.725 237.899C182.914 237.604 182.926 237.199 182.903 236.651C182.873 235.801 182.676 235.389 181.701 235.4L180.718 235.438L180.824 238.367L181.221 238.352ZM178.968 245.242L178.519 233.847L181.95 233.711C182.869 233.673 183.765 233.7 184.407 234.452C184.913 235.06 185.012 235.706 185.046 236.481C185.084 237.464 184.914 238.45 183.772 238.919V238.953C184.978 239.07 185.477 240.057 185.533 241.531C185.548 242.007 185.545 242.476 185.435 242.929C185.038 244.396 184.237 245.034 182.721 245.099L178.968 245.242ZM191.074 239.837L192.885 239.603L191.902 236.466C191.728 235.952 191.611 235.446 191.482 234.924C191.432 234.674 191.373 234.425 191.305 234.18L191.278 234.187C191.278 234.429 191.278 234.69 191.301 234.951C191.305 235.48 191.327 236.001 191.29 236.545L191.074 239.837ZM188.508 244.774L189.744 233.114L192.59 232.743L196.622 243.723L194.355 244.01L193.429 241.221L190.957 241.538L190.776 244.479L188.508 244.774ZM202.197 234.448C201.993 233.45 201.68 232.494 200.538 232.743C199.843 232.898 199.461 233.28 199.631 234.036C199.816 234.882 200.425 235.094 201.169 235.362C201.944 235.638 203.399 236.194 204.102 236.625C204.968 237.165 205.342 237.785 205.554 238.749C206.022 240.858 204.873 242.264 202.84 242.717C200.342 243.273 199.143 242.075 198.701 240.087L198.52 239.263L200.599 238.809L200.742 239.463C200.943 240.552 201.441 241.262 202.466 241.039C203.343 240.843 203.652 240.295 203.467 239.441C203.327 238.798 202.927 238.409 202.311 238.159C201.033 237.555 199.552 237.252 198.452 236.323C198 235.894 197.683 235.342 197.541 234.735C197.125 232.838 197.957 231.56 200.149 231.069C203.46 230.332 203.94 232.906 204.2 233.998L202.197 234.448ZM209.7 240.711L206.26 229.837L211.96 228.03L212.47 229.629L208.789 230.797L209.654 233.533L213.048 232.452L213.555 234.055L210.161 235.128L211.219 238.477L214.908 237.309L215.411 238.904L209.7 240.711ZM220.505 235.155C220.91 234.981 221.348 234.852 221.632 234.55C222.066 234.093 221.851 233.367 221.632 232.842C221.159 231.7 220.736 231.322 219.515 231.825L218.752 232.139L220.082 235.325L220.505 235.155ZM218.483 230.442C218.96 230.249 219.587 230.026 219.731 229.497C219.806 229.157 219.685 228.775 219.474 228.268C219.149 227.475 218.816 227.161 217.905 227.505L216.994 227.89L218.117 230.597L218.483 230.442ZM218.752 237.691L214.382 227.161L217.557 225.842C218.4 225.487 219.254 225.199 220.112 225.687C220.793 226.08 221.118 226.651 221.42 227.361C221.798 228.276 221.976 229.262 221.072 230.09L221.084 230.116C222.259 229.814 223.057 230.57 223.631 231.927C223.812 232.362 223.964 232.815 224.024 233.272C224.16 234.788 223.635 235.665 222.229 236.254L218.752 237.691ZM228.216 228.427L229.829 227.573L227.811 224.984C227.471 224.561 227.195 224.115 226.889 223.68C226.757 223.461 226.605 223.242 226.473 223.045L226.443 223.056C226.526 223.283 226.624 223.529 226.726 223.763C226.919 224.262 227.123 224.746 227.278 225.26L228.216 228.427ZM227.528 233.941L224.633 222.58L227.176 221.242L234.762 230.139L232.743 231.19L230.903 228.899L228.696 230.067L229.538 232.879L227.528 233.941ZM237.426 228.514L231.258 218.925L233.05 217.769L238.303 225.963L241.633 223.827L242.54 225.233L237.426 228.514ZM245.337 223.242L238.413 214.186L240.102 212.889L246.01 220.63L249.154 218.222L250.163 219.549L245.337 223.242ZM258.803 205.984C258.939 206.151 259.098 206.317 259.23 206.476C260.633 208.018 261.271 209.65 259.597 211.321C257.121 213.804 255.39 212.398 253.244 210.248L252.087 209.099C250.095 206.982 248.727 205.296 251.127 202.885C252.499 201.555 253.939 201.494 255.424 202.76C255.654 202.937 255.87 203.132 256.071 203.342L254.585 204.828C254.007 204.374 253.092 203.354 252.348 204.102C251.169 205.285 252.677 206.597 253.293 207.216L255.538 209.45C256.199 210.111 257.348 211.143 258.38 210.108C259.208 209.276 257.775 208.052 257.288 207.5L258.803 205.984ZM264.098 206.166L255.364 198.833L256.732 197.197L264.185 203.456L266.725 200.432L268.01 201.509L264.098 206.166ZM263.69 188.039L264.911 186.297L271.434 190.851C273.502 192.295 274.02 193.648 272.428 195.942C270.822 198.244 269.367 198.236 267.296 196.789L260.765 192.238L261.986 190.492L268.362 194.937C269.257 195.56 270.202 196.127 271.03 194.94C271.824 193.807 270.966 193.126 270.066 192.488L263.69 188.039ZM276.178 186.384C276.401 185.998 276.658 185.628 276.711 185.212C276.764 184.581 276.155 184.142 275.652 183.863C274.575 183.254 274.008 183.22 273.358 184.362L272.958 185.08L275.962 186.78L276.178 186.384ZM271.691 183.908C271.952 183.462 272.304 182.899 272.096 182.396C271.941 182.075 271.612 181.863 271.14 181.591C270.399 181.172 269.934 181.111 269.435 181.958L268.944 182.812L271.499 184.26L271.691 183.908ZM276.367 189.456L266.442 183.848L268.135 180.854C268.581 180.06 269.08 179.305 270.051 179.165C270.837 179.044 271.442 179.301 272.111 179.675C272.98 180.166 273.717 180.828 273.513 182.045L273.543 182.06C274.277 181.092 275.377 181.194 276.658 181.92C277.074 182.154 277.47 182.411 277.803 182.744C278.835 183.848 278.967 184.868 278.211 186.191L276.367 189.456Z" fill="white"/>
<path d="M177.585 223.446C125.956 223.446 84.1057 181.591 84.1057 129.963C84.1057 78.3346 125.956 36.4839 177.585 36.4839C229.213 36.4839 271.071 78.3384 271.071 129.963C271.071 181.591 229.217 223.446 177.585 223.446Z" fill="#570514"/>
<path d="M211.529 211.858C166.273 230.597 114.399 209.114 95.6522 163.858C76.9133 118.613 98.4 66.7315 143.648 47.9889C188.897 29.2537 240.782 50.7328 259.514 95.9813C278.26 141.237 256.777 193.115 211.529 211.858Z" fill="white"/>
<path d="M101.367 92.258C101.571 91.5097 102.168 90.8105 102.69 90.682C103.06 90.5912 103.294 90.8143 103.336 91.2111C103.344 91.4195 103.324 91.628 103.275 91.8309C102.671 93.9361 101.439 100.569 101.439 100.569C101.439 100.569 97.9085 104.269 96.2379 105.947C95.8033 106.378 95.3346 106.242 95.1948 105.649C95.141 105.312 95.1622 104.967 95.257 104.639C95.3517 104.311 95.5176 104.008 95.7429 103.752C97.0619 102.41 98.4037 101.034 99.787 99.5487C100.165 97.0807 100.694 94.6429 101.367 92.258ZM104.731 93.8152C104.863 93.0328 105.483 92.2316 106.095 92.0275C106.586 91.8687 106.927 92.1068 107.002 92.5831C107.021 92.7467 107.016 92.9122 106.987 93.0744C106.59 95.3157 106.103 102.202 106.103 102.202C106.103 102.202 102.3 106.628 100.471 108.612C99.9873 109.134 99.3901 109.081 99.1482 108.484C98.9026 107.879 99.0878 106.972 99.5716 106.443C100.989 104.878 102.444 103.192 103.937 101.442C104.024 98.8835 104.285 96.3513 104.731 93.8152ZM109.485 95.0095C109.526 94.5924 109.672 94.1925 109.91 93.8469C110.147 93.5013 110.468 93.2213 110.842 93.0328C111.462 92.7834 111.946 93.0177 112.052 93.5771C112.075 93.6889 112.085 93.8031 112.082 93.9172C111.972 96.1472 112.388 103.109 112.388 103.109C112.388 103.109 108.431 108.166 106.492 110.543C105.989 111.171 105.264 111.224 104.867 110.664C104.492 110.109 104.587 109.149 105.093 108.518C106.624 106.609 108.14 104.712 109.667 102.712C109.423 100.152 109.364 97.578 109.489 95.0095M115.359 95.4102C115.294 94.624 115.876 93.6602 116.67 93.2672C117.403 92.9043 118.061 93.1424 118.22 93.7963L118.261 93.9853C118.465 96.2379 119.939 103.101 119.939 103.101C119.939 103.101 115.941 108.835 113.919 111.522C113.393 112.24 112.528 112.392 112.006 111.878C111.492 111.367 111.504 110.366 112.021 109.655C113.571 107.554 115.128 105.335 116.674 103.086C116.031 100.539 115.585 97.984 115.355 95.4102M122.615 96.0716C122.51 95.72 122.413 95.3659 122.324 95.0095C122.116 94.2536 122.649 93.2218 123.519 92.738C124.388 92.2202 125.272 92.447 125.476 93.2105C125.571 93.5657 125.669 93.9097 125.775 94.2461C126.315 96.0602 128.761 102.002 128.761 102.002C128.761 102.002 124.853 108.313 122.853 111.39C122.324 112.203 121.342 112.497 120.642 112.067C119.966 111.628 119.837 110.619 120.355 109.795C121.923 107.367 123.459 104.919 124.962 102.451C124.017 100.335 123.239 98.1919 122.611 96.0716M134.407 100.713C132.82 98.4073 131.444 96.0565 130.322 93.6602C129.97 92.9232 130.446 91.8687 131.35 91.2791C132.291 90.7009 133.315 90.7991 133.674 91.5286C134.676 93.6035 138.659 99.8322 138.659 99.8322C138.659 99.8322 135.095 106.654 133.149 109.988C132.627 110.88 131.524 111.307 130.685 110.944C129.853 110.581 129.589 109.564 130.103 108.669C131.603 106.072 133.035 103.389 134.411 100.713M144.801 97.882C142.792 95.8557 140.923 93.6951 139.207 91.4152C138.712 90.7462 139.056 89.6539 139.994 88.9887C140.939 88.316 142.118 88.3084 142.624 88.9812C144.06 90.8634 149.352 96.544 149.352 96.544C149.352 96.544 146.336 103.661 144.623 107.251C144.147 108.223 142.983 108.793 141.997 108.536C141.014 108.283 140.591 107.301 141.033 106.344C142.382 103.483 143.641 100.679 144.801 97.882ZM152.81 102.697C153.906 99.7528 154.889 96.8615 155.735 94.0042C153.292 92.228 150.95 90.3163 148.721 88.2782C148.07 87.6697 148.278 86.5849 149.197 85.8479C150.104 85.1072 151.4 84.9938 152.054 85.5985C153.914 87.2615 160.377 91.3661 160.377 91.3661C160.377 91.3661 158.2 99.545 156.801 103.249C156.423 104.254 155.225 104.935 154.121 104.791C153.033 104.64 152.436 103.702 152.81 102.697ZM166.522 99.8927C165.362 99.8322 164.629 98.9667 164.897 97.95C165.643 95.0935 166.257 92.2042 166.738 89.2911C163.914 87.774 161.161 86.1295 158.487 84.3626C157.704 83.8335 157.754 82.7827 158.623 82.0193C159.488 81.2483 160.815 81.0366 161.601 81.562C163.846 83.0284 171.246 86.6039 171.246 86.6039C171.246 86.6039 170.116 94.4653 169.138 98.1654C168.858 99.1783 167.701 99.9418 166.522 99.8927ZM176.712 92.3979C177.042 89.5969 177.236 86.7817 177.294 83.962C174.197 82.7046 171.137 81.3586 168.117 79.9254C167.217 79.487 167.085 78.4892 167.83 77.6993C168.567 76.9094 169.912 76.6183 170.819 77.0454C173.314 78.2133 181.436 81.2672 181.436 81.2672C181.436 81.2672 181.398 88.5768 181.009 92.2202C180.896 93.2105 179.845 94.0495 178.666 94.0987C177.483 94.1554 176.602 93.3881 176.712 92.3979ZM187.616 86.1503C187.544 83.4253 187.257 80.772 186.841 78.236C183.564 77.2529 180.312 76.1868 177.09 75.0385C176.096 74.6908 175.805 73.7686 176.428 72.9824C177.048 72.2114 178.329 71.8637 179.308 72.2114C182.014 73.1752 190.522 75.6697 190.522 75.6697C190.522 75.6697 191.645 82.3405 191.754 85.761C191.769 86.7021 190.877 87.545 189.732 87.6508C188.587 87.7679 187.638 87.0914 187.616 86.1503ZM197.121 79.6798C196.605 77.2098 195.918 74.7787 195.065 72.4042C191.705 71.6331 188.383 70.8357 185.136 70.0042C184.112 69.732 183.624 68.9081 184.097 68.1522C184.539 67.4076 185.733 67.007 186.743 67.2791C189.517 67.9821 198.168 70.0079 198.168 70.0079C198.168 70.0079 200.247 75.8851 200.939 79.0561C201.131 79.9254 200.436 80.7683 199.389 80.9459C198.331 81.1122 197.31 80.5566 197.121 79.6798ZM204.877 73.1449C203.99 70.885 202.926 68.6987 201.694 66.6064C198.452 66.0924 195.194 65.5292 191.92 64.9245C190.877 64.7355 190.273 63.9985 190.564 63.2842C190.858 62.585 191.913 62.1654 192.93 62.3695C195.726 62.8949 204.193 64.3764 204.193 64.3764C204.193 64.3764 205.788 67.0448 206.502 68.4583C207.152 69.732 207.749 71.0549 208.282 72.4155C208.603 73.1903 208.093 73.9991 207.16 74.1994C206.222 74.4035 205.194 73.9462 204.877 73.1449ZM210.845 66.8483C209.604 64.8293 208.228 62.8973 206.725 61.0656C203.607 60.7296 200.491 60.3705 197.378 59.9884C196.373 59.8561 195.643 59.2325 195.768 58.5749C195.881 57.9324 196.788 57.5166 197.779 57.63C200.466 57.9701 208.543 58.9339 208.543 58.9339C208.543 58.9339 212.186 63.4694 213.759 66.0092C213.785 66.0394 213.796 66.0659 213.811 66.1037C214.159 66.7689 213.849 67.4568 213.093 67.6835C212.679 67.7929 212.24 67.7713 211.838 67.6218C211.437 67.4722 211.091 67.2021 210.848 66.8483M214.976 60.8426C213.509 59.0662 211.876 57.3919 210.168 55.8309C207.333 55.6798 204.416 55.4908 201.407 55.2754C200.455 55.2073 199.65 54.6631 199.631 54.0659C199.593 53.4763 200.349 53.0568 201.294 53.1399C203.864 53.3289 211.385 53.858 211.385 53.858C211.385 53.858 215.58 57.7774 217.425 59.9922C217.481 60.055 217.53 60.1234 217.572 60.1963C217.893 60.7443 217.723 61.315 217.134 61.5229C216.446 61.7497 215.493 61.4624 214.979 60.8426M217.519 55.3018C215.781 53.7333 214.027 52.316 212.175 50.9969C209.59 50.9705 206.899 50.9251 204.162 50.8684C203.255 50.8571 202.394 50.4035 202.227 49.8668C202.072 49.3415 202.658 48.9409 203.55 48.956C205.897 49.0127 212.814 49.1639 212.814 49.1639C212.814 49.1639 217.368 52.4898 219.481 54.4098C219.583 54.5039 219.674 54.6091 219.753 54.7235C220.04 55.1544 219.991 55.5966 219.556 55.8045C219.008 56.0539 218.098 55.8272 217.515 55.298M253.81 167.592C253.602 168.336 253.009 169.039 252.484 169.171C252.117 169.255 251.883 169.035 251.841 168.638C251.834 168.43 251.856 168.221 251.905 168.019C252.503 165.921 253.738 159.273 253.738 159.273C253.738 159.273 257.269 155.576 258.939 153.906C259.366 153.46 259.842 153.604 259.982 154.208C260.037 154.543 260.016 154.886 259.921 155.211C259.826 155.537 259.66 155.837 259.434 156.09C258.111 157.44 256.773 158.815 255.383 160.301C255.005 162.758 254.475 165.207 253.81 167.592ZM250.447 166.034C250.314 166.809 249.694 167.618 249.075 167.815C248.591 167.977 248.247 167.743 248.167 167.27C248.153 167.102 248.16 166.933 248.19 166.768C248.579 164.53 249.067 157.644 249.067 157.644C249.067 157.644 252.877 153.218 254.702 151.234C255.194 150.705 255.783 150.769 256.025 151.366C256.267 151.967 256.089 152.878 255.598 153.407C254.188 154.968 252.729 156.657 251.24 158.404C251.155 160.963 250.89 163.513 250.447 166.034ZM245.692 164.84C245.65 165.257 245.504 165.657 245.266 166.002C245.029 166.348 244.709 166.628 244.335 166.817C243.715 167.066 243.231 166.832 243.126 166.269C243.095 166.163 243.092 166.05 243.095 165.925C243.209 163.695 242.789 156.733 242.789 156.733C242.789 156.733 246.746 151.68 248.685 149.306C249.192 148.675 249.91 148.626 250.31 149.185C250.681 149.737 250.59 150.697 250.084 151.324C248.533 153.243 247.006 155.181 245.503 157.137C245.756 159.715 245.809 162.315 245.692 164.84ZM239.818 164.436C239.879 165.229 239.301 166.186 238.503 166.582C237.774 166.945 237.112 166.7 236.954 166.061L236.916 165.864C236.708 163.608 235.23 156.744 235.23 156.744C235.23 156.744 239.236 151.007 241.251 148.32C241.78 147.602 242.649 147.45 243.163 147.972C243.685 148.482 243.67 149.476 243.148 150.194C241.606 152.296 240.049 154.507 238.499 156.759C239.142 159.307 239.592 161.862 239.822 164.432M232.562 163.774C232.668 164.13 232.762 164.481 232.853 164.84C233.053 165.596 232.528 166.628 231.658 167.112C230.785 167.618 229.905 167.399 229.701 166.632C229.602 166.291 229.508 165.94 229.402 165.596C228.858 163.789 226.416 157.84 226.416 157.84C226.416 157.84 230.321 151.536 232.324 148.46C232.853 147.651 233.832 147.348 234.535 147.783C235.207 148.218 235.336 149.231 234.814 150.051C233.242 152.507 231.715 154.915 230.211 157.394C231.156 159.503 231.938 161.654 232.566 163.774M220.762 159.137C222.357 161.442 223.733 163.789 224.852 166.189C225.199 166.919 224.727 167.977 223.82 168.57C222.882 169.153 221.854 169.039 221.503 168.317C220.497 166.242 216.525 160.014 216.525 160.014C216.525 160.014 220.078 153.195 222.028 149.858C222.55 148.966 223.65 148.535 224.493 148.906C225.324 149.265 225.589 150.285 225.075 151.173C223.578 153.795 222.138 156.45 220.762 159.137ZM210.384 161.96C212.385 163.993 214.251 166.154 215.97 168.431C216.461 169.103 216.121 170.184 215.18 170.857C214.235 171.537 213.063 171.545 212.553 170.868C211.117 168.982 205.825 163.306 205.825 163.306C205.825 163.306 208.838 156.196 210.554 152.587C211.022 151.623 212.194 151.049 213.18 151.302C214.163 151.559 214.579 152.549 214.137 153.501C212.791 156.363 211.54 159.171 210.384 161.96ZM202.363 157.145C201.267 160.097 200.288 162.988 199.434 165.842C201.982 167.686 204.348 169.64 206.457 171.571C207.099 172.176 206.903 173.253 205.98 173.99C205.073 174.739 203.781 174.852 203.115 174.247C201.26 172.584 194.8 168.487 194.8 168.487C194.8 168.487 196.97 160.305 198.372 156.597C198.75 155.588 199.944 154.907 201.056 155.059C202.137 155.217 202.738 156.143 202.363 157.145ZM188.647 159.964C189.815 160.014 190.549 160.883 190.273 161.892C189.529 164.751 188.916 167.643 188.436 170.559C191.361 172.153 194.098 173.737 196.687 175.483C197.473 176.009 197.424 177.059 196.55 177.83C195.689 178.598 194.358 178.802 193.572 178.284C191.327 176.817 183.931 173.25 183.931 173.25C183.931 173.25 185.053 165.384 186.04 161.68C186.319 160.671 187.476 159.908 188.647 159.964ZM178.462 167.448C178.13 170.249 177.937 173.064 177.883 175.884C181.092 177.176 184.18 178.567 187.06 179.928C187.956 180.359 188.084 181.345 187.347 182.15C186.61 182.936 185.265 183.231 184.35 182.804C181.863 181.629 173.737 178.582 173.737 178.582C173.737 178.582 173.779 171.273 174.176 167.622C174.285 166.643 175.325 165.8 176.508 165.755C177.702 165.69 178.575 166.454 178.462 167.448ZM167.561 173.699C167.637 176.421 167.913 179.078 168.332 181.598C171.666 182.611 174.92 183.677 178.084 184.804C179.074 185.155 179.372 186.089 178.753 186.856C178.129 187.642 176.848 187.99 175.869 187.642C173.163 186.674 164.659 184.18 164.659 184.18C164.659 184.18 163.533 177.509 163.419 174.081C163.404 173.144 164.3 172.301 165.441 172.184C166.586 172.082 167.543 172.751 167.561 173.699ZM158.048 180.166C158.6 182.744 159.273 185.147 160.112 187.445C163.464 188.22 166.79 189.014 170.041 189.842C171.065 190.114 171.553 190.938 171.08 191.694C170.634 192.442 169.451 192.835 168.431 192.57C165.653 191.864 157.001 189.842 157.001 189.842C157.001 189.842 154.93 183.968 154.239 180.793C154.038 179.924 154.738 179.081 155.788 178.907C156.846 178.734 157.867 179.289 158.048 180.166ZM150.293 186.705C151.184 188.96 152.248 191.144 153.475 193.236C156.722 193.757 159.984 194.317 163.257 194.925C164.296 195.114 164.897 195.847 164.613 196.565C164.319 197.257 163.264 197.68 162.244 197.476C158.493 196.798 154.742 196.128 150.988 195.466C150.988 195.466 149.39 192.805 148.675 191.387C148.025 190.114 147.428 188.791 146.887 187.434C146.574 186.656 147.08 185.847 148.014 185.643C148.959 185.446 149.979 185.907 150.293 186.705ZM144.332 192.998C145.614 195.073 146.967 196.974 148.452 198.784C151.569 199.116 154.684 199.474 157.795 199.857C158.801 199.982 159.53 200.613 159.409 201.267C159.296 201.921 158.388 202.341 157.394 202.223C154.711 201.879 146.627 200.916 146.627 200.916C146.627 200.916 142.987 196.38 141.411 193.837C141.388 193.809 141.372 193.777 141.366 193.742C141.018 193.081 141.32 192.389 142.076 192.158C142.493 192.05 142.933 192.073 143.336 192.223C143.74 192.373 144.088 192.643 144.332 192.998ZM140.201 199.003C141.668 200.78 143.301 202.458 145.001 204.015C147.84 204.17 150.758 204.355 153.77 204.57C154.726 204.639 155.527 205.179 155.554 205.78C155.58 206.373 154.824 206.789 153.891 206.71C151.309 206.513 143.788 205.988 143.788 205.988C143.788 205.988 139.593 202.065 137.752 199.854C137.696 199.79 137.645 199.722 137.601 199.65C137.28 199.109 137.45 198.535 138.043 198.319C138.731 198.096 139.684 198.395 140.198 199.003M137.658 204.552C139.396 206.116 141.15 207.537 142.998 208.841C145.58 208.872 148.278 208.917 151.011 208.981C151.918 208.993 152.78 209.446 152.946 209.983C153.101 210.504 152.519 210.909 151.635 210.89C149.28 210.829 142.363 210.682 142.363 210.682C142.363 210.682 137.809 207.356 135.696 205.436C135.597 205.342 135.505 205.241 135.42 205.134C135.133 204.691 135.194 204.249 135.621 204.045C136.165 203.799 137.08 204.019 137.662 204.552" fill="#7D0521"/>
<path d="M316.619 85.8067L316.384 85.8256L305.084 98.3623L303.148 87.0351L274.904 89.6354L273.385 92.78C271.041 91.3626 268.176 90.6181 265.043 90.6181C264.42 90.6181 263.785 90.6559 263.161 90.705L245.378 92.3378C239.649 92.8669 233.182 95.8149 227.962 100.245C225.045 96.5557 220.014 94.6659 214.337 95.1913L196.551 96.8203L97.5195 105.918L108.537 93.7097L58.9153 98.2754L56.0353 104.217L27.6057 106.825L14.8951 132.956L20.7913 132.42L0.00390625 175.019L32.2205 172.071L38.7516 158.684L46.6205 181.913L76.8757 179.135L73.2133 168.306L84.4007 167.282L98.3963 138.603L97.0281 166.114L122.906 163.741L123.182 163.714L127.242 157.72L126.966 163.359L152.833 160.985L153.109 160.963L159.349 151.748C159.538 152.134 159.742 152.504 159.965 152.863C162.765 157.342 167.913 159.591 174.353 159.005L192.011 157.395C197.802 156.858 204.314 153.899 209.537 149.446C212.141 152.795 216.257 154.624 221.231 154.624C221.858 154.624 222.512 154.594 223.177 154.53L240.835 152.912C244.354 152.587 248.054 151.431 251.626 149.564L250.424 152.035L282.637 149.076L284.413 145.451L286.322 156.65L294.1 148.033L322.787 145.387L353.522 82.4165L316.619 85.8067Z" fill="#570514"/>
<path d="M53.2006 118.503L56.9499 118.156L49.1111 126.841L53.2006 118.503ZM64.2783 153.868L59.743 140.474L83.8677 113.734L64.2783 153.868ZM202.261 115.994L192.775 135.439L186.425 136.025L195.912 116.576L202.261 115.994ZM251.085 111.515L241.591 130.968L235.249 131.547L244.732 112.097L251.085 111.515ZM318.618 88.717L318.391 88.7434L302.415 106.447L299.686 90.4518L277.633 92.4814L274.515 98.9217C274.368 98.5932 274.198 98.2761 274.004 97.973C272.285 95.214 269.117 93.6946 265.096 93.6946C264.597 93.6946 264.064 93.7211 263.539 93.7702L245.756 95.4029C238.945 96.0228 231.273 100.562 226.492 106.632C226.412 105.151 225.961 103.713 225.18 102.452C223.461 99.6927 220.293 98.1809 216.261 98.1809C215.762 98.1809 215.24 98.2074 214.715 98.2489L196.928 99.8892C193.489 100.203 189.649 101.582 186.066 103.759L188.145 100.691L164.973 102.822L153.66 119.528L154.447 103.778L135.039 105.57L123.73 122.264L124.513 106.53L87.2692 109.962L98.2828 97.7576L61.6441 101.129L58.7527 107.063L30.3193 109.671L21.8759 127.045L27.7908 126.508L7.00342 169.104L29.4992 167.04L39.4468 146.65L49.508 176.372L71.2252 174.372L67.5552 163.544L81.6755 162.255L99.6548 125.424L103.185 125.091L101.431 160.43L120.831 158.65L132.132 141.963L131.361 157.674L150.758 155.898L166.783 132.234L163.805 138.346C161.737 142.587 161.628 146.57 163.502 149.567C165.226 152.323 168.389 153.846 172.399 153.846C172.91 153.846 173.435 153.816 173.968 153.77L191.63 152.149C198.535 151.518 206.264 146.956 211.019 140.848C211.105 142.409 211.548 143.834 212.33 145.089C214.269 148.188 218.03 149.726 222.796 149.291L240.45 147.67C248.954 146.888 258.633 140.088 262.484 132.185L273.577 109.455L275.391 109.289L257.42 146.113L279.916 144.057L286.341 130.912L288.983 146.377L303.481 130.314L297.57 142.435L320.065 140.368L346.518 86.1658L318.618 88.717Z" fill="#EB008A"/>
<path d="M91.4568 101.174L63.4543 103.752L57.8531 115.283L63.7717 114.746L40.3613 140.689L51.4391 173.401L67.4644 171.927L56.5868 139.82L91.4568 101.174ZM319.725 91.4078L300.642 112.562L297.384 93.4525L279.447 95.1004L273.872 106.639L280.055 106.053L262.08 142.9L278.105 141.426L287.637 121.95L290.759 140.262L314.627 113.817L302.23 139.215L318.255 137.741L341.858 89.3782L319.725 91.4078Z" fill="white"/>
<path d="M87.4469 112.732L63.8437 161.099L79.8651 159.628L103.472 111.258L87.4469 112.732ZM32.1334 112.301L26.5284 123.829L32.451 123.296L11.6636 165.884L27.6849 164.421L54.1039 110.283L32.1334 112.301ZM194.585 138.066L181.765 139.242L194.101 113.953L206.918 112.781L194.585 138.066ZM214.972 101.019L197.185 102.648C190.091 103.302 181.863 108.911 178.076 115.423L166.299 139.567C162.882 146.57 166.205 151.699 173.711 151.004L191.373 149.382C198.89 148.69 207.749 142.458 211.166 135.451L222.384 112.456C225.804 105.445 222.486 100.331 214.972 101.019ZM243.405 133.584L230.581 134.763L242.925 109.478L255.742 108.299L243.405 133.584ZM263.796 96.533L246.009 98.1695C238.919 98.8196 230.683 104.425 226.9 110.944L215.123 135.096C211.706 142.091 215.029 147.205 222.539 146.525L240.197 144.903C247.706 144.212 256.569 137.976 259.986 130.972L271.207 107.974C274.628 100.966 271.31 95.8489 263.796 96.533ZM166.533 105.464L150.395 129.302L151.514 106.844L136.603 108.212L120.465 132.045L121.58 109.595L105.517 111.08L99.908 122.612L106.122 122.033L104.368 157.368L119.267 156.004L135.394 132.185L134.298 154.628L149.201 153.252L182.555 103.994L166.533 105.464Z" fill="white"/>
<path d="M32.4509 123.296L43.2792 116.791L29.3327 118.065L26.5283 123.832L32.4509 123.296ZM63.7718 114.746L77.9867 107.955L60.6538 109.519L57.8531 115.283L63.7718 114.746Z" fill="#D1D1D1"/>
<path d="M91.4573 101.174L77.987 107.955L48.5747 140.557L59.4598 172.671L51.4396 173.401L67.4648 171.927L56.5873 139.82L91.4573 101.174ZM285.653 110.362L272.905 136.403L262.08 142.9L278.105 141.426L287.637 121.95L285.653 110.362ZM293.802 120.147L300.643 112.562L297.385 93.4525L290.139 98.7212L293.802 120.147ZM331.03 95.8827L313.058 132.718L302.234 139.219L318.252 137.745L341.858 89.3782L331.03 95.8827ZM323.278 96.083L295.574 126.765L290.759 140.262L314.627 113.817L323.278 96.083Z" fill="#D1D1D1"/>
<path d="M92.6135 117.838L74.6607 154.617L63.8475 161.099L79.8689 159.628L103.476 111.258L92.6135 117.838ZM43.2793 116.791L22.4919 159.371L11.6636 165.883L27.6849 164.421L54.1039 110.283L43.2793 116.791ZM141.785 142.012L150.395 129.301L151.514 106.843L143.218 113.129L141.785 142.012ZM135.976 120.223L115.223 150.875L104.368 157.368L119.267 156.004L135.394 132.185L135.976 120.223ZM170.559 110.612L145.153 148.135L134.294 154.624L149.201 153.252L182.555 103.994L170.559 110.612ZM106.122 122.033L113.295 115.873L102.716 116.836L99.908 122.612L106.122 122.033ZM280.055 106.053L290.139 98.7212L277.043 99.9269L273.842 106.639L280.055 106.053Z" fill="#D1D1D1"/>
<path d="M111.851 144.76L120.469 132.045L121.58 109.595L113.295 115.873L111.851 144.76ZM196.91 108.197L186.085 114.686L170.925 145.765L181.765 139.249L194.101 113.953L206.918 112.781L217.742 106.284L196.91 108.197Z" fill="#D1D1D1"/>
<path d="M222.482 103.442L217.742 106.284L202.571 137.375L191.811 143.853L170.925 145.765L166.22 148.6C167.649 150.387 170.226 151.325 173.711 151.004L191.373 149.382C191.739 149.352 192.117 149.291 192.491 149.231C199.744 148.067 207.912 142.114 211.162 135.451L222.384 112.456C224.213 108.707 224.111 105.509 222.482 103.442ZM245.737 103.718L234.913 110.207L219.753 141.286L230.582 134.763L242.925 109.478L255.742 108.299L266.57 101.798L245.737 103.718Z" fill="#D1D1D1"/>
<path d="M271.31 98.9631L266.57 101.805L251.395 132.896L240.639 139.374L219.753 141.286L215.051 144.121C216.476 145.909 219.058 146.838 222.539 146.525L240.197 144.903C240.567 144.873 240.941 144.809 241.315 144.752C248.564 143.592 256.736 137.635 259.986 130.972L271.207 107.974C273.041 104.228 272.935 101.023 271.31 98.9631Z" fill="#D1D1D1"/>
</g>
<defs>
<clipPath id="clip0_1484_72">
<rect width="353.516" height="259.932" fill="white"/>
</clipPath>
</defs>
</svg>
