<svg width="325" height="294" viewBox="0 0 325 294" fill="none" xmlns="http://www.w3.org/2000/svg">
<g clip-path="url(#clip0_1484_136)">
<path d="M293.231 170.125L324.734 117.679H272.89C277.269 102.504 283.438 88.204 291.733 75.7641C245.708 74.3032 196.668 63.2491 162.368 28.7886C128.067 63.2491 79.0275 74.3032 33.0014 75.7641C41.2965 88.204 47.4655 102.504 51.8464 117.679H0L31.5048 170.125L10.3281 211.473H58.8969C57.7472 221.914 56.0055 231.829 53.7686 240.87C53.7686 240.87 116.68 252.548 162.368 294C208.054 252.548 270.967 240.87 270.967 240.87C268.73 231.827 266.987 221.912 265.835 211.473H314.406L293.231 170.125Z" fill="#E2E3E4"/>
<path d="M280.852 170.124L301.551 130.104H251.688C254.481 114.682 258.878 100.336 265.247 88.7507C233.055 88.4074 183.825 74.3403 162.368 51.0161C140.91 74.3403 91.6817 88.4074 59.4885 88.7507C65.856 100.336 70.2529 114.682 73.046 130.104H23.1826L43.8836 170.124L25.8147 203.823H75.7121C74.7053 214.643 73.1282 224.638 71.1166 233.132C71.1166 233.132 116.268 243.33 162.368 283.705C208.467 243.33 253.619 233.132 253.619 233.132C251.605 224.638 250.028 214.643 249.023 203.823H298.919L280.852 170.124Z" fill="black"/>
<path d="M162.368 235.26C144.873 235.271 129.794 245.578 122.844 260.443L162.368 286.941L201.893 260.443C194.941 245.578 179.861 235.271 162.368 235.26Z" fill="#E2E3E4"/>
<path d="M95.1622 193.062L75.6003 170.609L92.396 152.054H80.2315L66.9154 166.516V139.258H51.019C54.0231 141.794 56.5747 145.155 56.5747 149.686V193.062H66.9154V175.705L82.2717 193.062H95.1622ZM229.142 152.054V193.062H218.803V162.484C218.803 157.955 216.25 154.595 213.244 152.054H229.142ZM272.561 184.419L277.509 193.062H236.843L257.743 160.696H238.227V152.054H276.622L253.958 184.419H272.561ZM114.717 181.232V160.696H121.979L126.93 152.054H114.717V139.258L104.38 145.175V152.056H96.7626V160.698H104.38V181.797C104.38 183.277 104.671 184.742 105.237 186.109C105.803 187.476 106.633 188.718 107.679 189.764C108.725 190.81 109.967 191.64 111.334 192.207C112.701 192.773 114.166 193.064 115.645 193.064H123.844V184.42H117.903C117.058 184.42 116.248 184.084 115.65 183.486C115.053 182.888 114.717 182.078 114.717 181.232ZM197.496 152.054L187.238 173.654L175.316 150.977L163.388 173.658L153.133 152.054H137.045C140.698 154.107 144.85 157.565 147.348 162.636C149.846 167.707 162.887 194.046 162.887 194.046L175.314 170.307L187.74 194.046L208.606 152.054H197.496Z" fill="white"/>
<path d="M234.527 106.394C222.54 100.402 217.397 94.6964 217.397 94.6964C202.937 8.91881 99.943 -12.0504 53.9402 5.94875C83.1884 13.4642 109.277 24.2626 126.988 43.6529C102.482 37.4535 68.7994 36.0642 49.0747 42.1616C73.7543 45.3767 110.876 62.1206 133.429 93.9544C150.91 118.63 160.617 129.159 179.924 139.884C192.203 135.161 202.713 123.515 206.15 115.02C216.201 115.464 228.523 111.211 234.527 106.394Z" fill="#E2E3E4"/>
<path d="M228.038 106.638C180.461 97.0143 177.436 46.9614 99.3311 46.9614C143.075 70.9901 143.556 112.585 180.54 133.803C180.54 133.803 184.731 129.406 188.756 119.775L195.655 121.41C196.928 112.875 195.356 104.296 195.356 104.296C200.134 106.216 214.398 111.035 228.038 106.638Z" fill="#ED1B23"/>
<path d="M140.524 47.3583C170.239 56.6154 193.054 72.2095 206.815 85.8099C195.627 29.8705 126.06 -4.94943 66.8467 5.65231C66.8467 5.65231 112.976 12.2254 140.524 47.3583Z" fill="black"/>
<path d="M172.082 105.451C171.147 98.2124 166.017 89.9746 158.712 83.9844C166.587 86.756 173.404 85.422 176.481 80.4976C177.416 87.7376 182.546 95.9737 189.851 101.964C181.978 99.1905 175.159 100.53 172.082 105.451Z" fill="white"/>
<path d="M208.672 204.979C206.48 204.979 204.689 205.817 203.539 207.269L202.976 205.354H197.491C198.636 206.32 199.605 207.598 199.605 209.326V220.961H203.539V211.58C203.989 210.125 205.811 208.367 207.635 208.367C209.717 208.367 210.738 210.25 210.738 212.496V220.961H214.67V212.047C214.67 207.103 211.53 204.979 208.672 204.979ZM140.647 213.773C140.647 216.353 139.555 218.012 137.257 218.012C134.959 218.012 133.865 216.353 133.865 213.773V205.324H127.814C128.957 206.295 129.929 207.573 129.929 209.299V214.447H129.953C129.953 219.872 134.594 221.335 137.257 221.335C139.916 221.335 144.561 219.874 144.561 214.447V205.324H140.647V213.773ZM170.491 205.354L166.589 213.694L162.051 204.821L157.513 213.697L153.609 205.354H147.487C148.878 206.137 150.457 207.452 151.408 209.383C152.358 211.31 157.321 221.574 157.321 221.574L162.049 212.178L166.779 221.574L174.72 205.354H170.491ZM185.861 204.902C181.044 204.902 177.223 208.321 177.223 213.156C177.223 217.989 181.044 221.41 185.861 221.41C190.68 221.41 194.498 217.989 194.498 213.156C194.498 208.321 190.68 204.902 185.861 204.902ZM185.861 218.239C183.383 218.239 181.373 216.108 181.373 213.156C181.373 210.211 183.383 208.072 185.861 208.072C188.34 208.072 190.35 210.209 190.35 213.156C190.35 216.106 188.34 218.239 185.861 218.239ZM116.726 218.243C114.303 218.243 112.18 216.546 112.045 215.351L110.062 219.437C111.383 220.584 113.82 221.343 116.856 221.343C121.581 221.343 124.386 219.282 124.386 216.444C124.343 214.121 122.982 212.673 119.093 211.641C116.354 210.929 114.773 210.651 114.773 209.653C114.773 208.544 116.143 207.961 117.899 207.961C119.376 207.961 120.776 208.312 122.042 209.152L123.578 206.406C122.648 205.635 119.81 204.966 117.942 204.966C113.373 204.966 110.573 207.239 110.573 210.01C110.53 211.849 111.846 213.411 116.043 214.479C118.696 215.155 120.172 215.477 120.172 216.541C120.173 217.699 118.752 218.243 116.726 218.243Z" fill="#E2E3E4"/>
<path d="M184.07 260.571C183.368 259.942 183.073 258.315 183.454 257.031L183.459 257.018L183.455 257.02L183.454 257.024C182.883 257.739 181.873 258.177 181.193 258.159C180.636 258.145 177.043 258.097 177.043 258.097C176.757 258.092 176.48 258.202 176.274 258.401C176.068 258.601 175.95 258.874 175.945 259.16C175.941 259.447 176.05 259.724 176.25 259.93C176.449 260.136 176.723 260.254 177.009 260.258C177.009 260.258 180.188 260.317 180.691 260.312C181.288 260.312 182.073 259.972 182.465 259.493L182.685 258.941C182.536 259.325 182.395 259.713 182.254 260.099C182.043 261.108 182.286 261.667 183.06 262.325C183.879 263.039 185.122 264.114 185.122 264.114C185.321 264.285 185.583 264.371 185.845 264.352C186.108 264.332 186.352 264.209 186.524 264.01C186.696 263.81 186.781 263.551 186.762 263.288C186.742 263.026 186.619 262.782 186.42 262.61C186.42 262.61 184.453 260.913 184.07 260.571ZM186.585 254.708C185.959 254.004 185.848 252.353 186.372 251.119L186.379 251.107L186.374 251.11L186.372 251.112C185.724 251.761 184.671 252.076 183.999 251.981C183.448 251.908 179.881 251.452 179.881 251.452C179.74 251.434 179.597 251.444 179.46 251.481C179.323 251.518 179.195 251.582 179.083 251.669C178.97 251.755 178.876 251.863 178.806 251.986C178.735 252.11 178.689 252.245 178.671 252.386C178.653 252.527 178.663 252.67 178.7 252.807C178.737 252.944 178.801 253.072 178.888 253.185C178.975 253.297 179.083 253.391 179.206 253.462C179.329 253.532 179.465 253.578 179.606 253.596C179.606 253.596 182.756 254.013 183.257 254.068C183.849 254.134 184.67 253.884 185.109 253.455L185.392 252.929C185.206 253.287 185.027 253.646 184.848 254.004C184.501 254.953 184.693 255.59 185.383 256.335L187.23 258.345C187.408 258.539 187.658 258.653 187.921 258.664C188.184 258.675 188.44 258.581 188.634 258.402C188.827 258.224 188.942 257.976 188.953 257.713C188.963 257.45 188.869 257.194 188.691 257C188.691 257.002 186.926 255.091 186.585 254.708ZM178.921 276.185C178.622 277.049 177.812 277.796 177.168 278.011C176.639 278.182 173.233 279.332 173.233 279.332C172.97 279.431 172.756 279.628 172.636 279.881C172.516 280.134 172.499 280.424 172.588 280.69C172.678 280.956 172.867 281.176 173.116 281.305C173.365 281.434 173.654 281.462 173.923 281.381C173.923 281.381 176.941 280.376 177.413 280.21C177.975 280.008 178.749 279.389 178.81 278.846L178.922 276.194V276.183L178.921 276.185ZM191.577 251.683C191.577 251.683 190.041 249.587 189.744 249.169C189.201 248.396 189.279 246.746 189.939 245.578L189.946 245.564L189.943 245.567L189.941 245.571C189.226 246.141 188.142 246.336 187.482 246.168C186.942 246.03 183.452 245.176 183.452 245.176C183.174 245.107 182.88 245.152 182.635 245.3C182.39 245.448 182.214 245.687 182.146 245.965C182.077 246.243 182.122 246.537 182.27 246.782C182.418 247.027 182.657 247.203 182.935 247.271C182.935 247.271 186.021 248.044 186.509 248.153C187.092 248.285 187.935 248.128 188.421 247.752L188.759 247.268C188.537 247.599 188.321 247.928 188.106 248.258C187.674 249.117 187.768 249.828 188.367 250.647L189.975 252.852C190.05 252.962 190.146 253.057 190.258 253.129C190.37 253.202 190.495 253.251 190.626 253.274C190.758 253.296 190.892 253.293 191.022 253.262C191.152 253.232 191.274 253.176 191.382 253.097C191.49 253.019 191.58 252.919 191.649 252.805C191.717 252.691 191.762 252.564 191.78 252.431C191.798 252.299 191.79 252.165 191.755 252.036C191.72 251.908 191.659 251.787 191.577 251.683ZM183.852 274.42C183.852 274.42 181.549 273.206 181.102 272.959C180.276 272.505 179.622 270.985 179.706 269.648L179.707 269.633L179.706 269.635V269.637L179.704 269.641C179.311 270.467 178.42 271.118 177.757 271.254C177.211 271.364 173.699 272.123 173.699 272.123C173.555 272.147 173.417 272.2 173.294 272.279C173.171 272.357 173.066 272.46 172.983 272.581C172.901 272.702 172.844 272.838 172.816 272.982C172.788 273.125 172.79 273.273 172.82 273.416C172.851 273.559 172.91 273.694 172.994 273.813C173.079 273.933 173.186 274.034 173.311 274.111C173.435 274.187 173.574 274.238 173.718 274.259C173.863 274.281 174.01 274.273 174.152 274.236V274.238C174.152 274.238 177.263 273.58 177.751 273.465C178.332 273.33 179.023 272.82 179.293 272.269L179.386 271.674C179.328 272.074 179.28 272.475 179.23 272.874C179.264 273.868 179.613 274.42 180.51 274.896L182.923 276.173C183.038 276.239 183.166 276.281 183.298 276.297C183.43 276.313 183.564 276.302 183.691 276.265C183.819 276.228 183.938 276.166 184.042 276.082C184.145 275.998 184.23 275.894 184.293 275.777C184.355 275.659 184.393 275.53 184.405 275.398C184.416 275.265 184.401 275.132 184.36 275.005C184.319 274.879 184.253 274.762 184.166 274.661C184.078 274.561 183.972 274.479 183.852 274.42ZM182.236 266.683C181.465 266.136 180.991 264.553 181.224 263.232L181.227 263.216L181.224 263.221L181.222 263.225C180.736 264.004 179.779 264.546 179.103 264.607C178.549 264.657 174.973 265.017 174.973 265.017C174.697 265.056 174.447 265.2 174.275 265.419C174.104 265.638 174.023 265.915 174.05 266.192C174.078 266.469 174.211 266.725 174.423 266.906C174.634 267.087 174.907 267.18 175.185 267.164C175.185 267.164 178.35 266.864 178.849 266.806C179.441 266.737 180.185 266.309 180.518 265.793L180.675 265.217C180.573 265.612 180.478 266.009 180.382 266.404C180.273 267.346 180.591 267.969 181.429 268.539L183.682 270.081C183.9 270.229 184.167 270.285 184.426 270.237C184.554 270.213 184.676 270.164 184.785 270.093C184.894 270.022 184.988 269.93 185.062 269.822C185.136 269.715 185.187 269.594 185.214 269.466C185.241 269.339 185.243 269.207 185.219 269.079C185.195 268.951 185.146 268.829 185.074 268.719C185.003 268.61 184.911 268.516 184.804 268.443C184.804 268.443 182.653 266.978 182.236 266.683ZM140.662 260.571C141.365 259.942 141.66 258.315 141.279 257.031L141.274 257.018L141.277 257.02L141.279 257.024C141.85 257.739 142.86 258.177 143.539 258.159C144.097 258.145 147.69 258.097 147.69 258.097C147.976 258.092 148.253 258.202 148.459 258.401C148.665 258.601 148.783 258.874 148.787 259.16C148.792 259.447 148.682 259.724 148.483 259.93C148.283 260.136 148.01 260.254 147.723 260.258C147.723 260.258 144.544 260.317 144.042 260.312C143.445 260.312 142.66 259.972 142.268 259.493L142.048 258.941C142.195 259.325 142.338 259.713 142.477 260.099C142.692 261.108 142.447 261.667 141.673 262.325C140.854 263.039 139.611 264.114 139.611 264.114H139.609C139.41 264.285 139.15 264.371 138.887 264.352C138.625 264.332 138.381 264.209 138.209 264.01C138.037 263.81 137.951 263.551 137.971 263.288C137.99 263.026 138.113 262.782 138.313 262.61C138.313 262.61 140.28 260.913 140.662 260.571ZM138.148 254.708C138.776 254.004 138.885 252.353 138.361 251.119L138.354 251.107L138.359 251.11V251.112C139.008 251.761 140.061 252.076 140.736 251.981C141.286 251.908 144.852 251.452 144.852 251.452C144.996 251.427 145.143 251.432 145.285 251.465C145.427 251.499 145.561 251.561 145.679 251.648C145.796 251.734 145.895 251.844 145.969 251.97C146.043 252.096 146.091 252.235 146.109 252.38C146.128 252.525 146.117 252.672 146.077 252.813C146.037 252.953 145.97 253.084 145.878 253.198C145.786 253.311 145.672 253.405 145.543 253.474C145.414 253.542 145.273 253.584 145.127 253.596C145.127 253.596 141.976 254.013 141.474 254.068C140.884 254.134 140.063 253.884 139.623 253.455L139.341 252.929C139.527 253.287 139.706 253.646 139.886 254.004C140.231 254.953 140.038 255.59 139.35 256.335L137.503 258.345C137.414 258.441 137.308 258.519 137.19 258.573C137.071 258.628 136.944 258.659 136.813 258.665C136.683 258.67 136.553 258.65 136.431 258.605C136.308 258.56 136.196 258.492 136.1 258.403C136.004 258.315 135.926 258.209 135.871 258.09C135.817 257.972 135.786 257.844 135.78 257.714C135.775 257.584 135.795 257.454 135.84 257.331C135.885 257.209 135.953 257.096 136.042 257C136.042 257.002 137.808 255.091 138.148 254.708ZM145.812 276.185C146.111 277.049 146.921 277.796 147.564 278.011C148.094 278.182 151.5 279.332 151.5 279.332C151.762 279.431 151.976 279.628 152.096 279.881C152.217 280.134 152.234 280.424 152.144 280.69C152.055 280.956 151.866 281.176 151.617 281.305C151.368 281.434 151.078 281.462 150.81 281.381C150.81 281.381 147.791 280.376 147.319 280.21C146.758 280.008 145.984 279.389 145.923 278.846L145.81 276.194V276.183L145.812 276.185ZM133.156 251.683C133.156 251.683 134.692 249.587 134.987 249.169C135.53 248.396 135.453 246.746 134.794 245.578L134.786 245.564L134.788 245.567L134.792 245.571C135.507 246.141 136.589 246.336 137.251 246.168C138.593 245.835 139.936 245.504 141.279 245.176C141.417 245.142 141.56 245.135 141.7 245.156C141.84 245.177 141.975 245.226 142.096 245.299C142.217 245.372 142.323 245.469 142.407 245.583C142.491 245.697 142.552 245.827 142.586 245.964C142.62 246.102 142.627 246.245 142.606 246.385C142.584 246.525 142.536 246.66 142.463 246.781C142.389 246.902 142.293 247.008 142.179 247.092C142.065 247.176 141.935 247.237 141.798 247.271C141.798 247.271 138.711 248.044 138.221 248.153C137.639 248.285 136.798 248.128 136.312 247.752L135.974 247.268C136.196 247.599 136.408 247.928 136.626 248.258C137.057 249.117 136.963 249.828 136.365 250.647L134.756 252.852C134.679 252.957 134.583 253.046 134.471 253.114C134.36 253.181 134.237 253.227 134.108 253.247C133.98 253.267 133.848 253.261 133.722 253.23C133.595 253.2 133.476 253.144 133.371 253.067C133.266 252.991 133.177 252.894 133.109 252.783C133.042 252.672 132.997 252.548 132.977 252.42C132.957 252.291 132.962 252.16 132.993 252.033C133.024 251.907 133.079 251.788 133.156 251.683ZM140.88 274.42C140.88 274.42 143.183 273.206 143.63 272.959C144.458 272.505 145.111 270.985 145.027 269.648L145.025 269.633L145.027 269.635V269.637L145.031 269.641C145.422 270.467 146.313 271.118 146.978 271.254C147.521 271.364 151.033 272.123 151.033 272.123C151.177 272.147 151.315 272.2 151.438 272.279C151.561 272.357 151.667 272.46 151.749 272.581C151.832 272.702 151.888 272.838 151.916 272.982C151.944 273.125 151.943 273.273 151.913 273.416C151.882 273.559 151.823 273.694 151.738 273.813C151.654 273.933 151.546 274.034 151.422 274.111C151.298 274.187 151.159 274.238 151.014 274.259C150.87 274.281 150.722 274.273 150.581 274.236V274.238C150.581 274.238 147.47 273.58 146.981 273.465C146.4 273.33 145.71 272.82 145.442 272.269L145.347 271.674C145.403 272.074 145.453 272.475 145.501 272.874C145.469 273.868 145.122 274.42 144.222 274.896C143.264 275.406 141.81 276.173 141.81 276.173C141.695 276.239 141.567 276.281 141.435 276.297C141.303 276.313 141.169 276.302 141.041 276.265C140.913 276.228 140.794 276.166 140.691 276.082C140.588 275.998 140.503 275.894 140.44 275.777C140.378 275.659 140.34 275.53 140.328 275.398C140.317 275.265 140.332 275.132 140.373 275.005C140.414 274.879 140.48 274.762 140.567 274.661C140.654 274.561 140.761 274.479 140.88 274.42ZM142.499 266.683C143.268 266.136 143.743 264.553 143.511 263.232L143.507 263.216L143.511 263.221L143.512 263.225C143.997 264.004 144.954 264.546 145.631 264.607C146.186 264.657 149.762 265.017 149.762 265.017C150.038 265.056 150.287 265.2 150.459 265.419C150.631 265.638 150.711 265.915 150.684 266.192C150.657 266.469 150.523 266.725 150.312 266.906C150.1 267.087 149.827 267.18 149.549 267.164C149.549 267.164 146.382 266.864 145.885 266.806C145.293 266.737 144.55 266.309 144.217 265.793L144.058 265.217C144.16 265.612 144.255 266.009 144.351 266.404C144.46 267.346 144.142 267.969 143.305 268.539L141.05 270.081C140.943 270.154 140.822 270.206 140.694 270.232C140.567 270.259 140.435 270.26 140.307 270.236C140.179 270.212 140.057 270.163 139.948 270.092C139.839 270.021 139.745 269.929 139.672 269.821C139.598 269.714 139.547 269.593 139.52 269.465C139.493 269.338 139.492 269.206 139.516 269.078C139.54 268.95 139.589 268.828 139.66 268.719C139.731 268.61 139.823 268.516 139.931 268.443C139.931 268.443 142.08 266.978 142.499 266.683Z" fill="#ED1B23"/>
</g>
<defs>
<clipPath id="clip0_1484_136">
<rect width="324.734" height="294" fill="white"/>
</clipPath>
</defs>
</svg>
