<svg width="399" height="319" viewBox="0 0 399 319" fill="none" xmlns="http://www.w3.org/2000/svg">
<g clip-path="url(#clip0_1484_147)">
<path d="M322.185 173.786V170.265L333.577 155.076L361 173.786H322.185ZM398.896 108.146H360.418L374.229 89.7414L366.19 79.5439C346.696 54.6903 321.792 34.6085 293.371 20.8252C264.95 7.04184 233.76 -0.0801824 202.173 0.000558076C170.586 -0.0801824 139.397 7.04184 110.976 20.8252C82.555 34.6085 57.6507 54.6903 38.1563 79.5439L30.1177 89.7414L43.944 108.161H0V137.865H25.0037V203.659H59.0106V139.412L108.543 205.42H86.5407L121.619 247.251H148.323L202.173 319.001L256.009 247.251H282.727L319.322 203.659H398.896V161.629L363.541 137.498H398.896V108.146Z" fill="white"/>
<path d="M202.644 197.775H225.366V114.036H202.644V197.775Z" fill="#C00C3F"/>
<path d="M294.246 159.186L260.392 114.033H235.051L241.926 123.204V197.787H263.975V152.618L297.828 197.787H316.294V114.033H294.246V159.186Z" fill="#C00C3F"/>
<path d="M165.827 114.037V165.254L157.191 176.753L148.556 165.254V114.037H126.936V165.254L118.315 176.753L109.68 165.254V114.037H88.0444V168.301L110.17 197.775H126.446L137.746 182.709L149.061 197.775H165.322L187.462 168.301V114.037H165.827Z" fill="#C00C3F"/>
<path d="M202.172 272.591V309.186L265.761 224.467H238.292L202.172 272.591Z" fill="#231F20"/>
<path d="M202.172 309.19V272.595L166.052 224.456H138.583L202.172 309.19Z" fill="#C00C3F"/>
<path d="M198.259 87.218H179.518V55.6915H170.469V94.8584H198.259V87.218Z" fill="#6D6E71"/>
<path d="M218.63 95.4365C224.724 95.4365 230.649 93.8901 233.88 91.624V72.607H218.186V79.926H225.55V86.7855C223.438 87.4673 221.232 87.8134 219.012 87.8114C210.882 87.8114 208.156 83.6773 208.156 75.2713C208.156 67.248 210.729 62.5321 218.89 62.5321C223.407 62.5321 225.994 63.956 228.123 66.6662L233.757 61.4909C230.343 56.5912 224.325 55.0907 218.691 55.0907C206.028 55.0907 199.368 62.0115 199.368 75.1947C199.368 88.332 205.37 95.4365 218.63 95.4365Z" fill="#6D6E71"/>
<path d="M99.1606 211.304L124.363 241.36H279.99L305.192 211.304H99.1606Z" fill="#6D6E71"/>
<path d="M155.546 230.612C156.745 231.282 158.093 231.64 159.466 231.654C161.471 231.654 162.222 230.903 162.222 229.939C162.222 229.035 161.487 228.576 161.135 228.392C160.002 227.81 158.669 227.412 157.445 226.907C155.638 225.988 154.719 225.131 154.719 222.865C154.719 220.185 156.633 218.578 160.17 218.578C161.812 218.534 163.438 218.919 164.886 219.695L163.906 221.931C162.77 221.277 161.48 220.939 160.17 220.951C158.333 220.951 157.598 221.625 157.598 222.62C157.598 223.11 157.751 223.493 158.042 223.753C158.316 223.993 158.626 224.189 158.96 224.335C159.91 224.779 161.318 225.269 162.482 225.82C163.891 226.524 165.054 227.397 165.054 229.77C165.054 232.435 162.972 234.104 159.512 234.104C157.759 234.097 156.033 233.678 154.474 232.879L155.546 230.612Z" fill="white"/>
<path d="M175.942 218.798H185.129V221.186H178.82V224.938H184.914V227.265H178.82V231.491H185.374V233.849H175.942V218.798Z" fill="white"/>
<path d="M199.103 226.505C199.103 229.384 199.853 231.757 202.38 231.757C205.35 231.757 206.238 229.751 206.238 226.107C206.238 223.259 205.519 220.855 202.962 220.855C200.083 220.855 199.103 222.907 199.103 226.505ZM209.224 226.398C209.224 231.527 207.004 234.1 202.441 234.1C197.74 234.1 196.179 231.053 196.179 226.245C196.179 221.1 198.353 218.574 202.931 218.574C207.57 218.574 209.224 221.559 209.224 226.398Z" fill="white"/>
<path d="M220.213 218.798H223.077V228.077C223.077 230.389 223.796 231.782 225.68 231.782C227.9 231.782 228.696 230.68 228.696 227.679V218.798H231.559V227.878C231.559 232.226 229.446 234.109 225.71 234.109C222.005 234.109 220.213 232.257 220.213 227.709V218.798Z" fill="white"/>
<path d="M243.12 218.798H245.998V231.491H251.832V233.849H243.12V218.798Z" fill="white"/>
<path d="M202.172 27.8442V5.87213C171.474 5.79698 141.163 12.7219 113.543 26.1206C85.9233 39.5192 61.722 59.0388 42.779 83.1953L37.5425 89.8252L45.5504 100.497H73.0193L65.3788 90.3305C82.3246 70.6659 103.324 54.8998 126.936 44.114C150.548 33.3282 176.213 27.778 202.172 27.8442Z" fill="#C00C3F"/>
<path d="M366.815 89.8315L361.579 83.2016C342.631 59.0465 318.427 39.5282 290.805 26.1298C263.183 12.7314 232.87 5.80555 202.17 5.87849V27.8505C255.102 27.8505 304.497 50.5116 338.964 90.3215L331.338 100.504H358.807L366.815 89.8315Z" fill="#231F20"/>
<path d="M5.87842 131.98H30.8974V197.789H53.1298V131.98H78.1335V114.035H5.87842V131.98Z" fill="#C00C3F"/>
<path d="M393.016 131.609V114.031H330.836V146.093L370.799 173.348V179.672H329.397V197.785H393.016V164.728L352.793 137.289V131.609H393.016Z" fill="#C00C3F"/>
</g>
<defs>
<clipPath id="clip0_1484_147">
<rect width="398.895" height="319" fill="white"/>
</clipPath>
</defs>
</svg>
