<svg width="371" height="278" viewBox="0 0 371 278" fill="none" xmlns="http://www.w3.org/2000/svg">
<g clip-path="url(#clip0_1484_184)">
<path d="M178.419 0C109.615 0 52.9619 51.5215 44.6382 118.074C43.3265 123.77 42.5026 129.39 41.9333 134.953H35.3784C35.3784 213.954 99.41 277.999 178.419 277.999C257.427 277.999 321.478 213.954 321.478 134.953H313.383C313.383 140.804 312.882 146.531 312.159 152.187C310.808 146.399 308.591 140.633 305.288 134.953H313.383C313.383 60.4125 252.952 0 178.419 0Z" fill="#042445"/>
<path d="M178.426 269.903C252.96 269.903 313.382 209.487 313.382 134.96H305.295C305.295 205.012 248.485 261.803 178.426 261.803C108.367 261.803 51.5574 205.012 51.5574 134.96H43.4709C43.4709 209.487 103.893 269.903 178.426 269.903Z" fill="#D01031"/>
<path d="M178.426 8.10254C144.778 8.10254 112.509 21.4678 88.7164 45.2581C64.9239 69.0485 51.5574 101.315 51.5574 134.96H59.6579C59.6579 103.463 72.1709 73.257 94.4442 50.9856C116.717 28.7142 146.926 16.2022 178.426 16.202C194.023 16.2019 209.467 19.2736 223.877 25.2417C238.286 31.2098 251.379 39.9574 262.408 50.9851C273.437 62.0127 282.185 75.1045 288.154 89.5129C294.123 103.921 297.195 119.364 297.195 134.96H305.295C305.295 118.301 302.014 101.805 295.638 86.4135C289.262 71.0224 279.917 57.0378 268.136 45.258C256.355 33.4782 242.369 24.134 226.977 17.7589C211.584 11.3837 195.087 8.10249 178.426 8.10254Z" fill="#62B1E3"/>
<path d="M259.402 134.96C259.402 156.434 250.871 177.029 235.685 192.213C220.499 207.398 199.903 215.929 178.426 215.929C156.95 215.929 136.354 207.398 121.168 192.213C105.982 177.029 97.4504 156.434 97.4504 134.96C97.4504 113.486 105.982 92.891 121.168 77.7064C136.354 62.5219 156.95 53.9913 178.426 53.9913C199.902 53.9913 220.499 62.5219 235.685 77.7064C250.871 92.891 259.402 113.486 259.402 134.96ZM94.593 68.6132L106.75 79.233L114.433 70.4326L112.155 68.4382L106.845 74.5029L96.9788 65.8775L94.593 68.6132ZM120.457 65.3923C116.225 68.9234 112.869 67.5352 109.689 63.7214C106.521 59.9209 105.739 56.3225 109.958 52.8052C114.271 49.2068 117.614 50.7164 120.754 54.4761C123.962 58.3306 124.757 61.8076 120.458 65.3923M111.939 55.1904C109.284 57.4006 110.686 59.247 112.492 61.4035C114.446 63.7617 115.956 65.1499 118.476 63.0474C120.767 61.1204 120.457 59.7592 117.991 56.7944C115.767 54.126 114.352 53.169 111.939 55.1904Z" fill="white"/>
<path d="M127.695 44.4899L134.299 55.7566L131.078 57.6566L124.474 46.3763L120.35 48.7893L118.8 46.1339L130.283 39.4093L131.833 42.064L127.695 44.4899ZM142.926 37.4819L147.616 49.6786L144.139 51.0261L139.435 38.8297L134.987 40.541L133.868 37.6706L146.295 32.8865L147.4 35.7569L142.926 37.4819ZM154.49 47.3603L151.201 31.5523L162.778 29.1534L163.399 32.1722L155.406 33.8298L156.107 37.1988L163.021 35.7702L163.641 38.7354L156.727 40.1772L157.442 43.6409L165.434 41.9829L166.054 44.9614L154.49 47.3603ZM189.317 39.7191C189.182 42.8726 186.217 44.7057 182.524 44.544C180.246 44.4496 178.103 43.6272 177.133 42.3874C176.001 40.9319 175.488 38.5063 175.636 36.067C175.718 34.0589 176.122 31.862 177.052 30.6493C178.656 28.5334 180.367 28.0483 183.09 28.1696C186.365 28.3044 189.263 30.1774 189.492 33.9645L185.813 33.8028C185.732 32.3472 184.802 31.3635 182.982 31.2825C181.661 31.2288 180.664 31.5523 180.273 32.2799C179.617 33.4885 179.27 34.8402 179.262 36.2151C179.182 37.9671 179.505 39.6384 180.165 40.4874C180.583 41.0129 181.553 41.3904 182.632 41.4037C184.397 41.4578 185.475 40.7435 185.53 39.517L185.583 38.3309L182.335 38.1962L182.456 35.4334L189.478 35.7165L189.317 39.7191ZM192.363 45.3792L195.975 46.0262L198.779 30.1234L195.166 29.4768L192.363 45.3792ZM210.06 49.921L209.817 46.3766L204.264 44.5976L202.094 47.374L198.415 46.1879L209.48 32.7788L212.485 33.7491L213.698 51.0805L210.06 49.921ZM209.332 38.3982L206.245 42.1176L209.682 43.2094L209.332 38.3982ZM224.899 57.0638L223.349 45.0691L218.672 53.6945L215.451 51.9424L223.133 37.7513L225.627 39.0992L227.19 51.1205L231.867 42.4818L235.115 44.2338L227.419 58.425L224.899 57.0638ZM244.361 54.9209L236.234 65.1499L233.309 62.8316L241.436 52.6031L237.689 49.6246L239.603 47.2123L250.035 55.5005L248.122 57.8994L244.361 54.9209ZM244.846 73.7748C243.35 72.0635 242.717 70.0284 242.865 67.2657L246.154 67.1983C245.952 69.3004 246.261 70.4596 247.313 71.6457C248.499 73.0335 249.658 73.357 250.548 72.6024C251.06 72.1712 251.275 71.1738 250.466 69.9881L249.456 68.3841C248.148 66.3627 247.73 63.5999 249.873 61.7402C252.178 59.7591 255.265 60.1903 257.691 62.98C259.066 64.6214 259.782 66.7159 259.699 68.856L256.505 68.9637C256.612 66.6728 255.885 65.7291 255.265 65.0148C254.268 63.8564 253.27 63.708 252.313 64.5163C251.653 65.0958 251.747 65.8375 252.394 66.8886C252.583 67.2116 253.176 68.0877 253.337 68.3171C255.022 70.783 255.103 73.6808 253.041 75.4462C250.723 77.4676 247.38 76.713 244.846 73.7748ZM344.516 132.143L370.125 106.537H280.428L285.132 89.0307H257.286L252.596 106.537H77.6382L95.1592 89.017H35.883C31.3467 89.0242 26.9389 90.5248 23.3407 93.2871C19.7426 96.0495 17.1543 99.9197 15.9759 104.3L0.584223 161.751C-0.0910938 164.224 -0.182086 166.821 0.318435 169.335C0.818956 171.849 1.89728 174.213 3.46823 176.239C6.64908 180.404 11.4877 182.775 16.7172 182.775H324.555C329.091 182.774 333.5 181.277 337.098 178.516C340.697 175.756 343.286 171.886 344.463 167.506L353.655 133.208H343.451L344.516 132.143Z" fill="white"/>
<path d="M81.8569 178.732L100.119 110.58H102.68L84.4174 178.732H81.8569ZM136.995 171.212H122.978C121.955 171.223 120.943 170.995 120.023 170.547C119.102 170.099 118.299 169.443 117.675 168.632C117.052 167.82 116.625 166.875 116.43 165.87C116.235 164.866 116.275 163.829 116.549 162.843L126.684 125.027C127.218 123.04 128.392 121.285 130.025 120.033C131.657 118.78 133.657 118.101 135.715 118.1H167.469L151.214 178.732H148.653L164.234 120.567H135.715C134.201 120.569 132.731 121.071 131.532 121.995C130.333 122.918 129.473 124.211 129.084 125.674L118.948 163.49C118.777 164.108 118.752 164.757 118.874 165.387C118.997 166.016 119.264 166.608 119.655 167.117C120.046 167.625 120.55 168.036 121.126 168.316C121.703 168.597 122.337 168.739 122.978 168.733H139.462L136.995 171.212ZM181.648 178.732L195.867 125.674C196.259 124.212 197.123 122.92 198.324 121.999C199.526 121.078 200.998 120.579 202.512 120.58H231.031L215.437 178.732H218.012L234.253 118.1H202.512C200.453 118.103 198.452 118.782 196.818 120.034C195.183 121.286 194.006 123.04 193.468 125.027L179.087 178.732H181.648ZM276.681 171.212H256.572C255.552 171.218 254.545 170.986 253.63 170.535C252.715 170.083 251.918 169.425 251.302 168.612C250.674 167.806 250.243 166.865 250.042 165.864C249.84 164.863 249.875 163.829 250.143 162.843L268.85 93.0737H271.412L264.7 118.1H293.839L291.359 120.58H264.039L252.542 163.49C252.371 164.108 252.345 164.757 252.468 165.387C252.591 166.016 252.858 166.608 253.249 167.117C253.64 167.625 254.144 168.036 254.72 168.316C255.297 168.597 255.931 168.739 256.572 168.733H277.342L276.681 171.212ZM288.286 168.733H323.666C325.178 168.731 326.646 168.231 327.845 167.31C329.044 166.389 329.906 165.099 330.297 163.639L335.055 145.889H302.856L308.436 125.027C308.971 123.038 310.147 121.28 311.782 120.026C313.417 118.771 315.419 118.09 317.479 118.087H352.832L350.352 120.566H317.479C315.966 120.57 314.497 121.07 313.296 121.991C312.095 122.911 311.231 124.201 310.835 125.661L306.077 143.41H338.29L332.696 164.272C332.163 166.26 330.989 168.017 329.357 169.272C327.725 170.527 325.725 171.209 323.666 171.212H287.625L288.286 168.733ZM36.7861 100.594C34.7285 100.595 32.7286 101.274 31.096 102.526C29.4635 103.778 28.2895 105.534 27.7558 107.521L12.9301 162.844C12.6623 163.828 12.6265 164.861 12.8252 165.862C13.024 166.863 13.452 167.804 14.0756 168.612C14.6929 169.424 15.4901 170.081 16.4045 170.532C17.319 170.984 18.3257 171.217 19.3454 171.213H56.0055L65.8986 134.3H44.1723L41.6921 136.766H62.6774L54.1053 168.747H19.3454C18.7063 168.749 18.0753 168.603 17.5022 168.32C16.9291 168.037 16.4296 167.625 16.0432 167.116C15.6481 166.61 15.3765 166.019 15.2502 165.389C15.1239 164.76 15.1462 164.11 15.3155 163.491L30.1412 108.168C30.5331 106.706 31.3969 105.414 32.5984 104.493C33.7999 103.572 35.272 103.073 36.7861 103.074H75.4004L77.8669 100.594L36.7861 100.594Z" fill="white"/>
<path d="M160.554 81.5242C154.84 81.5242 151.901 85.0282 151.901 88.9904C151.901 92.9393 154.988 96.4573 160.555 96.4573C166.013 96.4573 169.22 92.9393 169.22 88.9904C169.22 85.0282 166.283 81.5242 160.554 81.5242ZM171.444 82.1041V83.7477H176.835V95.85H181.054V83.748H186.459V82.1041H171.444ZM188.346 82.1041V83.7477H193.737V95.85H197.956V83.748H203.348V82.1041H188.346ZM137.925 82.1178V94.0443C137.925 95.2841 138.571 95.8637 139.704 95.8637H150.015V94.2064H142.938C142.237 94.2064 142.103 93.8153 142.103 93.2631V82.1178H137.925ZM207.835 82.1178C206.838 82.1178 205.881 82.3191 205.881 84.1118V93.8697C205.881 95.689 206.784 95.8774 207.97 95.8774H218.914V94.2201H211.029C210.086 94.2201 210.06 93.8019 210.06 93.2494V89.3679H218.78V87.7376L210.06 87.7369V84.7451C210.06 83.8691 210.383 83.7614 211.138 83.7614H218.914V82.1178H207.835ZM160.554 83.0612C163.155 83.0612 165.137 85.7558 165.137 88.9904C165.137 92.2383 163.156 94.88 160.555 94.88C157.953 94.88 155.972 92.2383 155.972 88.9904C155.972 85.7558 157.953 83.0612 160.554 83.0612ZM35.8964 93.0736C32.2484 93.0734 28.7022 94.2763 25.8074 96.496C22.9126 98.7157 20.8309 101.828 19.8848 105.351L4.49278 162.789C3.99044 164.666 3.92651 166.633 4.30594 168.539C4.68536 170.444 5.49798 172.237 6.68094 173.778C7.86391 175.319 9.38553 176.567 11.1281 177.427C12.8707 178.286 14.7876 178.733 16.7306 178.733H62.4347L76.0071 128.087H50.3586L44.172 134.286H65.8979L56.0049 171.213H19.3455C18.3232 171.221 17.313 170.991 16.3945 170.543C15.4759 170.094 14.6741 169.438 14.0521 168.627C13.4302 167.816 13.0051 166.871 12.8103 165.867C12.6155 164.864 12.6564 163.829 12.9298 162.844L27.7555 107.521C28.2893 105.534 29.4635 103.778 31.0962 102.526C32.7289 101.274 34.7289 100.595 36.7865 100.595H77.8666L85.3868 93.0743L35.8964 93.0736ZM260.4 93.0743L241.706 162.803C241.206 164.679 241.144 166.645 241.525 168.548C241.905 170.452 242.718 172.242 243.901 173.782C245.084 175.321 246.605 176.568 248.346 177.427C250.087 178.285 252.003 178.732 253.944 178.732H274.66L276.668 171.212H256.559C255.539 171.216 254.533 170.983 253.618 170.532C252.703 170.081 251.906 169.424 251.289 168.612C250.665 167.804 250.237 166.863 250.038 165.863C249.84 164.862 249.876 163.828 250.143 162.844L268.837 93.0743H260.4ZM271.397 93.0743L264.685 118.1H293.811L301.332 110.581H275.144L279.835 93.0743H271.397ZM36.7854 103.06C35.2714 103.059 33.7995 103.558 32.5979 104.479C31.3964 105.4 30.5326 106.692 30.1406 108.154L30.1413 108.155L15.3156 163.477C15.1463 164.096 15.1239 164.746 15.2502 165.376C15.3765 166.005 15.6479 166.596 16.0429 167.102C16.4293 167.611 16.9288 168.024 17.5019 168.306C18.075 168.589 18.706 168.735 19.3451 168.733H54.105L62.6771 136.752H41.6922L35.4918 142.951H52.5686L47.676 161.213H24.3725L37.945 110.581H67.8792L75.4001 103.06H36.7854ZM91.6815 110.567L73.4189 178.719H81.8695L100.132 110.567H91.6815ZM102.693 110.567L84.4301 178.719H92.8678L111.13 110.567H102.693ZM134.825 110.581C131.179 110.583 127.636 111.788 124.744 114.007C121.852 116.227 119.772 119.337 118.826 122.858L108.125 162.789C107.623 164.665 107.559 166.631 107.938 168.535C108.317 170.44 109.128 172.231 110.309 173.772C111.491 175.313 113.011 176.562 114.752 177.422C116.492 178.282 118.408 178.731 120.35 178.733H129.474L136.995 171.213H122.977C121.954 171.223 120.942 170.995 120.022 170.547C119.102 170.099 118.298 169.444 117.675 168.632C117.051 167.821 116.625 166.875 116.429 165.871C116.234 164.866 116.275 163.83 116.548 162.844L126.683 125.027C127.217 123.04 128.391 121.285 130.024 120.032C131.656 118.78 133.657 118.101 135.714 118.1H167.468L151.214 178.732H159.665L177.927 110.581H134.825ZM201.609 110.581C197.963 110.583 194.42 111.788 191.527 114.007C188.635 116.227 186.555 119.337 185.61 122.858L170.636 178.732H179.073L193.468 125.028V125.027C194.002 123.04 195.176 121.285 196.808 120.032C198.44 118.78 200.44 118.101 202.498 118.1H234.252L217.997 178.732H226.448L244.711 110.58L201.609 110.581ZM316.589 110.581C312.944 110.583 309.4 111.788 306.508 114.007C303.616 116.227 301.536 119.338 300.591 122.858L292.761 152.062H324.973L322.52 161.226H290.308L288.3 168.746H323.666C325.182 168.747 326.655 168.246 327.857 167.322C329.058 166.398 329.921 165.103 330.31 163.638L335.068 145.903H302.856L308.449 125.041C308.982 123.053 310.155 121.295 311.788 120.041C313.42 118.786 315.42 118.104 317.479 118.1H352.846L360.366 110.581H316.589ZM202.498 120.567C200.986 120.568 199.517 121.069 198.318 121.99C197.119 122.911 196.258 124.201 195.866 125.661L181.647 178.719H190.085L203.657 128.087H220.572L207 178.719H215.437L231.018 120.567L202.498 120.567ZM135.715 120.58C134.202 120.584 132.732 121.084 131.532 122.004C130.331 122.925 129.466 124.214 129.07 125.674C126.55 135.135 118.934 163.491 118.934 163.491C118.766 164.109 118.743 164.758 118.867 165.387C118.991 166.016 119.258 166.608 119.648 167.116C120.038 167.625 120.54 168.036 121.116 168.319C121.691 168.602 122.324 168.748 122.964 168.746H139.462L144.138 164.07L140.203 178.733H148.653L164.234 120.581L135.715 120.58ZM264.039 120.58L252.542 163.491C252.371 164.109 252.346 164.759 252.469 165.389C252.591 166.019 252.859 166.612 253.249 167.122C253.64 167.631 254.143 168.043 254.72 168.325C255.296 168.607 255.931 168.751 256.572 168.746H277.342L279.363 161.226H261.599L270.468 128.101H283.838L291.359 120.581L264.039 120.58ZM317.479 120.58C315.968 120.582 314.499 121.082 313.3 122.003C312.101 122.924 311.24 124.214 310.848 125.674L306.09 143.424H338.289L332.696 164.285C332.162 166.272 330.988 168.028 329.356 169.28C327.723 170.533 325.724 171.212 323.666 171.213H287.625L285.617 178.732H324.555C328.203 178.732 331.749 177.53 334.644 175.31C337.538 173.09 339.62 169.978 340.566 166.455L348.383 137.251H316.185L318.638 128.101H342.844L350.365 120.581L317.479 120.58ZM136.873 128.1H153.775L144.893 161.227H127.992L136.873 128.1Z" fill="#D01031"/>
<path d="M87.9082 203.26L100.294 192.91L107.869 201.98L105.51 203.947L100.281 197.681L97.6255 199.891L102.154 205.309L99.8225 207.263L95.3074 201.845L92.5847 204.123L97.8146 210.376L95.4828 212.33L87.9082 203.26ZM101.966 218.907C100.307 217.357 99.472 215.389 99.3506 212.627L102.626 212.236C102.626 214.338 103.057 215.47 104.216 216.535C105.524 217.815 106.71 218.017 107.532 217.182C107.99 216.697 108.098 215.686 107.195 214.581L106.022 213.085C104.513 211.212 103.839 208.503 105.78 206.441C107.869 204.231 110.996 204.365 113.678 206.899C115.21 208.396 116.132 210.408 116.266 212.546L113.085 212.977C112.977 210.686 112.155 209.81 111.467 209.163C110.349 208.098 109.351 208.058 108.475 208.961C107.882 209.594 108.044 210.322 108.785 211.306C109.138 211.76 109.502 212.205 109.877 212.64C111.791 214.931 112.168 217.802 110.295 219.756C108.179 221.993 104.783 221.575 101.966 218.907ZM124.096 219.163L116.805 229.998L113.705 227.909L120.996 217.074L117.034 214.406L118.759 211.859L129.798 219.297L128.073 221.845L124.096 219.163ZM121.01 234.108L124.838 236.225L126.859 232.532L123.032 230.416L121.01 234.108ZM139.542 226.925L138.167 230.564L142.197 229.648L137.979 240.847L141.335 242.114L147.103 226.818L144.367 225.793L139.542 226.925ZM155.446 229.109C158.937 229.958 160.649 232.909 159.975 235.658C159.547 237.067 158.815 238.364 157.832 239.459L152.576 245.321L148.586 244.351L153.344 239.243C152.57 239.252 151.804 239.086 151.104 238.756C150.404 238.427 149.787 237.943 149.301 237.341C148.815 236.74 148.471 236.035 148.296 235.282C148.121 234.528 148.118 233.745 148.29 232.99C148.99 230.133 151.753 228.205 155.446 229.109ZM153.6 236.359C155.312 236.777 156.12 235.982 156.403 234.796C156.686 233.651 156.12 232.505 154.705 232.155C153.196 231.791 152.184 232.519 151.875 233.812C151.564 235.065 152.198 236.022 153.6 236.359ZM166.485 248.003C162.468 247.586 160.608 245.079 160.905 242.208C160.994 241.463 161.283 240.755 161.741 240.16C162.199 239.565 162.809 239.104 163.506 238.826C162.966 238.444 162.539 237.922 162.271 237.317C162.002 236.712 161.903 236.046 161.983 235.389C162.28 232.546 164.733 230.928 168.17 231.292C171.876 231.67 173.749 233.866 173.48 236.548C173.437 237.214 173.21 237.855 172.824 238.4C172.439 238.944 171.91 239.372 171.296 239.634C171.901 240.059 172.387 240.631 172.708 241.296C173.028 241.961 173.174 242.697 173.129 243.435C172.847 246.17 170.582 248.435 166.485 248.003ZM167.172 240.86C165.838 240.712 164.76 241.615 164.652 242.599C164.544 243.637 165.137 244.648 166.781 244.809C168.493 244.998 169.261 244.122 169.369 243.084C169.477 242.087 168.641 241.008 167.172 240.86ZM167.846 234.324C166.525 234.189 165.73 234.823 165.622 235.834C165.528 236.763 166.309 237.586 167.496 237.721C168.817 237.855 169.693 237.181 169.814 236.225C169.935 235.241 169.221 234.473 167.846 234.324M175.987 248.3L175.906 245.672L182.268 238.825C182.995 238.004 183.386 237.181 183.373 236.521C183.346 235.618 182.672 234.877 181.351 234.917C179.801 234.958 179.127 236.13 179.046 237.518L175.474 237.626C175.434 234.055 178.278 231.899 181.243 231.818C184.303 231.737 186.999 233.381 187.079 236.44C187.12 237.788 186.648 239.149 185.273 240.645L181.149 245.038L187.457 244.863L187.551 247.976L175.987 248.3ZM206.38 244.702L199.264 246.426L195.449 230.739L202.161 229.109C205.652 228.26 208.24 229.594 208.927 232.41C209.088 233.55 208.855 234.71 208.267 235.699C209.305 236.332 210.396 237.343 210.706 238.624C211.434 241.588 209.749 243.879 206.38 244.702ZM203.226 232.02L199.708 232.882L200.503 236.144L204.142 235.254C205.221 234.998 205.544 233.974 205.369 233.246C205.311 233.023 205.21 232.814 205.07 232.632C204.93 232.449 204.756 232.296 204.556 232.181C204.356 232.067 204.136 231.994 203.907 231.966C203.679 231.938 203.447 231.957 203.226 232.02ZM204.87 238.165L201.204 239.055L202.081 242.626L205.841 241.709C206.96 241.44 207.283 240.443 207.067 239.553C206.852 238.65 206.056 237.882 204.87 238.165ZM226.691 231.831C228.093 235.16 225.977 237.95 222.418 239.446C218.955 240.915 215.41 240.51 214.008 237.181L209.763 227.128L213.2 225.686L217.486 235.833C218.079 237.208 219.615 237.276 221.219 236.588C222.85 235.901 223.874 234.756 223.295 233.381L219.009 223.233L222.446 221.777L226.691 231.831ZM237.474 231.939C235.519 233.098 233.403 233.34 230.708 232.694L231.247 229.432C233.282 230.025 234.482 229.931 235.829 229.122C237.42 228.219 237.959 227.127 237.379 226.117C237.042 225.524 236.099 225.147 234.791 225.713L233.026 226.414C230.802 227.33 227.998 227.222 226.57 224.783C225.047 222.155 226.044 219.203 229.225 217.33C231.09 216.276 233.281 215.954 235.371 216.427L234.899 219.594C232.662 219.069 231.597 219.608 230.789 220.079C229.454 220.861 229.117 221.804 229.751 222.896C230.195 223.651 230.937 223.704 232.096 223.26C232.626 223.047 233.152 222.822 233.673 222.586C236.409 221.387 239.266 221.845 240.627 224.19C242.191 226.831 240.83 229.985 237.474 231.939ZM254.537 218.88L251.41 217.195L246.948 220.955L248.135 224.271L245.183 226.764L239.711 210.255L242.124 208.22L257.462 216.427L254.537 218.88ZM244.388 213.368L245.897 217.95L248.66 215.618L244.388 213.368ZM266.963 205.632L254.914 204.621L262.354 211.009L259.968 213.786L247.717 203.287L249.55 201.144L261.64 202.142L254.173 195.754L256.572 192.951L268.837 203.449L266.963 205.632Z" fill="white"/>
</g>
<defs>
<clipPath id="clip0_1484_184">
<rect width="370.125" height="278" fill="white"/>
</clipPath>
</defs>
</svg>
