<svg width="412" height="278" viewBox="0 0 412 278" fill="none" xmlns="http://www.w3.org/2000/svg">
<g clip-path="url(#clip0_1484_230)">
<mask id="mask0_1484_230" style="mask-type:luminance" maskUnits="userSpaceOnUse" x="-1" y="-3" width="413" height="284">
<path d="M-0.0012207 -2.68564H411.587V280.318H-0.0012207V-2.68564Z" fill="white"/>
</mask>
<g mask="url(#mask0_1484_230)">
<path d="M311.402 138.815C311.402 191.943 268.333 235.013 215.207 235.013C162.079 235.013 119.008 191.943 119.008 138.815C119.008 85.6846 162.079 42.6143 215.207 42.6143C268.333 42.6143 311.402 85.6846 311.402 138.815Z" fill="white"/>
<path d="M260.315 100.308C260.315 100.308 265.559 98.5659 267.923 99.14L268.635 97.2743C266.604 96.2865 261.509 97.4747 261.509 97.4747C261.509 97.4747 259.085 93.0497 257.345 92.6612L256.49 94.7722C258.916 96.1655 260.315 100.308 260.315 100.308Z" fill="#C7A079"/>
<path d="M240.482 224.534C240.482 224.534 238.345 221.582 237.005 221.307L236.376 222.866C238.255 224.042 239.453 226.507 239.453 226.507C239.453 226.507 244.168 225.532 246.04 226.083L246.712 224.559C245.116 223.698 240.482 224.534 240.482 224.534Z" fill="#C7A079"/>
<path d="M250.057 201.105C250.057 201.105 245.941 197.071 244.223 197.159L243.988 199.315C246.664 200.134 249.45 203.926 249.45 203.926C249.45 203.926 254.335 200.503 256.756 200.543L257.11 198.404C254.905 197.897 250.057 201.105 250.057 201.105Z" fill="#C7A079"/>
<path d="M263.891 93.4404C263.891 93.4404 269.113 92.6164 271.514 92.9354L272.597 90.77C270.475 90.0053 265.062 90.8594 265.062 90.8594C265.062 90.8594 262.751 86.627 260.989 86.4216L260.132 88.5182C262.679 89.6588 263.891 93.4404 263.891 93.4404Z" fill="#C7A079"/>
<path d="M268.105 86.6546C268.105 86.6546 272.226 86.4492 274.583 86.9119L275.811 84.8037C273.761 83.9077 269.508 84.039 269.508 84.039C269.508 84.039 266.764 80.6113 265.163 79.9651L264.18 81.846C266.632 83.1207 268.105 86.6546 268.105 86.6546Z" fill="#C7A079"/>
<path d="M271.857 80.4875C271.857 80.4875 275.799 80.0718 278.108 80.6953L279.512 78.5127C277.543 77.503 273.435 77.9681 273.435 77.9681C273.435 77.9681 271.245 74.214 269.543 73.7905L268.517 75.5105C270.861 76.9437 271.857 80.4875 271.857 80.4875Z" fill="#C7A079"/>
<path d="M275.782 74.6911C275.782 74.6911 279.259 74.9756 281.506 75.7432L282.777 74.0573C280.879 72.9044 277.08 72.7061 277.08 72.7061C277.08 72.7061 275.126 69.066 273.461 68.5288L272.393 70.1028C274.633 71.6717 275.782 74.6911 275.782 74.6911Z" fill="#C7A079"/>
<path d="M237.932 229.098C237.932 229.098 235.767 226.19 234.527 225.913L233.949 227.465C235.689 228.643 236.98 231.08 236.98 231.08C236.98 231.08 241.183 230.13 242.926 230.687L243.541 229.157C242.07 228.298 237.932 229.098 237.932 229.098Z" fill="#C7A079"/>
<path d="M243.016 219.491C243.016 219.491 240.067 215.758 238.508 215.541L237.932 217.501C240.199 218.76 242.024 221.993 242.024 221.993C242.024 221.993 247.105 220.154 249.298 220.664L249.93 218.73C248.025 217.84 243.016 219.491 243.016 219.491Z" fill="#C7A079"/>
<path d="M245.74 214.256C245.74 214.256 242.07 209.957 240.358 209.908L239.959 212.048C242.537 213.133 244.942 217.041 244.942 217.041C244.942 217.041 250.11 213.939 252.521 214.209L253 212.091C250.858 211.37 245.74 214.256 245.74 214.256Z" fill="#C7A079"/>
<path d="M248.088 207.515C248.088 207.515 244.213 203.32 242.502 203.332L242.173 205.478C244.793 206.441 247.384 210.306 247.384 210.306C247.384 210.306 252.429 207.064 254.845 207.232L255.263 205.094C253.094 204.473 248.088 207.515 248.088 207.515Z" fill="#C7A079"/>
<path d="M172.715 69.4893L174.494 67.9697C173.003 67.1185 171.424 62.1881 171.424 62.1881C171.424 62.1881 167.975 62.0844 166.4 61.6016L164.13 63.2302L169.566 63.8661C169.566 63.8661 170.831 68.5389 172.715 69.4893Z" fill="#C7A079"/>
<path d="M178.855 65.1377L180.722 63.7222C178.83 62.769 177.555 58.0522 177.555 58.0522C177.555 58.0522 174.011 57.7032 172.69 56.931L170.856 58.342C172.06 59.28 175.763 59.6632 175.763 59.6632C175.763 59.6632 176.898 64.3137 178.855 65.1377Z" fill="#C7A079"/>
<path d="M166.837 74.4238C167.361 73.8976 167.903 73.3891 168.462 72.8993C166.738 70.7463 166.136 66.6749 166.136 66.6749C166.136 66.6749 162.11 66.5016 160.178 66.3855C159.586 66.9173 158.748 67.9545 158.748 67.9545L164.046 68.5756C164.046 68.5756 165.11 72.4663 166.837 74.4238Z" fill="#C7A079"/>
<path d="M161.94 79.8855C162.421 79.3982 162.981 78.7746 163.552 78.2819C161.823 76.1186 160.977 71.7183 160.977 71.7183C160.977 71.7183 157.106 71.5504 155.193 71.4241C154.582 71.9612 154.062 72.4016 153.756 73.0029L158.95 73.5746C158.95 73.5746 160.202 77.9379 161.94 79.8855Z" fill="#C7A079"/>
<path d="M184.801 60.77L186.793 59.4583C184.467 58.9804 183.296 53.8899 183.296 53.8899C183.296 53.8899 180.174 53.8529 179.131 53.1647C178.329 53.5977 177.487 53.8973 176.682 54.4192C177.866 54.9888 181.36 55.2584 181.36 55.2584C181.36 55.2584 183.019 59.9781 184.801 60.77Z" fill="#C7A079"/>
<path d="M158.179 83.9792C156.551 82.2045 155.117 77.6634 155.117 77.6634C155.117 77.6634 151.461 77.8441 149.527 77.7968L147.829 79.5987C149.747 79.9156 153.24 79.7448 153.24 79.7448C153.24 79.7448 154.432 83.687 156.653 85.9668L158.179 83.9792Z" fill="#C7A079"/>
<path d="M190.503 56.0996C191.012 55.7259 192.346 55.006 192.346 55.006C190.214 54.1791 190.069 50.472 190.069 50.472C190.069 50.472 185.386 50.395 184.295 49.883C183.628 50.3234 182.914 50.5609 182.276 51.1029C183.169 51.8602 187.911 52.073 187.911 52.073C187.911 52.073 188.404 55.6567 190.503 56.0996Z" fill="#C7A079"/>
<path d="M145.049 84.1545C144.501 84.8995 144.088 85.372 143.562 86.112L148.536 86.352C148.536 86.352 149.591 90.926 151.269 92.5518L152.667 90.4827C151.246 88.8096 150.336 84.1348 150.336 84.1348C150.336 84.1348 146.721 84.2858 145.049 84.1545Z" fill="#C7A079"/>
<path d="M144.991 91.0968C144.991 91.0968 141.827 91.5348 140.178 91.1363L138.767 92.8786C140.071 93.3515 143.546 93.3585 143.546 93.3585C143.546 93.3585 145.35 99.3455 146.771 100.081L148.061 97.8358C146.237 96.3335 144.991 91.0968 144.991 91.0968Z" fill="#C7A079"/>
<path d="M135.897 98.6233L134.603 100.657L139.262 100.653C139.262 100.653 140.385 105.553 142.411 107.107L143.632 104.944C142.287 103.511 140.889 98.5068 140.889 98.5068L135.897 98.6233Z" fill="#C7A079"/>
<path d="M131.787 106.538L130.823 108.706L135.374 108.463C135.374 108.463 137.184 112.948 138.87 114.517C139.322 113.772 139.546 112.755 139.951 112.024C137.961 110.094 136.691 106.307 136.691 106.307L131.787 106.538Z" fill="#C7A079"/>
<path d="M193.543 48.5835C193.762 50.5089 195.725 52.4961 195.725 52.4961L197.395 51.3749C195.888 50.1081 195.279 47.4327 195.279 47.4327L192.249 47.0936C190.728 47.0096 187.502 48.1328 187.502 48.1328C189.014 48.081 193.543 48.5835 193.543 48.5835Z" fill="#C7A079"/>
<path d="M367.364 147.309L367.148 148.482C366.983 149.338 357.491 151.029 348.001 152.998C348.302 150.142 348.498 147.257 348.617 144.354C358.349 145.885 367.364 147.309 367.364 147.309ZM286.948 128.339L283.46 157C283.176 158.757 282.559 160.95 281.065 161.381L271.581 162.381L275.068 133.727C275.332 131.94 275.972 129.759 277.451 129.331L286.948 128.339ZM215.202 237.263C185.623 237.26 159.109 224.2 141.062 203.545C142.144 203.436 142.951 203.347 143.369 203.305C143.601 203.285 143.73 203.112 143.769 202.803C144.604 195.955 154.29 116.568 154.308 116.412C154.312 116.244 154.113 116.18 153.964 116.207C153.82 116.23 148.695 117.16 143.904 118.066C141.183 118.59 138.496 119.548 135.915 120.845C135.942 120.734 135.968 120.625 135.993 120.541C133.995 118.637 133.631 114.356 133.631 114.356L128.145 115.145L127.488 117.259L131.855 116.626C131.855 116.626 132.115 119.588 133.841 121.981C126.439 126.339 120.138 133.534 116.828 141.656C116.801 140.708 116.757 139.765 116.757 138.81C116.757 84.4348 160.833 40.3698 215.202 40.3599C255.751 40.3599 290.56 64.8786 305.647 99.8953C290.318 101.511 271.854 103.464 271.854 103.464C269.536 103.707 267.267 104.234 265.057 104.954L265.32 104.182C263.251 103.335 258.228 104.875 258.228 104.875C258.228 104.875 255.414 100.534 253.669 100.264L252.895 102.383C255.382 103.612 257.161 107.706 257.161 107.706C257.161 107.706 259.249 106.892 261.375 106.407C258.897 107.543 256.548 108.945 254.371 110.587C253.288 109.374 251.82 107.948 250.822 107.862L250.145 110.003C251.048 110.381 251.901 111.144 252.629 111.963C245.44 118.043 240.321 126.745 239.174 136.184C239.174 136.184 232.402 191.819 232.364 192.223C232.317 192.626 232.293 192.967 232.853 192.935C233.021 192.923 238.408 192.356 245.709 191.587L245.679 192.176C248.397 192.812 251.471 196.465 251.471 196.465C251.471 196.465 256.126 192.802 258.543 192.666L258.787 190.527C256.558 190.161 251.908 193.626 251.908 193.626C251.908 193.626 250.378 192.309 248.77 191.263C264.639 189.592 286.658 187.258 286.658 187.258C293.241 186.568 299.49 183.788 304.755 179.653C304.409 180.358 304.086 181.074 303.786 181.801C287.825 214.633 254.159 237.26 215.202 237.263ZM411.179 88.1247C393.731 89.9655 376.284 91.8043 358.835 93.6412C353.138 94.2401 347.693 96.4104 342.911 99.6554C326.175 45.003 275.338 5.25634 215.196 5.25634C156.128 5.25634 106.052 43.6193 88.4334 96.7796C73.985 98.242 37.4076 102.068 37.4076 102.068C10.7881 104.875 3.24817 125.572 1.13261 137.674C-0.695255 148.046 0.211892 155.364 0.320963 157.416C0.334133 157.765 0.46791 158.191 0.696753 158.263C1.01244 158.361 1.43802 158.198 1.98626 157.57C2.57524 156.894 12.5007 144.604 13.9672 142.98C15.43 141.359 21.7717 133.776 34.1486 132.48L76.0862 128.057C76.001 128.945 70.5812 176.326 70.5812 176.326C69.6415 182.568 65.5248 186.439 57.8425 187.815C57.8425 187.815 64.4283 130.46 64.4345 130.366C64.4617 130.269 64.4345 130.15 64.2777 130.18C64.1106 130.212 54.7827 131.804 54.7827 131.804C40.082 134.969 27.6183 148.665 25.802 163.638L22.6031 191.487C13.763 192.388 7.97281 191.574 4.34342 191.297C3.11606 191.211 1.96402 191.057 0.980323 190.941C0.572027 190.891 0.258829 191.275 0.486437 191.614C1.98133 193.938 5.55513 200.253 10.1756 205.131C16.4149 211.749 25.5225 215.033 36.8239 215.033L64.9321 212.494C81.7266 210.722 91.7792 207.263 97.9308 202.763C120.593 244.239 164.607 272.376 215.196 272.376C274.297 272.376 324.39 233.976 341.99 180.781C358.988 178.994 375.134 177.289 375.134 177.289C401.034 174.56 402.023 162.351 402.558 155.795C402.612 155.179 403.832 144.509 403.99 141.515C404.501 133.576 398.681 126.436 390.194 124.56C386.752 123.795 372.763 121.362 363.794 119.823C363.956 119.698 364.141 119.608 364.338 119.556L389.559 116.866C398.334 115.942 405.159 109.5 408.316 99.1849L411.583 88.5083C411.583 88.5083 411.651 88.0654 411.179 88.1247Z" fill="#C7A079"/>
<path d="M239.748 107.451C239.346 107.49 185.97 113.108 185.97 113.108C169.658 114.843 155.304 129.217 153.27 145.85C153.27 145.85 146.417 202.191 146.397 202.32C146.383 202.448 146.513 202.579 146.694 202.555C146.84 202.54 178.314 199.28 182.07 198.901C182.302 198.877 182.441 198.622 182.477 198.463C182.5 198.3 189.282 142.438 189.282 142.438C189.599 141.104 190.222 139.406 191.407 139.03L201.058 138.015C201.058 138.015 194.001 196.021 193.89 196.87C193.827 197.34 194.064 197.627 194.536 197.585C199.631 197.045 229.213 193.927 229.362 193.908C229.514 193.898 229.864 193.729 229.881 193.462C230.654 187.228 240.251 108.455 240.276 108.015C240.339 107.557 240.191 107.399 239.748 107.451Z" fill="#C7A079"/>
<path d="M107.204 104.897C103.316 100.885 97.8687 99.0142 91.5809 99.6843L37.5435 105.396C18.689 107.372 8.39724 120.409 5.30621 130.974C3.38574 137.582 3.01696 141.616 2.79265 144.306C2.79265 144.306 2.41933 150.474 2.50494 152.397C2.50494 152.667 2.49095 152.787 2.64694 152.864C2.73626 152.904 2.86714 152.874 3.054 152.674C4.05869 151.555 6.5879 148.046 7.19458 147.276C9.26364 144.712 13.07 139.862 15.5828 137.694C18.7199 134.994 25.2625 130.318 34.0417 129.398L77.6762 124.804C78.4533 124.706 78.9558 124.859 79.011 124.953C79.6819 125.641 79.2983 126.945 79.2983 126.945L73.7398 176.601C72.5359 184.758 66.3448 189.641 54.6585 191.143L61.0019 134.239C61.0213 133.964 60.8694 133.811 60.5747 133.872C60.273 133.927 55.2549 134.969 55.2549 134.969C41.9178 137.834 30.6288 150.234 28.966 163.791L26.1894 188.077L25.3872 194.21L23.8034 194.388C20.6021 194.722 16.5422 194.96 8.43429 194.388C7.02625 194.289 6.31831 194.126 6.15491 194.336C6.03761 194.544 6.10428 194.799 6.50888 195.479C6.67351 195.769 9.87114 201.815 16.8044 206.906C21.117 210.059 27.9448 211.826 36.5758 211.826C41.3165 211.826 46.337 211.37 51.0802 210.863L58.3299 210.098C92.0723 206.537 102.352 202.057 105.308 179.172L112.169 121.186C112.957 114.766 111.196 108.987 107.204 104.897Z" fill="#071D3D"/>
<path d="M91.7471 102.838L37.701 108.542C10.1324 111.443 6.74669 137.476 6.56847 138.528C6.37173 139.58 5.92516 143.787 5.89676 144.101C5.83832 144.4 5.96096 144.524 6.19845 144.218C6.44582 143.886 9.59241 139.75 9.59241 139.75C9.6632 139.637 18.579 128.086 33.87 126.478L77.5226 121.877C79.185 121.701 80.4556 122.025 81.2697 122.892C82.8984 124.609 82.3822 128.002 81.8752 131.594C81.7426 132.464 76.7583 176.997 76.7583 176.997C74.6633 191.574 58.5447 193.279 53.2335 193.831L51.7061 193.997C51.7061 193.997 57.8368 137.652 57.8479 137.407C57.861 137.159 57.6252 137.065 57.3873 137.117C57.1646 137.169 55.6636 137.488 55.6636 137.488C43.4069 140.136 33.0262 151.509 31.5177 163.945L27.427 196.548C24.4248 196.831 21.1144 197.098 18.2794 197.098C16.5618 197.098 11.1964 196.727 10.7881 196.687C10.4049 196.65 10.2995 196.86 10.537 197.135C10.7733 197.42 12.4735 199.555 12.4735 199.555C18.0493 206.171 26.3033 209.596 36.037 209.113C45.7616 208.646 52.8734 207.651 59.835 207.042C80.0806 205.245 99.1792 203.208 102.33 179.115L109.174 121.075C109.845 115.591 108.349 110.654 104.999 107.213C101.766 103.88 96.9553 102.279 91.7471 102.838Z" fill="#1D467D"/>
<path d="M363.929 116.494L389.446 113.786C395.851 113.108 401.714 107.76 404.115 101.756C405.035 99.4322 406.723 93.4309 407.109 92.0471C407.156 91.857 407.01 91.78 406.787 91.7899C406.562 91.8372 358.962 96.9598 358.962 96.9598C344.428 98.4942 331.121 111.807 329.328 126.629C329.328 126.629 328.083 137.57 328.07 137.682C328.07 137.785 328.111 137.845 328.186 137.854C328.235 137.865 370.92 145.106 370.92 145.106C370.92 145.106 370.604 146.898 370.197 149.647C369.763 152.382 351.325 154.585 343.872 156.72C332.604 159.94 321.281 162.742 310.78 175.262C309.183 177.187 307.959 179.89 307.303 180.92C307.169 181.142 307.253 181.417 307.579 181.392C307.931 181.365 376.116 174.096 376.116 174.096C390.115 172.624 397.819 167.308 398.995 158.307L399.132 157.211C399.647 153.449 400.572 146.43 400.831 141.653C401.221 135.32 396.277 129.366 389.332 127.812C385.135 126.893 365.141 123.458 359.136 122.439C359.891 119.083 361.539 117.078 363.929 116.494Z" fill="#071D3D"/>
<path d="M363.642 113.611L389.293 110.884C397.5 110.007 401.02 102.377 402.403 97.9198C402.403 97.9198 402.987 95.9454 403.016 95.7569C403.054 95.5664 402.917 95.5071 402.653 95.5293C402.398 95.552 359.137 100.12 359.137 100.12C345.978 101.499 333.976 113.561 332.334 127.017C332.334 127.017 331.344 135.437 331.338 135.536C331.338 135.632 331.383 135.702 331.469 135.721C331.562 135.726 374.185 143.287 374.185 143.287C374.162 143.568 374.132 143.849 374.097 144.128L373.593 148.267C372.643 154.09 368.489 154.877 351.211 158.099C347.139 158.859 323.216 164.271 314.896 174.849C314.007 176.012 313.376 176.905 313.039 177.455C312.808 177.826 312.901 177.999 313.283 177.97C317.722 177.47 365.385 172.339 371.841 171.656C386.893 170.073 394.351 167.516 396.015 157.203C396.961 151.256 397.57 146.054 397.819 141.75C398.117 136.812 394.136 132.177 388.54 130.928C383.732 129.863 356.777 125.267 356.517 125.235C356.284 125.201 355.751 124.921 355.793 124.386C356.642 116.744 360.502 114.301 363.642 113.611Z" fill="#1D467D"/>
<path d="M361.242 103.806L399.959 99.7148C400.29 98.8883 400.572 98.0985 400.776 97.4255L359.332 101.801C346.903 103.103 335.549 114.509 334.022 127.203L333.198 134.303L335.311 134.685L335.943 129.198C337.598 115.784 348.829 105.112 361.242 103.806Z" fill="white"/>
<path d="M358.161 128.915C360.963 129.378 385.641 133.593 390.109 134.585C391.828 134.962 393.37 135.713 394.621 136.711C393.199 134.721 390.935 133.108 388.184 132.568C383.481 131.665 359.03 127.383 356.226 126.893C356.173 126.893 356.119 126.871 356.092 126.864C356.269 127.955 357.188 128.742 358.161 128.915Z" fill="white"/>
<path d="M377.187 150.54L377.662 146.712C377.824 145.425 378.152 143.965 376.903 143.725L375.865 143.534C375.837 143.92 375.258 148.531 375.258 148.531C374.025 156.057 370.93 156.25 351.515 159.755C344.074 161.113 321.205 168.246 316.342 175.759C317.739 175.608 319.118 175.479 320.461 175.336C327.94 168.748 346.806 162.965 353.446 161.767C372.883 158.272 375.963 158.049 377.187 150.54Z" fill="white"/>
<path d="M141.35 122.152C129.881 125.535 119.223 138.112 117.706 150.566C117.706 150.566 111.374 202.58 111.336 203.018C111.318 203.461 111.611 203.562 111.887 203.55C112.138 203.51 138.258 200.763 140.716 200.504C140.829 200.479 140.906 200.404 140.924 200.276C141.494 195.692 150.655 120.266 150.664 120.085C150.67 119.947 150.512 119.771 150.293 119.835C150.091 119.877 145.905 120.805 141.35 122.152Z" fill="#071D3D"/>
<path d="M144.85 124.436C132.61 127.076 122.244 138.444 120.724 150.897C120.724 150.897 114.817 199.555 114.783 199.84C114.715 200.142 114.808 200.303 115.256 200.265C115.662 200.206 135.983 198.063 138.034 197.855C138.151 197.835 138.198 197.771 138.214 197.66C138.711 193.63 147.128 124.394 147.139 124.245C147.172 124.096 147.053 123.958 146.864 123.998C146.673 124.045 144.85 124.436 144.85 124.436Z" fill="#1D467D"/>
<path d="M144.908 128.695L145.23 126.076C133.754 128.574 123.845 139.354 122.418 151.1L116.655 198.412L118.861 198.179L124.336 153.092C125.641 141.248 134.422 131.996 144.908 128.695Z" fill="white"/>
<path d="M186.089 116.437C171.535 117.974 158.232 131.296 156.418 146.143C156.418 146.143 150.023 198.706 150.009 198.862C149.984 199.043 150.058 199.174 150.264 199.152C150.465 199.13 176.147 196.432 179.295 196.076C179.507 196.073 179.631 195.855 179.655 195.692C179.669 195.548 186.158 142.22 186.158 142.22C186.955 138.659 188.623 136.557 190.984 135.973L204.688 134.518C204.688 134.518 197.622 192.92 197.504 193.42C197.4 193.898 197.643 194.167 198.08 194.118C202.419 193.66 226.56 191.099 226.724 191.086C226.811 191.084 226.895 191.049 226.957 190.988C227.019 190.927 227.056 190.844 227.06 190.757C227.719 185.464 236.663 112.264 236.663 111.794C236.692 111.297 236.27 111.141 235.961 111.175C235.643 111.223 186.089 116.437 186.089 116.437Z" fill="#071D3D"/>
<path d="M186.244 119.59C173.108 120.983 161.079 133.041 159.455 146.475C159.455 146.475 153.505 195.324 153.481 195.563C153.459 195.789 153.496 195.888 153.69 195.866C153.886 195.843 173.834 193.735 176.593 193.445C176.815 193.42 176.937 193.264 176.974 193.066C176.983 192.947 183.17 141.963 183.17 141.963C184.599 135.407 188.46 133.58 190.686 133.078L207.245 131.316C207.41 131.316 207.634 131.316 207.853 131.514C208.015 131.678 208.069 131.898 208.024 132.15C208.024 132.15 200.977 189.763 200.977 190.196C200.944 190.616 201.133 190.864 201.601 190.81C205.497 190.403 223.771 188.466 223.948 188.461C224.259 188.441 224.377 188.146 224.399 187.978C224.952 183.417 233.232 115.19 233.299 114.977C233.304 114.764 233.134 114.653 232.952 114.667C232.743 114.693 186.244 119.59 186.244 119.59Z" fill="#1D467D"/>
<path d="M188.362 123.278L231.123 118.781L231.375 116.549L186.431 121.278C173.993 122.592 162.668 133.972 161.12 146.68L155.378 193.994L157.579 193.757L163.07 148.69C164.598 135.988 175.947 124.587 188.362 123.278Z" fill="white"/>
<path d="M210.986 132.348C210.661 131.986 210.191 131.759 209.702 131.682C209.732 131.906 209.736 132.133 209.714 132.358L202.806 188.987L205.014 188.752L211.64 134.38C211.738 133.602 211.49 132.875 210.986 132.348Z" fill="white"/>
<path d="M30.8729 200.1L35.1197 166.162C36.4713 155.151 45.2398 145.014 55.7827 141.732C55.967 139.97 56.0251 139.143 56.0251 139.143C44.5393 141.616 34.6311 152.409 33.1823 164.15L28.9479 198.093C23.2342 198.671 17.2218 198.776 13.7632 198.464C14.4744 199.31 15.5832 200.359 15.6898 200.473C19.3056 201.112 25.1794 200.664 30.8729 200.1Z" fill="white"/>
<path d="M39.8109 112.222L93.8643 106.528C98.1049 106.08 101.92 107.144 104.767 109.525C104.466 109.126 104.139 108.746 103.789 108.389C100.877 105.402 96.6636 104.024 91.9476 104.518L37.8756 110.228C11.3388 113.027 8.24902 138.721 8.24902 138.721C8.24902 138.721 9.37019 137.243 11.5133 135.244C14.0672 127.51 21.1169 114.195 39.8109 112.222Z" fill="white"/>
<path d="M55.3515 197.521C60.8404 196.939 78.0633 195.135 80.36 179.247C80.36 179.247 85.3357 134.701 85.4793 133.864C86.0683 129.848 86.6054 126.037 84.431 123.737C84.0938 123.39 83.7083 123.094 83.2864 122.857C84.515 125.188 84.0425 128.427 83.5589 131.843C83.4066 132.704 78.4284 177.244 78.4284 177.244C76.1416 193.14 58.9286 194.94 53.4112 195.511L51.7529 195.657L51.4871 197.904L55.3515 197.521Z" fill="white"/>
<path d="M281.54 164.652L267.986 166.082L271.925 133.63C272.365 130.734 273.605 127.103 276.997 126.302L290.57 124.871L286.597 157.297C286.175 160.212 284.919 163.848 281.54 164.652ZM271.978 106.775C257.442 108.304 244.129 121.626 242.326 136.478C242.326 136.478 235.966 188.809 235.951 189.039C235.923 189.267 236.011 189.517 236.327 189.475C236.639 189.445 286.58 184.181 286.58 184.181C301.086 182.642 314.4 169.317 316.215 154.473C316.215 154.473 322.563 102.239 322.603 101.936C322.624 101.61 322.312 101.459 322.053 101.499C321.76 101.518 271.978 106.775 271.978 106.775Z" fill="#071D3D"/>
<path d="M289.652 157.483L289.603 157.742C288.578 164.84 284.86 167.139 281.901 167.803L265.448 169.538C265.274 169.56 265.066 169.553 264.843 169.327C264.683 169.176 264.626 168.954 264.658 168.694L268.938 133.481C269.986 126.312 273.742 124.04 276.661 123.409L276.884 123.381L293.091 121.664C293.34 121.644 293.553 121.718 293.711 121.864C293.864 122.025 293.929 122.253 293.893 122.518L289.652 157.483ZM318.828 105.008C318.657 105.028 272.141 109.928 272.141 109.928C259.011 111.317 246.958 123.386 245.357 136.818C245.357 136.818 239.418 185.471 239.401 185.726C239.369 185.996 239.649 186.198 239.88 186.174C240.103 186.159 286.395 181.278 286.395 181.278C299.539 179.885 311.582 167.83 313.23 154.381C313.23 154.381 319.125 105.513 319.175 105.293C319.2 105.07 319.002 104.983 318.828 105.008Z" fill="#1D467D"/>
<path d="M295.583 122.706L291.29 157.98C290.036 166.538 285.03 168.852 282.153 169.468L265.607 171.223C265.376 171.247 265.141 171.229 264.916 171.171C264.997 171.681 265.207 172.154 265.562 172.522C266.069 173.047 266.809 173.307 267.564 173.23L284.095 171.486C286.962 170.876 291.956 168.548 293.216 159.992L297.51 124.706C297.629 123.958 297.374 123.218 296.843 122.688C296.505 122.337 296.058 122.109 295.569 122.018C295.583 122.248 295.609 122.483 295.583 122.706Z" fill="white"/>
<path d="M274.251 113.626L316.995 109.119L317.267 106.889L272.322 111.614C259.901 112.915 248.558 124.312 247.026 137.026L241.272 184.33L243.477 184.095L248.953 139.02C250.489 126.327 261.851 114.928 274.251 113.626Z" fill="white"/>
<path d="M353.872 145.18C352.179 144.915 350.41 144.635 348.617 144.353V144.356C348.57 145.437 348.51 146.518 348.438 147.598C348.373 148.618 348.295 149.636 348.205 150.654C348.137 151.434 348.083 152.218 348 152.998C349.823 152.617 351.645 152.251 353.405 151.897C353.611 149.667 353.772 147.427 353.872 145.18Z" fill="#071D3D"/>
<path d="M88.4332 96.7792C90.6107 90.2127 93.2974 83.8261 96.469 77.6778C96.4966 77.6259 96.5238 77.5716 96.5509 77.5198C97.3275 76.0213 98.131 74.537 98.9612 73.0676C98.9797 73.0351 98.9987 73.0055 99.0143 72.9734C102.321 67.1536 106.059 61.5902 110.198 56.3299C110.361 56.1246 110.519 55.9192 110.681 55.7138C111.617 54.5396 112.572 53.3803 113.545 52.2363C113.741 52.0062 113.942 51.7786 114.14 51.551C117.25 47.9483 120.55 44.5133 124.024 41.2605C124.175 41.1197 124.322 40.9756 124.474 40.8324C125.445 39.9314 126.438 39.0576 127.436 38.1867C127.884 37.7932 128.331 37.4047 128.782 37.0186C129.725 36.2171 130.678 35.4293 131.643 34.6553C132.169 34.2323 132.701 33.8156 133.237 33.4053C134.19 32.6603 135.144 31.9154 136.117 31.2C136.635 30.8189 137.167 30.4501 137.693 30.0788C139.41 28.8535 141.156 27.6686 142.928 26.5252C143.661 26.0498 144.387 25.5724 145.129 25.1143C145.994 24.5796 146.872 24.0701 147.75 23.5527C149.411 22.5729 151.095 21.6314 152.799 20.7292C153.72 20.2431 154.646 19.7686 155.579 19.3059C156.383 18.9046 157.184 18.4939 157.998 18.1107C159.32 17.4772 160.66 16.8829 162.006 16.2964C162.825 15.94 163.648 15.5909 164.476 15.2518C165.841 14.6874 167.216 14.1454 168.599 13.626C169.329 13.354 170.068 13.1012 170.804 12.8415C171.97 12.4303 173.143 12.0295 174.325 11.6508C175.086 11.4088 175.846 11.1688 176.61 10.9383C177.855 10.5621 179.107 10.2131 180.366 9.87191C181.053 9.68587 181.735 9.49531 182.425 9.31956C184.303 8.84326 186.191 8.40769 188.089 8.01318C188.274 7.97366 188.459 7.93868 188.647 7.9041C190.51 7.53114 192.38 7.19618 194.257 6.89942C194.916 6.79776 195.576 6.71379 196.237 6.61995C197.633 6.4191 199.035 6.23841 200.443 6.08489C201.17 6.00586 201.899 5.92931 202.628 5.86016C204.064 5.72598 205.504 5.62226 206.949 5.53336C207.603 5.49343 208.252 5.44404 208.908 5.41688C210.992 5.3181 213.087 5.25595 215.195 5.25595C217.318 5.25595 219.426 5.3181 221.522 5.41688C222.185 5.44651 222.843 5.49591 223.504 5.5383C224.944 5.62205 226.382 5.73087 227.818 5.86469C229.94 6.06788 232.058 6.31969 234.168 6.61995C234.873 6.7212 235.581 6.81504 236.283 6.92658C237.856 7.1784 239.425 7.45806 240.989 7.7654C241.438 7.85472 241.895 7.9288 242.344 8.02059C244.324 8.42978 246.294 8.88526 248.253 9.38665C248.795 9.52535 249.328 9.67846 249.866 9.82458C251.287 10.2086 252.7 10.6021 254.1 11.0272C254.804 11.2439 255.507 11.4667 256.208 11.6957C257.444 12.0955 258.674 12.5122 259.898 12.9457C260.614 13.1964 261.326 13.4545 262.037 13.7199C263.296 14.1942 264.548 14.6876 265.792 15.1999C266.404 15.4526 267.026 15.6926 267.636 15.9527C269.429 16.717 271.206 17.5197 272.964 18.3605C273.343 18.5412 273.713 18.7466 274.089 18.9297C275.484 19.6179 276.868 20.318 278.235 21.0507C278.911 21.4145 279.576 21.7956 280.244 22.1669C281.302 22.7592 282.354 23.3639 283.398 23.9808C284.108 24.4052 284.814 24.8351 285.517 25.2703C286.517 25.8913 287.508 26.5266 288.49 27.1759C289.167 27.6217 289.849 28.0617 290.516 28.5198C291.62 29.2771 292.701 30.0541 293.779 30.8386C294.29 31.2124 294.812 31.5688 295.317 31.9499C296.803 33.0671 298.265 34.2157 299.703 35.3949C300.349 35.9246 300.975 36.4716 301.612 37.0133C302.461 37.736 303.308 38.4563 304.137 39.2013C304.823 39.81 305.498 40.4361 306.168 41.06C306.926 41.7674 307.676 42.4827 308.418 43.2056C309.091 43.8584 309.758 44.5177 310.419 45.1833C311.15 45.9279 311.864 46.6901 312.578 47.4499C313.203 48.1159 313.837 48.7765 314.449 49.4572C315.527 50.6554 316.583 51.8732 317.617 53.1101C318.331 53.9752 319.036 54.8481 319.732 55.7286C320.355 56.5106 320.981 57.2902 321.585 58.0899C322.201 58.8962 322.795 59.7157 323.39 60.5397C323.937 61.2899 324.474 62.0465 325.003 62.8092C325.594 63.6602 326.175 64.5182 326.747 65.3828C327.245 66.1416 327.736 66.9056 328.218 67.675C328.777 68.5632 329.341 69.4469 329.879 70.3474C330.341 71.1245 330.782 71.9139 331.23 72.7013C332.19 74.3794 333.112 76.0791 333.994 77.7992C334.397 78.5742 334.809 79.346 335.193 80.1379C335.671 81.1129 336.121 82.1057 336.577 83.0931C336.94 83.885 337.305 84.6773 337.655 85.4791C338.09 86.4829 338.514 87.4918 338.926 88.5055C339.253 89.3124 339.573 90.1226 339.884 90.9359C340.281 91.9629 340.666 92.9941 341.04 94.0294C341.33 94.8489 341.6 95.6753 341.876 96.5018C342.226 97.5509 342.587 98.5931 342.911 99.6521C344.405 98.6458 345.967 97.7446 347.585 96.955C346.285 92.844 344.806 88.7804 343.113 84.7785C336.119 68.2413 326.117 53.3945 313.369 40.6517C300.614 27.9061 285.772 17.8831 269.242 10.9013C252.119 3.66228 233.927 -0.000444708 215.195 -0.000444708C196.464 -0.000444708 178.287 3.66228 161.165 10.9013C144.638 17.8831 129.788 27.9061 117.038 40.6517C104.293 53.3945 94.2851 68.2413 87.2885 84.7785C85.5508 88.8983 84.0133 93.0998 82.6816 97.3682C84.8277 97.148 86.7802 96.95 88.4332 96.7792Z" fill="#071D3D"/>
<path d="M341.989 180.781C339.819 187.34 337.14 193.719 333.977 199.86C333.938 199.934 333.9 200.009 333.863 200.085C333.093 201.574 332.294 203.048 331.469 204.508C331.449 204.542 331.428 204.58 331.407 204.614C328.107 210.429 324.375 215.988 320.244 221.245C320.076 221.46 319.905 221.678 319.732 221.894C318.803 223.065 317.854 224.22 316.884 225.359C316.685 225.591 316.481 225.824 316.279 226.059C313.197 229.627 309.929 233.031 306.49 236.258C306.303 236.434 306.123 236.614 305.934 236.787C304.971 237.678 303.988 238.547 303.002 239.411C302.543 239.809 302.089 240.21 301.626 240.601C300.689 241.398 299.741 242.182 298.782 242.952C298.248 243.381 297.71 243.805 297.167 244.222C296.221 244.96 295.274 245.699 294.306 246.412C293.773 246.806 293.225 247.177 292.688 247.563C290.995 248.77 289.276 249.938 287.531 251.068C286.78 251.55 286.037 252.043 285.274 252.513C284.414 253.038 283.548 253.554 282.676 254.059C281.848 254.549 281.015 255.028 280.176 255.498C279.328 255.972 278.475 256.436 277.617 256.891C276.691 257.379 275.758 257.856 274.819 258.321C274.02 258.725 273.225 259.128 272.417 259.514C271.056 260.159 269.682 260.778 268.298 261.373C267.512 261.716 266.722 262.05 265.928 262.375C264.565 262.935 263.192 263.486 261.804 264.001C261.075 264.271 260.336 264.523 259.604 264.781C258.436 265.2 257.26 265.598 256.078 265.976C255.321 266.221 254.56 266.458 253.797 266.686C252.545 267.062 251.288 267.418 250.026 267.756C249.344 267.941 248.666 268.134 247.979 268.307C246.089 268.787 244.19 269.227 242.281 269.624C242.09 269.664 241.9 269.693 241.71 269.733C239.861 270.103 238.005 270.435 236.142 270.728C235.482 270.832 234.819 270.919 234.158 271.01C232.76 271.212 231.359 271.39 229.955 271.545C229.226 271.623 228.497 271.698 227.767 271.77C226.329 271.9 224.889 272.008 223.448 272.094C222.795 272.134 222.141 272.183 221.486 272.215C219.401 272.309 217.307 272.376 215.195 272.376C213.146 272.376 211.107 272.309 209.078 272.22C208.543 272.193 208.01 272.168 207.477 272.139C205.681 272.034 203.894 271.901 202.12 271.73C201.875 271.706 201.627 271.691 201.384 271.666C199.414 271.46 197.449 271.21 195.491 270.916C194.981 270.839 194.471 270.755 193.962 270.676C192.337 270.416 190.717 270.128 189.103 269.81C188.727 269.733 188.35 269.669 187.976 269.59C186.084 269.197 184.2 268.762 182.327 268.285C181.852 268.169 181.384 268.038 180.913 267.914C179.392 267.511 177.882 267.08 176.384 266.624C175.937 266.491 175.487 266.359 175.045 266.221C173.234 265.653 171.436 265.045 169.652 264.397C169.234 264.243 168.823 264.08 168.407 263.927C166.965 263.388 165.532 262.824 164.109 262.234C163.623 262.034 163.135 261.833 162.653 261.625C160.935 260.892 159.232 260.122 157.546 259.316C157.201 259.15 156.865 258.977 156.522 258.803C155.129 258.123 153.75 257.417 152.384 256.685C151.879 256.416 151.373 256.148 150.873 255.868C149.254 254.983 147.654 254.064 146.073 253.112C145.841 252.971 145.616 252.822 145.385 252.681C143.487 251.507 141.616 250.289 139.775 249.028C138.486 248.146 137.213 247.24 135.956 246.313C135.684 246.11 135.409 245.924 135.141 245.722C133.701 244.64 132.294 243.524 130.899 242.388C130.409 241.989 129.923 241.584 129.44 241.176C128.365 240.273 127.304 239.354 126.258 238.418C125.883 238.085 125.502 237.758 125.131 237.416C123.827 236.223 122.547 235.003 121.292 233.758C120.837 233.308 120.391 232.85 119.941 232.392C119.014 231.451 118.103 230.494 117.207 229.523C116.798 229.081 116.382 228.646 115.979 228.194C114.807 226.899 113.662 225.579 112.547 224.235C112.14 223.747 111.745 223.248 111.345 222.755C110.538 221.757 109.744 220.747 108.966 219.726C108.561 219.194 108.156 218.672 107.758 218.134C106.724 216.736 105.716 215.319 104.734 213.883C104.395 213.38 104.069 212.87 103.738 212.368C103.023 211.288 102.323 210.197 101.64 209.096C101.27 208.5 100.9 207.903 100.541 207.302C99.6418 205.806 98.7714 204.293 97.9305 202.763C96.6188 203.723 95.1153 204.634 93.4187 205.493C99.7321 217.018 107.633 227.574 117.038 236.986C129.788 249.733 144.638 259.739 161.164 266.728C178.287 273.967 196.464 277.633 215.195 277.633C233.927 277.633 252.119 273.967 269.242 266.728C285.772 259.742 300.614 249.733 313.369 236.986C326.117 224.23 336.119 209.386 343.113 192.856C344.876 188.691 346.416 184.456 347.754 180.175C345.857 180.373 343.931 180.576 341.989 180.781Z" fill="#071D3D"/>
<path d="M136.015 51.2048L135.226 50.3434C134.701 49.7816 134.217 49.4301 133.769 49.2992C133.313 49.1629 132.927 49.242 132.615 49.5243C132.154 49.9622 131.938 50.3582 131.97 50.7467C132.012 51.1377 132.243 51.5711 132.683 52.056L138.797 58.7184C139.157 59.1069 139.528 59.337 139.892 59.3642C140.259 59.4111 140.642 59.2427 141.033 58.8793C141.288 58.6542 141.44 58.4089 141.493 58.1319C141.541 57.8703 141.516 57.6007 141.421 57.3523C141.329 57.0829 141.194 56.8298 141.023 56.6024C140.846 56.3674 140.65 56.1171 140.42 55.8821L139.287 54.6445L142.45 51.744L143.97 53.39C145.092 54.6099 145.601 55.9192 145.511 57.2951C145.417 58.6813 144.587 60.0968 143.035 61.5201C141.617 62.8194 140.259 63.3981 138.956 63.2644C137.65 63.1285 136.344 62.3589 135.04 60.9484L129.959 55.4191C128.61 53.9617 127.971 52.5684 128.009 51.2345C128.061 49.903 128.801 48.5591 130.241 47.2371C131.627 45.953 132.991 45.292 134.305 45.2327C135.628 45.1833 136.904 45.8217 138.132 47.1709L139.178 48.2916L136.015 51.2048Z" fill="#071D3D"/>
<path d="M153.491 52.2617L143.74 36.7889L147.367 34.4996L151.115 40.4417L153.64 38.8579L149.885 32.9179L153.525 30.6216L163.269 46.1093L159.641 48.3837L155.574 41.949L153.059 43.5282L157.122 49.9725L153.491 52.2617Z" fill="#071D3D"/>
<path d="M170.131 26.4731L170.087 26.4928L171.954 34.5707L174.274 33.645L170.131 26.4731ZM169.547 42.8296L166.5 24.3521L171.306 22.449L181.769 37.9663L177.729 39.5653L175.851 36.4911L172.721 37.7362L173.561 41.2306L169.547 42.8296Z" fill="#071D3D"/>
<path d="M190.295 25.2507L190.258 25.305L192.614 35.2317L188.623 36.019L185.087 18.0709L189.414 17.2222L194.641 26.6068L194.72 26.597L192.338 16.6456L196.321 15.8537L199.863 33.8014L195.555 34.6555L190.295 25.2507Z" fill="#071D3D"/>
<path d="M216.298 32.9055L216.099 31.2867H216.042C215.605 32.0515 215.124 32.5886 214.583 32.8977C214.044 33.2023 213.299 33.3558 212.361 33.3681C211.489 33.3706 210.732 33.2521 210.111 32.9722C209.513 32.7095 208.993 32.2949 208.604 31.7695C208.212 31.2447 207.934 30.6409 207.754 29.9404C207.587 29.2325 207.5 28.4682 207.486 27.5944L207.397 20.0878C207.379 18.1031 207.819 16.6383 208.747 15.6702C209.674 14.7079 211.117 14.2177 213.085 14.193C214.975 14.163 216.418 14.5816 217.433 15.4179C218.444 16.2596 218.956 17.5956 218.985 19.4149L218.999 20.7785L214.698 20.8328L214.683 19.8207C214.683 18.9868 214.583 18.3801 214.401 18.0167C214.215 17.6751 213.858 17.4993 213.323 17.4771C212.686 17.4993 212.25 17.6504 212.021 17.9595C211.795 18.269 211.677 18.7563 211.693 19.405L211.795 28.4505C211.801 28.9876 211.934 29.386 212.187 29.6609C212.46 29.9429 212.859 30.0791 213.395 30.0692C213.735 30.059 214.01 29.9947 214.23 29.8639C214.434 29.7326 214.583 29.5519 214.683 29.3539C214.771 29.1259 214.837 28.8933 214.857 28.6489C214.874 28.3887 214.885 28.0792 214.885 27.7055L214.871 26.2629L213.332 26.2851L213.284 22.9912L219.116 22.927L219.23 32.8734L216.298 32.9055Z" fill="#071D3D"/>
<path d="M240.269 30.2866L240.326 30.299L244.122 17.9867L248.107 18.7712L241.592 36.125L236.851 35.1845L238.044 22.3076L238.001 22.2932L234.119 34.6548L229.457 33.7316L229.971 15.1998L234.044 15.9971L232.828 28.8563L232.885 28.807L237.058 16.5836L241.124 17.3878L240.269 30.2866Z" fill="#071D3D"/>
<path d="M263.119 30.104C263.261 29.7801 263.379 29.4903 263.449 29.2252C263.522 28.9795 263.558 28.7245 263.556 28.4683C263.556 28.2181 263.495 27.9855 263.367 27.7629C263.229 27.5521 263.016 27.3916 262.697 27.2529C262.396 27.1171 262.132 27.087 261.872 27.1368C261.62 27.1961 261.41 27.2978 261.226 27.478C261.037 27.6671 260.872 27.8781 260.733 28.1065C260.577 28.3657 260.438 28.6345 260.315 28.9112L257.37 35.8209C257.254 36.0972 257.15 36.3788 257.06 36.6647C256.99 36.9444 256.948 37.2306 256.937 37.5187C256.937 37.8007 257.001 38.0509 257.132 38.2884C257.263 38.5259 257.479 38.7016 257.767 38.8305C258.071 38.9539 258.351 38.9885 258.61 38.9268C258.863 38.8632 259.091 38.7232 259.262 38.5259C259.451 38.3239 259.615 38.1006 259.752 37.8604C259.893 37.613 260.032 37.3331 260.169 37.0187L263.119 30.104ZM264.257 38.3699C263.414 40.3402 262.389 41.6194 261.184 42.2063C259.978 42.8101 258.41 42.6834 256.475 41.8598C254.544 41.0205 253.347 39.964 252.934 38.6671C252.521 37.3776 252.728 35.7464 253.562 33.7893L256.484 26.9586C257.174 25.3349 258.178 24.3055 259.482 23.8351C260.787 23.3597 262.29 23.4935 264.013 24.2384C265.736 24.9636 266.87 25.9609 267.401 27.2233C267.944 28.4753 267.87 29.9134 267.187 31.5322L264.257 38.3699Z" fill="#071D3D"/>
<path d="M277.674 41.0329L277.608 41.0452L272.283 49.7421L268.889 47.4948L279.031 32.2718L282.701 34.7096L279.799 45.0545L279.856 45.1018L285.179 36.3654L288.572 38.6296L278.426 53.8477L274.778 51.4053L277.674 41.0329Z" fill="#071D3D"/>
<path d="M123.936 61.4604L125.412 65.7421L129.194 63.2672L127.572 67.4868L132.065 68.024L128.1 70.2165L131.201 73.5129L126.76 72.6469L127.009 77.1662L124.163 73.6417L121.449 77.26L121.537 72.7338L117.133 73.7804L120.1 70.3626L116.059 68.3158L120.533 67.6132L118.755 63.4578L122.633 65.7915L123.936 61.4604Z" fill="#071D3D"/>
<path d="M294.424 48.0816L295.891 52.363L299.681 49.891L298.057 54.1081L302.549 54.6448L298.587 56.8427L301.685 60.1342L297.241 59.2707L297.495 63.787L294.644 60.263L291.939 63.8862L292.021 59.3645L287.619 60.3993L290.586 56.9835L286.551 54.942L291.024 54.2291L289.239 50.0762L293.11 52.4124L294.424 48.0816Z" fill="#071D3D"/>
<path d="M154.47 237.069L158.441 234.872L153.937 234.33L155.565 230.107L151.783 232.593L150.316 228.316L149.001 232.632L145.127 230.301L146.91 234.466L142.439 235.174L146.472 237.21L143.505 240.628L147.908 239.591L147.826 244.118L150.531 240.492L153.381 244.011L153.131 239.495L157.573 240.358L154.47 237.069Z" fill="#071D3D"/>
<path d="M300.433 219.263L302.071 215.051L298.275 217.525L296.8 213.244L295.496 217.575L291.627 215.231L293.407 219.399L288.933 220.109L292.964 222.146L289.994 225.551L294.397 224.519L294.319 229.044L297.03 225.423L299.874 228.942L299.626 224.423L304.063 225.292L300.968 221.995L304.931 219.802L300.433 219.263Z" fill="#071D3D"/>
<path d="M167.826 235.075L177.537 239.225L176.049 242.712L170.606 240.391L169.411 243.19L174.509 245.368L173.076 248.719L167.978 246.541L166.588 249.803L172.234 252.216L170.746 255.706L160.828 251.466L167.826 235.075Z" fill="#071D3D"/>
<path d="M188.449 247.722L188.552 247.305C188.806 246.291 188.606 245.341 187.735 245.12C186.764 244.878 186.141 245.521 185.947 246.296C185.093 249.714 192.876 249.884 191.294 256.21C190.37 259.896 187.802 260.999 183.828 260.007C180.097 259.071 178.334 257.267 179.231 253.678L179.383 253.075L183.744 254.166L183.641 254.574C183.271 256.055 183.744 256.742 184.616 256.96C185.537 257.19 186.252 256.596 186.488 255.651C187.344 252.233 179.842 252.159 181.378 246.029C182.251 242.539 184.597 241.089 188.4 242.042C192.327 243.027 193.593 245.066 192.665 248.776L188.449 247.722Z" fill="#071D3D"/>
<path d="M201.771 248.855L198.29 248.531L198.654 244.603L210.241 245.672L209.88 249.602L206.396 249.281L205.118 263.107L200.491 262.682L201.771 248.855Z" fill="#071D3D"/>
<path d="M213.195 258.512L217.393 258.443L217.475 263.39L213.276 263.457L213.195 258.512Z" fill="#071D3D"/>
<path d="M228.817 250.993C228.516 249.196 228.473 247.709 229.124 246.523C229.775 245.34 231.091 244.494 233.453 244.068C238.02 243.244 239.436 245.197 239.906 247.8C240.332 250.159 239.744 251.812 238.677 253.349L236.447 256.465C236.124 256.93 235.653 257.547 235.575 258.093L241.569 257.012L242.19 260.454L230.74 262.516C230.309 260.11 230.524 257.787 232.143 255.391L234.632 251.743C235.356 250.701 235.584 249.975 235.345 248.674C235.079 247.201 234.529 246.818 233.818 246.947C233.179 247.061 232.601 247.518 232.956 249.486L233.09 250.221L228.817 250.993Z" fill="#071D3D"/>
<path d="M252.356 251.508C253.19 253.889 253.789 254.391 254.707 254.069C255.63 253.75 255.781 252.98 254.948 250.599L253.016 245.086C252.184 242.705 251.584 242.2 250.666 242.521C249.745 242.843 249.591 243.61 250.424 245.991L252.356 251.508ZM249.709 239.787C253.618 238.416 256.004 239.567 258.366 246.306C260.726 253.049 259.579 255.435 255.665 256.807C251.754 258.175 249.368 257.024 247.008 250.285C244.647 243.544 245.796 241.158 249.709 239.787Z" fill="#071D3D"/>
<path d="M271.744 249.498L266.029 238.901L263.084 240.492L261.709 237.938C264.204 236.565 264.988 235.49 264.495 233.315L267.44 231.729L275.835 247.295L271.744 249.498Z" fill="#071D3D"/>
<path d="M286.129 240.747L279.042 231.016L276.339 232.986L274.632 230.645C276.919 228.949 277.551 227.776 276.772 225.69L279.476 223.718L289.887 238.01L286.129 240.747Z" fill="#071D3D"/>
<path d="M304.755 179.653C303.577 180.571 302.349 181.423 301.075 182.205C297.184 189.89 292.279 197.019 286.493 203.401C285.43 204.573 284.34 205.72 283.223 206.841C282.229 207.828 281.214 208.794 280.181 209.74C280.081 209.834 279.986 209.928 279.884 210.019C279.565 210.314 279.226 210.584 278.902 210.871C261.934 225.883 239.64 235.013 215.206 235.013H215.204C188.631 235.013 164.596 224.245 147.177 206.841C145.968 205.631 144.802 204.382 143.66 203.109C143.591 203.219 143.502 203.293 143.369 203.305C142.951 203.347 142.144 203.436 141.065 203.545C141.067 203.55 141.072 203.555 141.074 203.56C148.945 212.564 158.428 220.125 169.072 225.789C169.203 225.856 169.338 225.923 169.47 225.99C170.804 226.693 172.154 227.365 173.518 228.006C173.84 228.158 174.168 228.296 174.489 228.442C175.677 228.985 176.875 229.504 178.083 229.999C178.526 230.18 178.974 230.35 179.42 230.526C180.53 230.96 181.648 231.375 182.773 231.768C183.296 231.952 183.822 232.127 184.351 232.303C185.421 232.655 186.498 232.988 187.579 233.303C188.162 233.474 188.745 233.644 189.334 233.802C190.38 234.087 191.436 234.35 192.495 234.6C193.123 234.748 193.747 234.897 194.376 235.033C195.423 235.26 196.48 235.458 197.538 235.651C198.186 235.768 198.832 235.894 199.484 235.998C200.563 236.169 201.65 236.31 202.739 236.446C203.381 236.53 204.017 236.624 204.661 236.693C205.838 236.817 207.027 236.906 208.214 236.985C208.779 237.028 209.336 237.084 209.902 237.117C211.657 237.21 213.424 237.263 215.202 237.263C216.721 237.263 218.228 237.213 219.73 237.146C220.153 237.129 220.574 237.104 220.995 237.08C222.183 237.008 223.366 236.919 224.54 236.807C224.883 236.777 225.227 236.753 225.567 236.716C227.029 236.562 228.481 236.377 229.923 236.161C230.253 236.111 230.581 236.052 230.91 236C232.061 235.815 233.204 235.609 234.34 235.389C234.761 235.303 235.178 235.221 235.595 235.134C236.919 234.858 238.237 234.554 239.549 234.224C239.65 234.199 239.754 234.177 239.854 234.147C241.241 233.793 242.608 233.395 243.971 232.981C245.42 232.533 246.859 232.056 248.288 231.548C248.655 231.414 249.025 231.291 249.388 231.155C250.691 230.674 251.983 230.164 253.262 229.625C253.599 229.489 253.928 229.336 254.263 229.192C255.244 228.767 256.219 228.326 257.186 227.871C257.613 227.668 258.04 227.465 258.463 227.259C259.508 226.747 260.543 226.216 261.569 225.665C261.794 225.546 262.023 225.435 262.246 225.314C263.429 224.666 264.598 223.994 265.753 223.297C266.173 223.044 266.589 222.785 267.005 222.53C267.822 222.02 268.633 221.499 269.438 220.968C269.834 220.703 270.232 220.451 270.622 220.184C271.71 219.442 272.784 218.679 273.843 217.895C274.202 217.63 274.551 217.35 274.905 217.078C275.66 216.501 276.407 215.914 277.145 215.316C277.571 214.974 277.996 214.627 278.417 214.271C279.164 213.643 279.902 213.004 280.629 212.353C280.982 212.041 281.341 211.732 281.688 211.413C282.592 210.583 283.48 209.735 284.351 208.871C284.756 208.472 285.153 208.067 285.552 207.661C286.141 207.056 286.724 206.446 287.3 205.829C287.685 205.409 288.076 204.998 288.456 204.575C289.299 203.637 290.126 202.681 290.933 201.711C291.273 201.303 291.599 200.887 291.932 200.472C292.466 199.809 292.992 199.14 293.508 198.464C293.882 197.974 294.252 197.479 294.617 196.982C295.119 196.294 295.614 195.6 296.1 194.9C296.464 194.376 296.828 193.856 297.183 193.324C297.816 192.372 298.434 191.409 299.036 190.436C299.36 189.906 299.676 189.369 299.992 188.835C300.391 188.159 300.782 187.479 301.167 186.795C301.471 186.248 301.778 185.704 302.071 185.154C302.63 184.111 303.169 183.057 303.69 181.994C303.721 181.93 303.754 181.867 303.786 181.801C304.086 181.075 304.409 180.358 304.755 179.653Z" fill="#071D3D"/>
<path d="M121.48 117.187C125.586 99.311 134.64 83.3311 147.176 70.7908C155.885 62.0816 166.252 55.0435 177.76 50.1777C189.269 45.3069 201.923 42.6143 215.205 42.6143C254.573 42.6143 288.397 66.2765 303.283 100.143C304.078 100.058 304.867 99.977 305.647 99.8951C304.85 98.0466 303.99 96.2377 303.088 94.4506C302.835 93.9579 302.587 93.4632 302.33 92.973C301.947 92.2486 301.556 91.5292 301.155 90.815C300.884 90.3309 300.608 89.8499 300.326 89.372C299.424 87.821 298.481 86.2943 297.498 84.7935C297.392 84.6301 297.288 84.4593 297.178 84.2963C296.737 83.6303 296.276 82.9821 295.817 82.326C295.483 81.8459 295.144 81.3691 294.8 80.8958C294.338 80.2628 293.87 79.635 293.394 79.0123C293.022 78.5297 292.645 78.0512 292.263 77.5771C291.604 76.7442 290.93 75.9222 290.243 75.1117C289.662 74.4289 289.079 73.7432 288.48 73.0752C287.993 72.538 287.496 72.0108 286.998 71.4815C286.543 70.993 286.082 70.5095 285.615 70.0311C285.114 69.5165 284.607 69.0075 284.095 68.5041C283.578 67.9989 283.054 67.5006 282.524 67.0092C282.025 66.5367 281.528 66.0637 281.018 65.6036C280.112 64.7911 279.193 63.994 278.26 63.2127C277.769 62.8069 277.27 62.4109 276.775 62.0125C276.169 61.5262 275.557 61.046 274.941 60.5719C274.434 60.1834 273.928 59.8023 273.413 59.4236C272.704 58.9032 271.988 58.3933 271.264 57.8941C270.841 57.5998 270.426 57.3002 269.998 57.0109C268.911 56.2828 267.809 55.5763 266.693 54.892C266.225 54.6055 265.748 54.3306 265.274 54.0482C264.51 53.5942 263.74 53.1511 262.963 52.7192C262.474 52.4457 261.982 52.176 261.489 51.91C260.563 51.4185 259.629 50.9407 258.689 50.4769C258.36 50.3139 258.039 50.1456 257.709 49.9871C256.473 49.3957 255.224 48.8304 253.965 48.2918C253.52 48.1037 253.071 47.923 252.625 47.7374C251.712 47.3627 250.793 47.0014 249.869 46.6536C249.403 46.4779 248.94 46.3022 248.471 46.1338C247.324 45.7218 246.17 45.3315 245.008 44.9633C244.797 44.8962 244.587 44.8221 244.378 44.7529C243.012 44.3341 241.636 43.9445 240.253 43.5844C239.825 43.4708 239.395 43.3696 238.963 43.263C237.932 43.0057 236.897 42.7658 235.852 42.5427C235.403 42.4464 234.958 42.3521 234.507 42.2608C233.163 41.9932 231.812 41.7483 230.451 41.538C230.349 41.5207 230.252 41.501 230.151 41.4862C228.695 41.2631 227.223 41.0853 225.746 40.9268C225.309 40.8774 224.872 40.8453 224.437 40.8005C223.329 40.6967 222.217 40.6124 221.097 40.5506C220.652 40.5206 220.203 40.4938 219.756 40.4712C218.246 40.4045 216.729 40.3601 215.202 40.3601C160.833 40.3699 116.756 84.435 116.756 138.81C116.756 139.765 116.801 140.708 116.828 141.656C117.457 140.112 118.225 138.615 119.058 137.149C119.178 130.299 120.002 123.619 121.48 117.187Z" fill="#071D3D"/>
<path d="M225.893 75.4084L243.696 73.4616C244.153 73.4114 244.569 72.9932 244.626 72.5269L245.861 62.3853C245.917 61.919 245.593 61.5815 245.137 61.6313L221.849 64.1778C221.488 64.2177 221.124 64.4071 220.842 64.7018L213.492 72.3898L207.84 66.1234C207.624 65.883 207.296 65.7698 206.935 65.8089L185.388 68.1653C185.026 68.2048 184.661 68.3945 184.38 68.6905L177.443 75.9645C177.18 76.2406 177.009 76.5872 176.967 76.9325L173.502 105.386C173.446 105.852 173.77 106.19 174.226 106.14L184.154 105.054C184.61 105.005 185.026 104.586 185.083 104.12L187.885 81.0994C187.979 80.3302 188.665 79.64 189.419 79.5576L199.994 78.4011C200.747 78.3188 201.282 78.8756 201.188 79.6449L198.385 102.665C198.328 103.131 198.652 103.469 199.109 103.419L209.036 102.333C209.492 102.283 209.908 101.865 209.965 101.399L210.761 94.8626L216.409 101.115C216.625 101.355 216.952 101.468 217.314 101.428L240.601 98.8817C241.058 98.8319 241.474 98.4133 241.531 97.947L242.765 87.8055C242.822 87.3391 242.498 87.0016 242.041 87.0514L224.239 88.9982C223.486 89.0806 222.951 88.5237 223.045 87.7544L224.36 76.9506C224.454 76.181 225.14 75.4907 225.893 75.4084Z" fill="#071D3D"/>
</g>
</g>
<defs>
<clipPath id="clip0_1484_230">
<rect width="412" height="277.822" fill="white"/>
</clipPath>
</defs>
</svg>
