<svg width="355" height="268" viewBox="0 0 355 268" fill="none" xmlns="http://www.w3.org/2000/svg">
<g clip-path="url(#clip0_1484_193)">
<path d="M183.263 265.023C128.377 265.741 80.7914 232.525 60.5075 184.87C61.3946 184.511 62.243 184.045 63.056 183.504C82.7968 230.269 129.364 262.824 183.224 262.114C241.539 261.325 290.259 221.864 305.301 168.461C306.205 168.802 307.144 169.04 308.1 169.172C292.702 223.758 242.812 264.216 183.263 265.023ZM50.0728 135.299C49.1368 62.8498 107.34 3.09243 179.817 2.09144C250.969 1.20547 309.841 57.2584 312.883 127.826C311.935 127.588 310.955 127.458 309.957 127.445C306.724 58.5429 249.384 4.13439 179.854 4.99986C108.839 5.98035 52.0657 64.2744 52.9847 135.262C53.0246 138.269 53.176 141.248 53.4197 144.201C52.4404 144.371 51.4834 144.651 50.5671 145.036C50.2821 141.798 50.1172 138.55 50.0728 135.299ZM325.998 148.355C325.998 139.165 321.393 131.377 315 128.565C312.337 56.4908 252.348 -0.892144 179.79 0.0120451C106.166 1.02897 47.0426 61.7303 47.9923 135.326C48.0413 138.95 48.2405 142.539 48.5753 146.086C43.1479 149.474 39.3979 156.618 39.3979 164.909C39.3979 176.466 46.6668 185.834 55.6335 185.834C56.6163 185.834 57.574 185.703 58.51 185.486C79.0661 234.001 127.46 267.837 183.292 267.102C243.959 266.282 294.76 224.946 310.241 169.249C318.984 168.92 325.998 159.703 325.998 148.355Z" fill="#BEC0C2"/>
<path d="M95.3635 108.516C109.212 61.1106 158.89 33.8893 206.327 47.7493C253.747 61.5957 280.953 111.266 267.106 158.687C253.25 206.095 203.57 233.3 156.14 219.455C108.728 205.599 81.508 155.94 95.3635 108.516Z" fill="white"/>
<path d="M229.137 73.0941L231.775 64.0272L234.224 62.9601L225.164 58.2069C224.336 57.7605 223.682 58.0395 223.457 58.4756L223.187 59.0496C222.948 59.5153 223.218 60.2419 223.955 60.6256L230.995 64.3392L228.591 65.4005L226.625 72.3277C226.38 73.1305 226.705 73.8184 227.212 73.9881L227.79 74.1646C228.249 74.3012 228.891 74.0017 229.137 73.0941Z" fill="#BEC0C2"/>
<path d="M219.881 76.2791L223.118 67.4411L225.623 66.5585L216.916 61.1539C216.116 60.654 215.449 60.8829 215.192 61.3019L214.885 61.8338C214.619 62.3018 214.83 63.0352 215.542 63.4724L222.313 67.6814L219.852 68.5662L217.397 75.326C217.11 76.1231 217.383 76.8348 217.866 77.0319L218.442 77.2482C218.897 77.4213 219.557 77.1628 219.881 76.2791Z" fill="#BEC0C2"/>
<path d="M210.408 78.7801L214.234 70.2086L216.81 69.4991L208.48 63.4852C207.722 62.9352 207.036 63.1015 206.755 63.5057L206.4 64.033C206.114 64.4646 206.274 65.2116 206.952 65.7001L213.418 70.3885L210.908 71.0957L207.999 77.6607C207.658 78.4328 207.888 79.1594 208.352 79.3962L208.912 79.6513C209.358 79.8586 210.037 79.6479 210.408 78.7801Z" fill="#BEC0C2"/>
<path d="M200.788 80.6088L205.194 72.3219L207.803 71.8004L199.903 65.208C199.197 64.5885 198.498 64.7251 198.183 65.1157L197.797 65.5986C197.469 66.0051 197.59 66.7727 198.235 67.3011L204.374 72.4426L201.809 72.9744L198.461 79.3163C198.07 80.0428 198.245 80.7956 198.703 81.045L199.243 81.3661C199.667 81.5916 200.355 81.447 200.788 80.6088Z" fill="#BEC0C2"/>
<path d="M191.066 81.7228L196.034 73.7787L198.673 73.4576L191.223 66.2992C190.558 65.6376 189.865 65.715 189.524 66.0783L189.106 66.5373C188.754 66.9313 188.826 67.6908 189.419 68.2693L195.199 73.8425L192.607 74.1864L188.845 80.2538C188.399 80.9792 188.524 81.7377 188.943 82.0235L189.475 82.3594C189.879 82.6304 190.574 82.52 191.066 81.7228Z" fill="#BEC0C2"/>
<path d="M181.301 82.1224L186.777 74.5643L189.452 74.4436L182.507 66.7671C181.887 66.0645 181.163 66.0816 180.818 66.4175L180.36 66.8468C179.995 67.2112 180.004 67.9833 180.563 68.5926L185.948 74.5825L183.347 74.7306L179.167 80.5178C178.677 81.1886 178.754 81.9504 179.167 82.275L179.657 82.6565C180.043 82.9446 180.75 82.8979 181.301 82.1224Z" fill="#BEC0C2"/>
<path d="M171.515 81.8328L177.504 74.6893L180.173 74.7451L173.772 66.5937C173.196 65.8421 172.48 65.8205 172.108 66.1268L171.633 66.5254C171.232 66.8591 171.191 67.63 171.711 68.2802L176.665 74.6403L174.052 74.597L169.51 80.0689C168.97 80.6998 168.988 81.4684 169.372 81.8249L169.842 82.2371C170.198 82.5617 170.909 82.5571 171.515 81.8328Z" fill="#BEC0C2"/>
<path d="M161.772 80.8264L168.235 74.1372L170.895 74.382L165.058 65.7922C164.542 65.0076 163.839 64.9302 163.448 65.2046L162.937 65.5679C162.507 65.8651 162.412 66.6418 162.897 67.3262L167.402 74.0165L164.812 73.7944L159.89 78.9121C159.307 79.5111 159.278 80.2889 159.643 80.6761L160.077 81.0985C160.425 81.4538 161.124 81.5096 161.772 80.8264Z" fill="#BEC0C2"/>
<path d="M152.117 79.1179L159.02 72.9241L161.658 73.3592L156.427 64.3651C155.96 63.5417 155.261 63.4119 154.847 63.6659L154.31 63.9768C153.875 64.2615 153.739 65.0165 154.162 65.7362L158.207 72.7408L155.624 72.324L150.369 77.0887C149.755 77.6307 149.672 78.396 150.009 78.7934L150.414 79.2774C150.731 79.6486 151.436 79.7534 152.117 79.1179Z" fill="#BEC0C2"/>
<path d="M142.607 76.7167L149.917 71.0319L152.509 71.6582L147.898 62.3191C147.505 61.4502 146.806 61.2794 146.377 61.4969L145.829 61.7805C145.375 62.0265 145.184 62.761 145.556 63.5183L149.12 70.8019L146.568 70.1881L141.002 74.5576C140.343 75.0643 140.218 75.825 140.521 76.2441L140.893 76.7497C141.183 77.154 141.888 77.3043 142.607 76.7167Z" fill="#BEC0C2"/>
<path d="M133.284 73.6419L140.961 68.4946L143.512 69.3179L139.548 59.6497C139.197 58.7763 138.523 58.5474 138.077 58.7353L137.511 58.9721C137.044 59.1817 136.787 59.9059 137.121 60.6894L140.173 68.1962L137.691 67.4184L131.826 71.3712C131.135 71.8221 130.939 72.568 131.229 73.0247L131.567 73.5405C131.826 73.9562 132.517 74.1623 133.284 73.6419Z" fill="#BEC0C2"/>
<path d="M124.18 69.8872L132.198 65.3036L134.678 66.316L131.383 56.4017C131.098 55.4896 130.445 55.2072 129.974 55.3666L129.401 55.5682C128.917 55.7481 128.614 56.453 128.89 57.2433L131.428 64.9665L128.987 63.9963L122.889 67.5196C122.17 67.9193 121.936 68.6516 122.172 69.1071L122.474 69.6594C122.712 70.1092 123.381 70.3529 124.18 69.8872ZM128.112 196.058L126.752 204.722L124.557 206.044L133.725 209.206C134.559 209.507 135.147 209.169 135.299 208.73L135.495 208.179C135.654 207.72 135.322 207.101 134.572 206.831L127.445 204.345L129.579 203.048L130.601 196.435C130.722 195.658 130.329 195.065 129.841 194.986L129.263 194.893C128.804 194.828 128.229 195.194 128.112 196.058Z" fill="#BEC0C2"/>
<path d="M136.496 191.912L134.516 200.47L132.247 201.618L141.165 205.423C141.98 205.784 142.588 205.487 142.777 205.062L143.003 204.519C143.203 204.071 142.904 203.42 142.179 203.109L135.241 200.128L137.475 198.99L138.939 192.46C139.128 191.701 138.778 191.082 138.279 190.958L137.719 190.836C137.275 190.733 136.68 191.057 136.496 191.912Z" fill="#BEC0C2"/>
<path d="M145.139 188.365L142.57 196.753L140.231 197.73L148.863 202.164C149.651 202.58 150.273 202.324 150.495 201.92L150.754 201.407C150.982 200.957 150.737 200.291 150.036 199.936L143.325 196.477L145.623 195.499L147.56 189.087C147.79 188.33 147.485 187.69 147.015 187.542L146.454 187.38C146.008 187.244 145.386 187.527 145.139 188.365Z" fill="#BEC0C2"/>
<path d="M154.021 185.439L150.884 193.618L148.465 194.445L156.77 199.466C157.522 199.925 158.163 199.726 158.406 199.339L158.715 198.826C158.966 198.407 158.764 197.728 158.093 197.317L151.648 193.398L153.999 192.579L156.381 186.321C156.665 185.584 156.403 184.926 155.949 184.735L155.395 184.54C154.963 184.376 154.324 184.613 154.021 185.439Z" fill="#BEC0C2"/>
<path d="M163.088 183.127L159.381 191.075L156.922 191.727L164.841 197.311C165.557 197.843 166.216 197.675 166.489 197.291L166.827 196.821C167.114 196.425 166.956 195.721 166.31 195.274L160.149 190.913L162.563 190.259L165.381 184.168C165.708 183.476 165.503 182.787 165.053 182.585L164.517 182.327C164.1 182.141 163.45 182.324 163.088 183.127Z" fill="#BEC0C2"/>
<path d="M172.292 181.465L168.027 189.134L165.532 189.606L173.05 195.744C173.729 196.313 174.387 196.204 174.688 195.835L175.058 195.386C175.372 195.001 175.261 194.306 174.656 193.801L168.82 189.016L171.271 188.541L174.499 182.681C174.879 181.985 174.715 181.291 174.299 181.053L173.775 180.778C173.369 180.55 172.714 180.695 172.292 181.465Z" fill="#BEC0C2"/>
<path d="M181.586 180.459L176.807 187.81L174.262 188.099L181.34 194.747C181.972 195.361 182.66 195.296 182.974 194.965L183.38 194.54C183.708 194.18 183.656 193.458 183.085 192.934L177.599 187.742L180.063 187.435L183.709 181.818C184.137 181.163 184.02 180.456 183.608 180.189L183.12 179.864C182.728 179.621 182.063 179.717 181.586 180.459Z" fill="#BEC0C2"/>
<path d="M190.932 180.098L185.645 187.096L183.089 187.224L189.684 194.34C190.277 195.001 190.954 194.979 191.294 194.669L191.725 194.267C192.085 193.937 192.075 193.22 191.544 192.65L186.444 187.09L188.939 186.956L192.952 181.605C193.426 180.99 193.359 180.274 192.979 179.967L192.503 179.621C192.142 179.339 191.468 179.39 190.932 180.098Z" fill="#BEC0C2"/>
<path d="M200.282 180.401L194.517 187.007L191.96 186.956L198.038 194.529C198.577 195.216 199.255 195.245 199.608 194.965L200.079 194.593C200.469 194.294 200.511 193.567 200.01 192.964L195.314 187.061L197.801 187.106L202.192 182.051C202.71 181.463 202.692 180.736 202.324 180.404L201.882 180.039C201.53 179.735 200.857 179.728 200.282 180.401Z" fill="#BEC0C2"/>
<path d="M209.586 181.352L203.377 187.532L200.839 187.302L206.351 195.286C206.847 196.016 207.518 196.09 207.903 195.826L208.396 195.505C208.797 195.217 208.879 194.514 208.433 193.872L204.157 187.649L206.644 187.869L211.377 183.125C211.927 182.58 211.962 181.869 211.622 181.521L211.202 181.104C210.882 180.773 210.204 180.725 209.586 181.352Z" fill="#BEC0C2"/>
<path d="M218.8 182.968L212.164 188.702L209.656 188.28L214.605 196.631C215.033 197.404 215.711 197.519 216.109 197.287L216.611 196.992C217.033 196.737 217.172 196.044 216.772 195.368L212.943 188.863L215.411 189.261L220.46 184.861C221.058 184.354 221.135 183.641 220.818 183.266L220.435 182.823C220.138 182.469 219.454 182.378 218.8 182.968Z" fill="#BEC0C2"/>
<path d="M227.875 185.211L220.851 190.469L218.373 189.868L222.731 198.554C223.115 199.342 223.778 199.517 224.186 199.312L224.713 199.052C225.145 198.825 225.346 198.143 224.987 197.443L221.625 190.691L224.04 191.246L229.395 187.211C230.033 186.753 230.17 186.049 229.87 185.65L229.518 185.189C229.247 184.818 228.574 184.676 227.875 185.211Z" fill="#BEC0C2"/>
<path d="M236.772 188.095L229.403 192.85L226.974 192.074L230.707 201.036C231.035 201.862 231.67 202.074 232.112 201.899L232.642 201.677C233.097 201.478 233.344 200.812 233.034 200.095L230.158 193.114L232.544 193.85L238.15 190.198C238.808 189.782 238.993 189.088 238.737 188.681L238.418 188.19C238.165 187.791 237.507 187.612 236.772 188.095Z" fill="#BEC0C2"/>
<path d="M245.45 191.599L237.764 195.805L235.393 194.875L238.483 204.075C238.755 204.918 239.373 205.183 239.811 205.04L240.375 204.848C240.838 204.696 241.124 204.039 240.874 203.303L238.496 196.141L240.812 197.043L246.679 193.783C247.363 193.415 247.597 192.742 247.36 192.313L247.082 191.797C246.851 191.394 246.211 191.159 245.45 191.599Z" fill="#BEC0C2"/>
<path d="M119.964 73.8173C110.79 75.4434 103.182 83.12 102.642 91.2952C102.622 91.6087 102.612 91.9228 102.612 92.237C102.612 95.8902 104.047 99.1722 106.712 101.564C110.037 104.542 114.907 105.729 120.067 104.814C129.236 103.199 136.849 95.5235 137.394 87.338C137.656 83.3022 136.217 79.6581 133.325 77.0673C129.997 74.0849 125.13 72.9017 119.964 73.8173ZM31.382 97.0324L27.3086 112.842C27.3086 112.842 30.4242 112.006 32.6118 111.416C29.9061 123.476 15.9811 185.644 15.89 186.062C15.1692 188.418 12.0819 190.15 9.40923 190.995L7.13852 191.713L-0.000488281 215.342L8.79998 211.687C37.6133 199.726 80.7013 188.181 81.1352 188.067L83.4104 187.459L93.3986 159.875L82.6258 162.414C81.1636 162.755 80.2503 163.379 79.657 164.087C78.3076 165.741 73.9494 170.268 69.851 171.612L50.8801 176.837L50.789 176.858C50.8801 176.452 72.4098 82.5677 72.4098 82.5677L31.382 97.0324Z" fill="#A1A1A4"/>
<path d="M97.1298 111.68L93.2078 127.025C93.2078 127.025 95.5719 126.409 97.7219 125.842C95.1916 135.514 89.6503 156.726 89.6503 156.726C89.0228 159.288 88.7188 161.773 88.7188 164.117C88.7188 169.284 90.2083 173.769 93.0882 176.96C95.7985 179.963 101.03 183.272 110.567 181.96C117.965 180.951 124.835 177.372 130.997 171.314L135.155 167.227L122.366 159.55L119.876 161.924C119.695 162.101 119.509 162.25 119.334 162.398C119.404 161.846 119.516 161.194 119.695 160.442C119.682 160.478 132.896 106.357 132.896 106.357L134.879 98.2303L97.1298 111.68Z" fill="#A1A1A4"/>
<path d="M177.789 101.802C178.322 101.741 178.895 101.734 179.432 101.764L167.867 148.514C167.424 150.226 164.809 151.706 161.795 151.919C161.666 151.928 161.535 151.895 161.399 151.862C162.003 149.463 173.36 104.105 173.42 103.864C173.845 103.21 176.007 102.002 177.789 101.802ZM180.594 84.2598C158.795 86.9451 142.365 99.9556 137.733 118.207L131.242 144.47L131.267 144.36C128.966 152.746 129.859 159.368 133.927 164.044C138.625 169.438 146.831 171.41 158.323 169.911C180.228 167.048 196.446 155.121 200.659 138.78C200.661 138.762 207.999 109.721 207.999 109.721C210.059 101.261 209.02 94.6637 204.935 90.0653C200.237 84.8008 192.051 82.8421 180.594 84.2598ZM270.438 65.5588C265.918 66.2888 260.657 68.1325 255.9 70.4863C256.311 68.8522 256.755 67.0996 256.755 67.0996L218.651 81.2694L215.001 96.5131L219.527 95.1466L204.315 157.452L236.491 149.578L249.514 95.6886C250.251 92.5023 251.839 90.506 254.592 89.3024L246.874 121.783C246.887 121.739 246.449 123.443 246.449 123.443C244.733 130.02 242.388 139.034 247.333 144.598C250.064 147.674 254.301 148.846 259.926 148.076C269.875 146.709 278.628 141.523 285.95 132.65L289.207 128.709C289.207 128.709 278.25 121.76 277.215 121.108C279.654 110.93 285.67 85.7983 285.67 85.7983C286.28 83.3056 286.592 81.0143 286.592 78.9247C286.592 74.931 285.462 71.6877 283.218 69.2485C280.282 66.0644 275.627 64.7253 270.438 65.5588ZM24.743 232.457L22.7422 226.703L29.5259 223.623C65.739 208.165 115.681 190.785 166.548 175.931C218.728 160.699 265.083 150.201 293.735 147.132L298.827 146.583L298.539 161.14L294.956 161.836C270.24 166.604 182.816 186.733 95.6297 245.576L93.1984 247.214L90.7113 245.657C71.7985 233.823 45.3845 232.2 31.324 232.282C29.2412 232.25 24.743 232.457 24.743 232.457Z" fill="#A1A1A4"/>
<path d="M318.16 57.0988C299.722 60.9683 289.37 74.185 289.769 93.378C290.004 104.864 297.139 114.337 304.041 123.499C309.963 131.355 315.555 138.78 315.741 146.242C316.081 160.109 309.967 162.061 307.939 162.52C304.367 163.322 301.725 161.159 300.98 160.252C307.185 157.357 313.419 151.846 313.419 143.94C313.419 143.424 313.393 142.9 313.34 142.365C312.823 137.264 310.356 134.472 308.379 133.02C303.978 129.803 298.764 130.572 297.272 130.882C286.416 133.144 279.515 143.866 281.559 155.293C284.869 173.796 302.163 179.501 316.835 176.962C327.453 175.124 336.325 169.784 341.812 161.919C347.239 154.126 349.075 144.383 347.114 133.745C345.087 122.728 339.195 114.042 333.499 105.635C327.589 96.9161 321.997 88.6748 321.587 78.7823C321.454 75.6267 322.369 73.2672 323.331 72.3311C323.705 71.9678 323.947 71.9473 324.176 71.9621C324.521 71.986 325.327 72.0441 326.188 73.3503C328.106 76.2701 328.369 82.3136 326.781 86.8254L326.253 88.3298L328.985 96.0518L354.999 83.8874L354.635 80.6738C353.783 72.9392 349.922 66.2386 343.781 61.7826C336.833 56.756 327.737 55.0934 318.16 57.0988Z" fill="#A1A1A4"/>
<path d="M120.527 77.008C112.89 78.3585 106.314 84.8667 105.878 91.5126C105.861 91.7486 105.853 91.9853 105.854 92.222C105.854 94.9483 106.911 97.3852 108.874 99.1458C111.454 101.459 115.325 102.362 119.501 101.62C127.141 100.274 133.717 93.7696 134.16 87.1192C134.358 84.106 133.292 81.3923 131.159 79.4825C128.582 77.1662 124.708 76.2666 120.527 77.008ZM34.0908 99.5136L31.8348 108.264C31.8348 108.264 35.4972 107.281 36.9457 106.887C36.0745 110.785 19.0441 186.808 19.0145 186.932C17.7265 191.336 12.5496 193.405 10.3848 194.086L9.7437 194.29L5.08496 209.718L7.55953 208.692C36.5744 196.649 79.8617 185.049 80.2944 184.936L80.9378 184.759L88.3068 164.406L84.4498 165.31C82.7917 165.701 82.1779 165.85 81.9844 166.355C80.98 167.531 76.1025 173 70.8129 174.708L51.6336 179.989C49.7205 180.45 48.3175 180.379 47.731 179.786C47.2038 179.246 47.1468 178.035 47.5716 176.363C47.5819 176.331 67.9318 87.5861 67.9318 87.5861L34.0908 99.5136ZM99.8404 114.149L97.7097 122.494C97.7097 122.494 101.037 121.624 102.259 121.303C101.278 125.048 92.805 157.473 92.805 157.473C92.2333 159.804 91.9566 162.043 91.9566 164.137C91.9566 168.488 93.1614 172.2 95.4993 174.79C97.6812 177.208 101.999 179.862 110.127 178.75C116.813 177.834 123.074 174.555 128.727 169.001L129.898 167.854L122.814 163.601L122.121 164.27C120.607 165.708 119.096 166.539 117.62 166.737C116.935 166.835 116.711 166.59 116.612 166.485C115.997 165.812 115.614 163.638 116.541 159.7L130.303 103.301L99.8404 114.149ZM170.305 102.944C170.858 100.71 174.885 98.8702 177.42 98.5787C179.554 98.3384 182.483 98.6652 183.192 99.4738C183.263 99.5501 183.301 99.615 183.257 99.8063L171.012 149.293C170.202 152.421 166.507 154.833 162.021 155.153C160.666 155.248 159.188 154.699 158.405 153.819C158.073 153.439 157.915 153.051 157.915 152.636C157.915 152.531 157.927 152.42 157.95 152.305C157.97 152.213 170.305 102.944 170.305 102.944ZM180.994 87.4745C160.545 89.9969 145.171 102.075 140.873 119.007L134.389 145.248C132.396 152.494 133.062 158.106 136.37 161.912C140.257 166.375 147.7 168.027 157.904 166.697C178.467 164.006 193.647 153.008 197.517 137.97L204.86 108.924C206.639 101.588 205.854 95.9732 202.51 92.2266C198.569 87.7956 191.324 86.199 180.994 87.4745ZM270.959 68.7575C264.582 69.7892 256.366 73.316 250.849 77.1936L252.094 72.2957L221.4 83.7051L219.466 91.7802C219.466 91.7802 222.807 90.7758 224.022 90.4068L208.729 153.034L233.806 146.902L246.366 94.9221C247.425 90.3203 250.095 87.3549 254.519 85.8437C256.236 85.263 257.558 85.5078 258.108 86.0157C258.232 86.1284 258.611 86.4792 258.371 87.4118L250.027 122.531C250.035 122.52 249.584 124.258 249.584 124.258C248.057 130.134 245.966 138.177 249.751 142.444C251.724 144.667 254.995 145.476 259.486 144.861C268.602 143.613 276.666 138.811 283.451 130.586L284.367 129.479L277.106 124.874L276.414 125.857C274.776 128.162 272.933 129.195 272.183 129.092C272.14 128.961 272.12 128.824 272.125 128.686C272.125 128.474 272.154 128.205 272.249 127.907L272.264 127.864L282.513 85.0443C283.07 82.7964 283.343 80.7546 283.343 78.9348C283.343 75.7713 282.511 73.2636 280.835 71.4462C278.652 69.0809 275.052 68.0982 270.959 68.7575ZM294.077 150.355C265.61 153.403 219.462 163.861 167.455 179.045C116.711 193.859 66.8989 211.197 30.7997 226.603L29.4457 227.19L29.9718 229.009L31.303 229.039C45.7177 228.949 72.8217 230.64 92.4315 242.913L93.1341 243.354L93.8128 242.89C181.51 183.7 269.467 163.448 294.338 158.653L295.349 158.457L295.511 150.201L294.077 150.355Z" fill="white"/>
<path d="M318.825 60.2751C301.812 63.8417 292.644 75.5734 293.008 93.3122C293.222 103.752 300.04 112.799 306.631 121.546C312.876 129.83 318.772 137.662 318.977 146.167C319.246 157.076 315.805 163.533 308.75 165.357C306.056 166.048 302.618 165.357 299.985 163.578C298.083 162.296 296.828 160.552 296.287 158.606C302.238 156.769 310.175 151.616 310.175 143.873C310.175 143.482 310.156 143.094 310.116 142.695C309.797 139.553 308.565 137.178 306.465 135.636C303.828 133.709 300.331 133.555 297.937 134.056C288.658 135.99 282.988 144.873 284.751 154.716C287.672 171.045 303.142 176.036 316.28 173.769C326.042 172.083 334.161 167.217 339.147 160.064C344.077 152.995 345.73 144.104 343.925 134.331C342.02 123.986 336.325 115.584 330.813 107.45C324.634 98.3398 318.791 89.7364 318.345 78.9203C318.189 75.209 319.234 71.7938 321.065 70.0105C322.028 69.0756 323.152 68.6474 324.401 68.7316C326.227 68.8615 327.739 69.8123 328.895 71.5695C331.377 75.3559 331.786 82.3742 329.836 87.903L329.691 88.3243L330.847 91.6006L351.516 81.9335L351.415 81.0293C350.661 74.216 347.272 68.3183 341.873 64.4111C335.68 59.9255 327.497 58.4553 318.825 60.2751Z" fill="white"/>
<path d="M132.893 87.0405C132.483 93.1455 126.392 99.1218 119.284 100.369C112.17 101.633 106.735 97.6984 107.142 91.5945C107.545 85.4793 113.641 79.5109 120.753 78.2583C127.862 76.9954 133.295 80.9298 132.893 87.0405ZM83.1706 166.917L86.3182 166.174L79.9695 183.711C79.9695 183.711 36.508 195.302 7.07178 207.516L10.7683 195.302C14.7881 194.031 19.0347 191.412 20.2395 187.273L38.6455 105.115L33.6087 106.477L35.1461 100.483L66.1812 89.5424L46.346 176.05C45.1844 180.593 47.1784 182.36 51.9749 181.212L71.2066 175.914C77.5519 173.862 83.1706 166.917 83.1706 166.917ZM122.993 165.185C121.364 166.742 119.623 167.749 117.786 167.996C114.575 168.449 114.152 164.332 115.306 159.41L128.516 105.285L100.905 115.123L99.4779 120.724L104.039 119.524L94.0334 157.793C91.3493 168.805 94.9809 179.545 109.952 177.491C116.778 176.554 122.736 173.103 127.838 168.095L122.993 165.185ZM203.629 108.615C207.648 92.0694 197.694 86.6909 181.148 88.7316C162.07 91.09 146.466 102.145 142.104 119.316L135.623 145.553C131.104 161.989 141.212 167.593 157.739 165.439C176.689 162.962 192.33 153.032 196.29 137.656L203.629 108.615ZM162.113 156.423C159.356 156.613 156.165 154.704 156.705 152.047L169.075 102.637C169.795 99.7151 174.424 97.6414 177.278 97.3191C179.769 97.0356 185.137 97.3681 184.49 100.095L172.246 149.599C171.219 153.57 166.783 156.089 162.113 156.423ZM222.481 84.6628L221.216 89.9239L225.78 88.5506L210.457 151.306L232.756 145.853L245.132 94.6248C246.416 89.0903 249.786 86.117 254.11 84.6377C257.471 83.4955 260.334 84.8484 259.603 87.7238L251.261 122.823C249.363 130.458 244.283 145.665 259.314 143.605C270.534 142.069 277.993 135.207 282.473 129.777L277.447 126.593C275.612 129.179 273.212 130.752 271.712 130.289C270.823 130.007 270.678 128.686 271.042 127.527L281.276 84.7459C284.483 71.7615 277.341 69.0103 271.159 70.0135C263.49 71.2479 253.428 76.1128 248.699 80.5335L250.275 74.3249L222.481 84.6628Z" fill="#0066B3"/>
<path d="M317.079 78.9656C316.819 72.7034 319.713 67.1359 324.491 67.4662C332.095 67.9957 333.93 80.1043 331.039 88.324L331.575 89.8568L350.156 81.1748C348.596 67.1416 335.498 58.077 319.081 61.5149C301.4 65.2194 293.957 77.6958 294.275 93.2823C294.684 112.941 319.8 127.932 320.248 146.131C320.583 159.715 315.159 165.008 309.066 166.587C303.601 167.996 295.642 164.426 294.761 157.711C301.098 156.176 309.662 150.765 308.85 142.821C308.054 134.958 301.202 134.668 298.197 135.294C290.568 136.883 285.067 143.998 285.762 152.657C222.299 161.471 102.163 197.523 31.2969 227.773C51.1925 227.65 75.5395 230.842 93.1029 241.837C163.523 194.311 238.697 169.093 287.179 158.819C291.567 170.515 304.071 174.589 316.066 172.52C334.074 169.408 346.477 155.196 342.677 134.566C338.733 113.121 317.961 100.071 317.079 78.9656ZM120.311 57.2684C115.796 60.7577 112.898 58.7522 110.761 55.5864L114.406 52.7691C115.694 54.434 116.849 55.7812 118.854 54.2324C120.084 53.2804 120.073 52.0164 119.158 50.8343C116.733 47.6947 109.243 53.17 105.233 47.9794C103.124 45.2498 102.749 42.0692 107.192 38.6369C110.744 35.8959 113.736 36.1282 116.313 39.9601L112.762 42.7035C111.754 41.3984 110.513 40.238 109.038 41.3768C107.856 42.2889 107.66 43.4835 108.59 44.6906C111.148 47.9988 118.264 42.0407 122.498 47.5216C125.986 52.0391 123.088 55.1253 120.311 57.2684ZM128.817 30.5379L128.763 30.5629L131.111 40.0273L135.045 38.0732L128.817 30.5379ZM128.777 50.4176L124.442 27.9722L129.882 25.2733L145.037 42.3425L140.691 44.5005L137.429 40.6719L131.799 43.4665L132.852 48.3951L128.777 50.4176ZM148.441 40.9133L143.602 19.4189L150.838 17.795L157.491 31.6528L157.549 31.6391L157.834 16.2189L164.83 14.6451L169.667 36.1395L165.291 37.1235L161.559 20.5406L161.499 20.5542L161.091 38.0675L156.806 39.0309L149.144 23.3351L149.085 23.3465L152.817 39.9282L148.441 40.9133ZM181.014 36.4527C175.307 36.4174 174.261 33.0535 174.527 29.2397L179.135 29.2716C179.123 31.3761 179.205 33.1446 181.735 33.1639C183.292 33.1719 184.059 32.1709 184.071 30.6734C184.093 26.7093 174.82 26.4041 174.861 19.8448C174.882 16.3966 176.548 13.6612 182.161 13.6965C186.647 13.7239 188.862 15.7543 188.529 20.3584L184.045 20.3276C184.055 18.6821 183.789 17.0001 181.929 16.991C180.431 16.9819 179.543 17.7984 179.534 19.3244C179.506 23.5048 188.786 23.1973 188.743 30.1234C188.708 35.8309 184.523 36.4755 181.014 36.4527ZM212.567 18.0364L209.418 33.3382C208.751 36.5655 206.227 39.598 200.729 38.4661C195.766 37.4434 193.905 34.3802 194.742 30.317L197.892 15.0152L202.404 15.9445L199.317 30.9456C198.767 33.6069 199.688 34.8869 201.332 35.2251C203.305 35.6305 204.472 34.5008 204.965 32.1094L208.053 17.1072L212.567 18.0364ZM213.267 41.1843L222.194 21.0439L227.884 23.5652L227.06 39.885L227.115 39.9112L233.298 25.9646L237.23 27.708L228.304 47.8485L222.752 45.3876L223.786 28.2239L223.729 28.1989L217.201 42.9278L213.267 41.1843ZM250.078 44.2249C251.304 42.5907 252.094 40.9372 250.12 39.5001C247.8 37.8136 245.52 40.9475 243.005 44.4002C238.947 49.9745 238.771 51.3582 240.896 52.9023C241.512 53.351 242.285 53.687 242.996 53.9045L245.869 49.9563L243.845 48.4839L245.838 45.744L251.587 49.929L245.017 58.9595C243.86 58.4186 241.032 56.9644 239.551 55.8882C233.284 51.3263 234.453 48.214 239.375 41.4576C242.644 36.9652 246.186 32.5626 252.28 36.9982C255.932 39.6561 256.711 43.3583 253.776 46.9204L250.078 44.2249ZM146.497 236.082L148.689 236.778C149.406 237.007 150.555 236.848 151.038 235.328C151.405 234.178 150.891 233.081 149.786 232.73L147.766 232.089L146.497 236.082ZM144.316 242.94L146.139 243.52C146.834 243.741 148.404 244.217 149.1 242.025C149.542 240.636 149.29 239.622 147.641 239.098L145.73 238.49L144.316 242.94ZM140.271 244.307L145.255 228.637L151.072 230.487C153.567 231.279 155.402 232.653 154.34 235.995C153.767 237.798 152.463 238.815 150.572 238.597L150.559 238.64C152.778 239.705 152.909 241.395 152.226 243.545C150.963 247.516 147.457 246.591 146.067 246.149L140.271 244.307ZM162.118 236.462L162.074 236.453L159.256 243.164L162.483 243.75L162.118 236.462ZM153.221 248.339L160.646 232.977L165.104 233.788L166.554 250.765L162.991 250.116L162.748 246.368L158.132 245.528L156.561 248.946L153.221 248.339ZM173.528 251.48C169.277 251.235 168.625 248.688 168.971 245.856L172.404 246.054C172.314 247.623 172.306 248.945 174.193 249.056C175.353 249.122 175.965 248.403 176.03 247.289C176.199 244.334 169.298 243.752 169.581 238.865C169.727 236.295 171.074 234.32 175.258 234.561C178.6 234.754 180.174 236.35 179.748 239.77L176.406 239.578C176.476 238.35 176.344 237.089 174.957 237.009C173.843 236.944 173.148 237.52 173.083 238.656C172.903 241.771 179.831 241.897 179.533 247.059C179.288 251.31 176.144 251.63 173.528 251.48ZM182.656 251.489L181.786 235.069L190.747 234.594L190.883 237.12L185.355 237.412L185.569 241.461L190.663 241.191L190.797 243.715L185.703 243.985L185.957 248.783L191.665 248.482L191.798 251.006L182.656 251.489ZM197.942 247.624L199.829 247.306C200.548 247.186 202.161 246.891 201.779 244.622C201.536 243.185 200.851 242.401 199.144 242.688L197.167 243.021L197.942 247.624ZM196.746 240.527L199.015 240.146C199.757 240.021 200.707 239.351 200.442 237.781C200.241 236.591 199.286 235.85 198.14 236.044L196.051 236.395L196.746 240.527ZM194.97 250.688L192.239 234.472L198.258 233.459C200.842 233.025 203.1 233.407 203.683 236.866C203.996 238.729 203.302 240.232 201.521 240.901L201.529 240.946C203.989 240.879 204.88 242.322 205.253 244.547C205.947 248.657 202.405 249.438 200.967 249.679L194.97 250.688ZM210.823 233.732L210.78 233.745L211.331 241.001L214.47 240.054L210.823 233.732ZM208.319 248.359L207.924 231.301L212.263 229.99L221.292 244.44L217.825 245.488L215.898 242.264L211.407 243.62L211.568 247.378L208.319 248.359ZM223.633 243.402L217.161 228.285L220.323 226.933L225.719 239.537L230.453 237.511L231.527 240.023L223.633 243.402ZM233.686 238.901L225.81 224.467L228.829 222.821L235.397 234.856L239.915 232.392L241.225 234.789L233.686 238.901ZM243.129 223.768C240.472 220.321 237.944 217.038 242.435 213.576C245.215 211.436 247.514 212.108 249.561 214.988L246.89 217.045C245.556 215.313 244.748 214.9 243.937 215.525C242.403 216.706 243.318 218.303 245.888 221.64C248.461 224.978 249.771 226.269 251.305 225.088C252.568 224.114 251.262 222.532 250.506 221.477L253.194 219.404C255.877 222.885 255.35 225.075 252.807 227.036C248.314 230.498 245.757 227.177 243.129 223.768ZM258.858 221.691L247.513 209.785L250.004 207.414L259.462 217.341L263.19 213.789L265.074 215.769L258.858 221.691ZM261.334 194.923L270.258 202.428C272.14 204.014 273.234 206.748 270.535 209.955C268.101 212.847 265.43 212.98 263.059 210.986L254.136 203.479L256.35 200.849L265.098 208.209C266.65 209.513 267.816 209.365 268.624 208.405C269.592 207.257 269.265 206.086 267.87 204.914L259.121 197.553L261.334 194.923Z" fill="#0066B3"/>
<path d="M275.888 198.223L276.925 196.616C277.321 196.005 278.193 194.614 276.259 193.365C275.034 192.575 273.992 192.552 273.052 194.007L271.965 195.689L275.888 198.223ZM269.842 194.318L271.09 192.387C271.498 191.754 271.645 190.603 270.306 189.738C269.291 189.083 268.1 189.288 267.47 190.265L266.321 192.044L269.842 194.318ZM276.147 202.483L262.332 193.56L265.642 188.434C267.065 186.235 268.869 184.823 271.816 186.728C273.403 187.754 274.046 189.279 273.338 191.045L273.376 191.07C274.985 189.208 276.651 189.526 278.546 190.748C282.047 193.01 280.236 196.152 279.444 197.376L276.147 202.483Z" fill="#0066B3"/>
</g>
<defs>
<clipPath id="clip0_1484_193">
<rect width="355" height="267.113" fill="white"/>
</clipPath>
</defs>
</svg>
