<svg width="432" height="255" viewBox="0 0 432 255" fill="none" xmlns="http://www.w3.org/2000/svg">
<g clip-path="url(#clip0_1484_308)">
<path d="M408.2 141.8C410.4 138.7 412 135.1 413 131.4L415.2 123.1C416 120.1 416.4 117 416.4 114C416.4 112 416.2 110 415.8 108.1L419.3 107.8L428.4 73.8L412 54.3L349.2 59.8C345.6 55.4 341.6 51.1 337.3 47.1C335.6 28.6 320 14 301 14C296.5 14 292.3 14.8 288.3 16.3C263.4 5.9 234.6 0 203.8 0C150 0 102 18.1 71.4 46.2L11.1 51.6L40.3 78L0 228.4L17.8 247.8L135.4 226.7C156.3 233.4 179.4 237.1 203.8 237.1C246 237.1 284.6 226 314.1 207.6L322.4 254.7L355.1 181.1L431.9 147.2L408.2 141.8Z" fill="#D5D5D6"/>
<path d="M422.5 75.1999L409.7 59.8999L346.8 65.3999C342.5 59.7999 337.5 54.3999 332 49.3999C331.5 32.6999 317.8 19.2999 300.9 19.2999C296.4 19.2999 292.1 20.2999 288.2 21.9999C263.6 11.4999 234.7 5.3999 203.8 5.3999C150.4 5.3999 103 23.4999 73.4999 51.3999L23.6999 55.8999L46.1999 76.2999L5.8999 226.9L19.7999 242L135.8 221.2C156.5 227.9 179.6 231.7 203.9 231.7C248.4 231.7 288.8 219.1 318.1 198.7L324.8 236.5L351.2 177L415 148.8L398.1 145C402.7 141.2 406.3 135.9 407.8 130L410 121.7C410.7 119.1 411 116.5 411 114C411 111.3 410.5 108.7 409.7 106.3C409.4 105.3 408.9 104.3 408.5 103.4L415.1 102.8L422.5 75.1999Z" fill="#CF0022"/>
<path d="M307.5 185.5C287.3 199.3 262.1 208.5 234.6 212.5C248.5 207.4 261.4 200.9 272.9 193.1C273.6 192.6 274.4 192.1 275.1 191.6L251.9 195.7C226.2 208.9 194.3 216.7 159.6 216.7C156.3 216.7 153 216.6 149.8 216.5C166.6 220.8 184.8 223.2 203.7 223.2C248.2 223.2 288.2 210.3 316.2 189.7L314.5 180.3C312.4 182 310 183.8 307.5 185.5Z" fill="white"/>
<path d="M20.2 223.2L24.5 228L321.9 175.1L321 169.8L20.2 223.2ZM341.4 167.2L326.5 200.7L330.6 204.8L345.5 171.3L378.1 156.9L374 152.8L341.4 167.2ZM404.1 73.2998L400.7 85.7998L379 87.6998C378.1 87.7998 377.2 88.5998 377 89.4998L374.6 98.2998C374.4 99.1998 374.9 99.8998 375.7 99.7998L379.8 99.3998L381.2 94.1998C381.4 93.2998 382.1 92.8998 382.8 92.7998L404.8 90.8998L408.2 78.3998L404.1 73.2998ZM268.8 130.7L272.9 130.3L274.6 123.8L303.7 121.3L308.8 102.2C309.2 100.7 309.4 99.2998 309.4 97.9998C309.4 96.6998 309.2 95.3998 308.8 94.2998C308.4 93.1998 307.9 92.1998 307.1 91.2998C306.4 90.4998 303.8 87.3998 303 86.4998C305 89.0998 305.7 92.8998 304.5 97.1998L299.4 116.3L270.3 118.8L267.5 129.2C267.4 130.1 267.9 130.8 268.8 130.7Z" fill="#970022"/>
<path d="M339.1 96.6L358.2 94.9L361.1 83.9C361.2 83.4 361.4 83 361.6 82.5L357.2 77.3L353.9 89.8L335.3 91.4C334.4 91.5 333.5 92.3 333.3 93.2L321.2 138.3L303.5 139.9L305.1 134L300 140.3L261.2 143.7C255.3 144.2 251.1 141.2 250 136.3L242.6 145.4L231.9 146.3C229.2 146.5 227 145.8 225.7 144.3C224.5 145.9 222.6 147.1 220.8 147.2L203.8 148.7C197.9 149.2 193.7 146.2 192.6 141.3L185.2 150.4L175.5 151.3C171.5 151.6 168.3 150.4 166.3 148C167.1 149 169.7 152.1 170.4 152.9C171.1 153.7 171.9 154.4 172.8 155C173.7 155.5 174.8 156 175.9 156.2C177.1 156.4 178.3 156.5 179.7 156.4L187.9 155.7L195.4 146.5C196.5 147.8 198.2 149.8 198.7 150.4C199.4 151.2 200.2 151.9 201.1 152.5C202 153 203.1 153.5 204.2 153.7C205.4 153.9 206.6 154 208 153.9L225 152.4C226.8 152.2 228.7 151.1 229.9 149.5C231.2 150.9 233.3 151.7 236.1 151.5L245.3 150.7L252.8 141.5C253.9 142.8 255.6 144.8 256.1 145.4C256.8 146.2 257.6 146.9 258.5 147.5C259.4 148 260.5 148.5 261.6 148.7C262.8 148.9 264 149 265.4 148.9L304.2 145.5L305.9 143.4L307.7 145.2L325.4 143.6L337.6 98.1C337.8 97.2 338.5 96.7 339.1 96.6ZM395.9 107.5C395.2 106.7 392.6 103.6 391.8 102.7C393.8 105.3 394.5 109.1 393.3 113.4L390.1 125.4C389.1 129.3 385.3 132.8 381.8 133.1L342.7 136.5L344.4 146.2L350.1 147.5L349 141.4L382.2 138.5C388 138 393.6 132.9 395.2 126.8L397.4 118.5C397.8 117 398 115.6 398 114.3C398 113 397.8 111.7 397.4 110.6C397.1 109.4 396.6 108.4 395.9 107.5Z" fill="#970022"/>
<path d="M340.6 124.4L346 124L345.6 121.9L339 115.3L340.6 124.4ZM359.6 106.9C360.3 107.8 363.1 111 363.8 111.9C364.5 112.7 365.3 113.4 366.2 114C367.1 114.5 368.2 115 369.3 115.2C370.5 115.4 371.7 115.5 373.1 115.4L375.6 115.2L376.7 111.3C376.9 110.4 376.4 109.7 375.6 109.8L369 110.4C364.8 110.6 361.6 109.3 359.6 106.9ZM240.4 133.2L244.5 132.8L266 52.5L261.8 47.5L239.2 131.7C239 132.6 239.5 133.3 240.4 133.2ZM280.1 103.3C280.3 102.4 281.2 101.6 282.1 101.5L286.1 101.1L287.2 97.2C287.4 96.3 286.9 95.6 286.1 95.7L277.9 96.4C277 96.5 276.1 97.3 275.9 98.2L273.1 108.6L278.8 108.1L280.1 103.3ZM87.8001 68.5L83.6001 63.4L53.1001 177.2L58.8001 176.7L87.8001 68.5ZM110.9 154.3C109.7 155.9 107.8 157.1 106 157.2L89.0001 158.7C85.2001 159 82.0001 157.9 80.0001 155.6L83.9001 160.3C84.6001 161.1 85.4001 161.8 86.3001 162.4C87.2001 162.9 88.3001 163.4 89.4001 163.6C90.6001 163.8 91.8001 163.9 93.2001 163.8L110.2 162.3C112 162.1 113.9 161 115.1 159.4C116.4 160.8 118.5 161.6 121.3 161.4L132 160.5L133.9 158.2L135.5 160.2L153.2 158.6L165.7 111.9L171.3 111.4L172.4 107.5C172.6 106.6 172.1 105.9 171.3 106L161.6 106.9L149 153.4L131.3 155L132.9 149.1L127.8 155.3L117.1 156.2C114.3 156.5 112.1 155.7 110.9 154.3ZM114 116.3L115.1 112.4C115.3 111.5 114.8 110.8 114 110.9L86.5001 113.3L90.7001 118.3L114 116.3Z" fill="#970022"/>
<path d="M96.6001 145.8L100.7 145.4L102.2 140C102.4 139.1 103.3 138.3 104.2 138.2L108.2 137.8L109.7 132.3L100 133.2C99.1001 133.3 98.2001 134.1 98.0001 135L95.5001 144.4C95.2001 145.2 95.7001 145.9 96.6001 145.8ZM211.4 135.7L215.5 135.3L222.7 108.3C222.9 107.4 223.8 106.6 224.7 106.5L228.7 106.1L230.2 100.6L220.5 101.5C219.6 101.6 218.7 102.4 218.5 103.3L210.2 134.2C210 135.1 210.5 135.8 211.4 135.7ZM125.6 143.2L129.7 142.8L136.6 117.2C137 115.7 137.2 114.3 137.2 113C137.2 111.7 137 110.4 136.6 109.3C136.2 108.2 135.7 107.2 134.9 106.3C134.2 105.5 131.6 102.4 130.8 101.5C132.8 104.1 133.5 107.9 132.3 112.2L124.4 141.7C124.2 142.6 124.7 143.3 125.6 143.2ZM183 138.2L187.1 137.8L194 112.2C194.4 110.7 194.6 109.3 194.6 108C194.6 106.7 194.4 105.4 194 104.3C193.6 103.2 193.1 102.2 192.3 101.3C191.6 100.5 189 97.4 188.2 96.5C190.2 99.1 190.9 102.9 189.7 107.2L181.8 136.7C181.6 137.6 182.1 138.3 183 138.2Z" fill="#970022"/>
<path d="M377 89.4999C377.2 88.5999 378.1 87.7999 379 87.6999L400.7 85.7999L404.1 73.2999L369.5 76.2999C365.9 76.5999 362.2 80.0999 361.2 83.9999L358 95.9999C355.7 104.6 360.6 111 368.9 110.2L375.5 109.6C376.4 109.5 376.9 110.2 376.6 111.1L374.2 119.9C374 120.8 373.1 121.6 372.2 121.7L340.5 124.5L338.9 115.3L324 148.8L310.7 154.7L53.0999 177.2L83.5999 63.3999L51.2 66.2999L60.0999 74.3999L20.2 223.2L321 169.8L326.5 200.7L341.4 167.2L374.1 152.8L344.5 146.2L342.8 136.5L381.9 133.1C385.5 132.8 389.2 129.3 390.2 125.4L393.4 113.4C395.7 104.8 390.8 98.3999 382.5 99.0999L375.9 99.6999C375 99.7999 374.5 99.0999 374.8 98.1999L377 89.4999Z" fill="white"/>
<path d="M300.9 76.1002C315.094 76.1002 326.6 64.5939 326.6 50.4002C326.6 36.2065 315.094 24.7002 300.9 24.7002C286.706 24.7002 275.2 36.2065 275.2 50.4002C275.2 64.5939 286.706 76.1002 300.9 76.1002Z" fill="white"/>
<path d="M285.3 29.8999C261.7 19.7999 233.8 13.8999 203.8 13.8999C193 13.8999 182.5 14.6999 172.4 16.0999C213 17.8999 249.3 30.4999 275.2 49.7999C275.4 41.6999 279.3 34.4999 285.3 29.8999ZM353.9 89.8999L357.2 77.3999L325.8 80.1999C322.2 80.4999 318.5 83.9999 317.5 87.8999L306.9 127.5L268.8 130.8C267.9 130.9 267.4 130.2 267.7 129.3L270.5 118.9L299.6 116.4L304.7 97.2999C307 88.6999 302.1 82.2999 293.8 82.9999L268.5 85.1999C264.9 85.4999 261.2 88.9999 260.2 92.8999L250.4 129.5C250.1 130.5 250 131.5 249.9 132.5L240.6 133.3C239.7 133.4 239.2 132.7 239.5 131.8L262.1 47.5999L233 50.1999L241.9 58.2999L233.9 88.2999L211.3 90.2999C207.7 90.5999 204 94.0999 203 97.9999L193.2 134.6C192.9 135.6 192.8 136.6 192.7 137.6L183.4 138.4C182.5 138.5 182 137.8 182.3 136.9L190.2 107.4C192.5 98.7999 187.6 92.3999 179.3 93.0999L147.6 95.8999L135.1 142.6L126 143.4C125.1 143.5 124.6 142.8 124.9 141.9L132.8 112.4C135.1 103.8 130.2 97.3999 121.9 98.0999L90.2001 100.9L86.8001 113.4L114.3 111C115.2 110.9 115.7 111.6 115.4 112.5L112.8 122.3L90.4001 124.3C86.8001 124.6 83.0001 127.9 82.0001 131.7L78.6001 144.6C76.3001 153.2 81.2001 159.6 89.5001 158.9L106.5 157.4C108.3 157.2 110.2 156.1 111.4 154.5C112.7 155.9 114.8 156.7 117.6 156.5L128.3 155.6L133.4 149.4L131.8 155.3L149.5 153.7L162 107L171.7 106.1C172.6 106 173.1 106.7 172.8 107.6L164.9 137.1C162.6 145.7 167.5 152.1 175.8 151.4L185.5 150.5L192.9 141.4C194 146.3 198.2 149.3 204.1 148.8L221.1 147.3C222.9 147.1 224.8 146 226 144.4C227.3 145.8 229.4 146.6 232.2 146.4L242.9 145.5L250.3 136.4C251.4 141.3 255.6 144.3 261.5 143.8L300.3 140.4L305.4 134.1L303.8 140L321.5 138.4L333.6 93.2999C333.8 92.3999 334.7 91.5999 335.6 91.4999L353.9 89.8999ZM275.9 98.2999C276.1 97.3999 277 96.5999 277.9 96.4999L286.1 95.7999C287 95.6999 287.5 96.3999 287.2 97.2999L284.4 107.7L273.1 108.7L275.9 98.2999ZM106.7 143.3C106.5 144.2 105.6 145 104.7 145.1L96.5001 145.8C95.6001 145.9 95.1001 145.2 95.4001 144.3L97.9001 134.9C98.1001 134 99.0001 133.2 99.9001 133.1L109.6 132.2L106.7 143.3ZM221.5 133.3C221.3 134.2 220.4 135 219.5 135.1L211.3 135.8C210.4 135.9 209.9 135.2 210.2 134.3L218.5 103.4C218.7 102.5 219.6 101.7 220.5 101.6L230.2 100.7L221.5 133.3Z" fill="white"/>
<path d="M92.7999 152.2C88.1999 152.6 85.4999 149.1 86.7999 144.3L89.7999 133.2C90.0999 132 90.8999 130.9 91.7999 130.1L84.7999 126.5C83.2999 127.8 82.0999 129.6 81.5999 131.5L78.1999 144.4C75.8999 153 80.7999 159.4 89.0999 158.7L106.1 157.2C107.9 157 109.8 155.9 111 154.3C112.3 155.7 114.4 156.5 117.2 156.3L127.7 155.4L125.3 149.5L92.7999 152.2ZM154.4 101.2L147.2 95.7001L131.3 155L149 153.4L141.8 147.9L154.4 101.2ZM232.8 50.1001L241.7 58.1001L233.6 88.2001L240.8 93.7001L251.2 54.9001L232.8 50.1001ZM291.9 112L262.9 114.5L270.4 118.8L299.5 116.3L291.9 112ZM320.7 82.6001C319.2 84.0001 318 85.8001 317.5 87.8001L303.5 139.9L321.2 138.3L314 132.8L325.3 90.5001C325.6 89.3001 326.4 88.2001 327.3 87.3001L320.7 82.6001ZM330.6 85.8001C329.5 85.9001 328.4 86.5001 327.4 87.3001L334.1 92.0001C334.5 91.7001 334.9 91.5001 335.3 91.4001L353.9 89.8001L348.3 84.2001L330.6 85.8001ZM182.7 144.4L179.2 144.7C174.6 145.1 171.9 141.6 173.2 136.8L181.1 107.3C182.4 102.6 179.7 99.0001 175.1 99.4001L154.4 101.2L161.6 106.7L171.3 105.8C172.2 105.7 172.7 106.4 172.4 107.3L164.5 136.8C162.2 145.4 167.1 151.8 175.4 151.1L185.1 150.2L182.7 144.4Z" fill="#D5D5D6"/>
<path d="M119.9 126.5L94.8999 128.7C93.7999 128.8 92.5999 129.4 91.6999 130.2L98.6999 133.8C99.0999 133.5 99.4999 133.3 99.8999 133.2L109.6 132.3L106.7 143.3C106.6 143.7 106.3 144.2 105.9 144.5L111.1 150.6C112.4 150.5 113.7 149.3 114 148L119.9 126.5ZM117.7 104.4L95.3999 106.3L89.7999 100.7L86.3999 113.2L113.9 110.8C114.8 110.7 115.3 111.4 115 112.3L112.4 122.1L119.9 126.4L123.7 112.2C125 107.6 122.3 104 117.7 104.4ZM289.9 89.4L273.2 90.9C272.1 91 271 91.6 270 92.4L276.7 97.1C277.1 96.8 277.5 96.6 277.9 96.5L286.1 95.8C287 95.7 287.5 96.4 287.2 97.3L284.4 107.7L291.9 112L295.9 97.2C297.2 92.5 294.5 89 289.9 89.4ZM395.1 80.2L374.2 82C373.1 82.1 372 82.7 371 83.5L377.7 88.2C378.1 87.9 378.5 87.7 378.9 87.6L400.6 85.7L395.1 80.2Z" fill="#D5D5D6"/>
<path d="M364.4 78.8L371.1 83.5C370.2 84.4 369.4 85.5 369.1 86.7L366.3 97.1C365 101.8 367.7 105.4 372.3 105L378.9 104.4C383.5 104 386.2 107.5 384.9 112.3L382.1 122.7C381.8 123.9 381 125 380.1 125.9L373.4 121.2C373.8 120.9 374 120.5 374.2 120L376.6 111.2C376.8 110.3 376.3 109.6 375.5 109.7L368.9 110.3C360.6 111 355.7 104.7 358 96.1L361.2 84" fill="#D5D5D6"/>
<path d="M380.2 125.8C379.3 126.7 378.1 127.2 377 127.3L347.3 129.9L340.5 124.4L342.6 136.5L381.7 133.1C383.5 132.9 385.3 132 386.8 130.6L380.2 125.8ZM240.1 139.3L207.6 142.1C203 142.5 200.3 139 201.6 134.2L210.6 100.5C210.9 99.3001 211.7 98.2001 212.6 97.3001L205.9 92.6001C204.4 94.0001 203.2 95.8001 202.7 97.8001L192.9 134.4C190.6 143 195.5 149.4 203.8 148.7L220.8 147.2C222.6 147 224.5 145.9 225.7 144.3C227 145.7 229.1 146.5 231.9 146.3L242.6 145.4L240.1 139.3ZM297.5 134.3L265 137.1C260.4 137.5 257.7 134 259 129.2L268 95.5001C268.3 94.3001 269.1 93.2001 270 92.3001L263.3 87.6001C261.8 89.0001 260.6 90.8001 260.1 92.8001L250.3 129.4C248 138 252.9 144.4 261.2 143.7L300 140.3L297.5 134.3Z" fill="#D5D5D6"/>
<path d="M321 169.8L306.7 166.6L33.9 210.6L71.0999 71.5998L51.2 66.2998L60.0999 74.3998L20.2 223.2L321 169.8Z" fill="#D5D5D6"/>
<path d="M215.8 95.9C214.7 96 213.6 96.6 212.6 97.4L219.3 102.1C219.7 101.8 220.1 101.6 220.5 101.5L230.2 100.6L221.5 133.1C221.4 133.5 221.1 134 220.7 134.3L225.9 140.4C227.2 140.3 228.5 139.1 228.8 137.8L240.7 93.5L215.8 95.9Z" fill="#D5D5D6"/>
<path d="M340.7 150L337 129L326.9 151.7L311.3 158.6L46.8 188.3L56.6 197.2L309.4 162.6L324.8 166L328.5 187L338.6 164.3L360.8 154.5L340.7 150Z" fill="#FAC109"/>
<path d="M334.7 144.4L337.3 153.4L345.9 156.3L336.1 161.6L330.8 171.6L328.2 162.5L319.6 159.6L329.4 154.4L334.7 144.4Z" fill="#004537"/>
<path d="M280.4 34.7999C268 29.6999 254.6 25.7999 240.5 23.3999C253.6 28.4999 265.7 34.8999 276.4 42.4999C277.3 39.6999 278.7 37.0999 280.4 34.7999Z" fill="#FAC109"/>
<path d="M306.5 68.3001C293.5 68.3001 283 57.8001 283 44.8001C283 37.2001 286.6 30.4001 292.2 26.1001C282.3 29.7001 275.2 39.2001 275.2 50.3001C275.2 64.5001 286.7 76.0001 300.9 76.0001C312 76.0001 321.5 68.9001 325.1 59.0001C320.8 64.7001 314.1 68.3001 306.5 68.3001Z" fill="#D5D5D6"/>
<path d="M307.4 59.1998L305.9 55.7998L304.8 57.0998L306.1 60.0998L305.1 61.1998L308.9 62.6998L309.9 61.4998L306.6 60.0998L307.4 59.1998ZM311 55.6998L310.3 52.0998L308.9 53.1998L309.6 56.2998L308.4 57.2998L311.8 59.4998L313.1 58.4998L310.1 56.4998L311 55.6998ZM315.3 53.0998L315.2 49.3998L313.8 50.0998V53.3998L312.4 54.0998L315.3 56.8998L316.8 56.0998L314.2 53.5998L315.3 53.0998ZM320 51.2998L320.7 47.6998L319.1 48.0998L318.5 51.2998L317 51.6998L319.2 54.9998L320.8 54.5998L318.8 51.5998L320 51.2998ZM325 50.4998L326.3 47.0998L324.7 47.1998L323.5 50.1998L321.9 50.2998L323.5 53.9998L325.1 53.8998L323.8 50.5998L325 50.4998ZM304.5 63.2998L302.4 60.2998L301.6 61.7998L303.4 64.3998L302.7 65.7998L306.6 66.4998L307.4 64.9998L303.9 64.3998L304.5 63.2998ZM302.5 67.8998L299.8 65.3998L299.3 66.9998L301.7 69.1998L301.2 70.6998L305.2 70.5998L305.7 68.9998L302.1 69.0998L302.5 67.8998ZM301.4 72.7998L298.3 70.8998L298.1 72.4998L300.8 74.1998L300.7 75.7998L304.6 74.8998L304.8 73.2998L301.3 73.9998L301.4 72.7998ZM296.4 38.6998L292.7 37.1998L291.7 38.4998L295 39.8998L294.2 40.7998L295.7 44.0998L296.8 42.8998L295.4 39.8998L296.4 38.6998ZM289.8 40.4998L288.5 41.4998L291.5 43.4998L290.5 44.1998L291.3 47.7998L292.6 46.7998L291.9 43.5998L293.2 42.6998L289.8 40.4998ZM286.3 43.0998L284.8 43.7998L287.4 46.3998L286.3 46.8998V50.5998L287.8 49.7998V46.5998L289.2 45.8998L286.3 43.0998ZM282.4 44.8998L280.7 45.3998L282.7 48.3998L281.6 48.6998L280.9 52.2998L282.5 51.8998L283.1 48.6998L284.6 48.2998L282.4 44.8998ZM278.4 45.9998L276.7 46.0998L278.1 49.3998L276.9 49.4998L275.5 52.8998L277.2 52.7998L278.4 49.7998L279.9 49.6998L278.4 45.9998ZM299.2 39.6998L300 38.1998L298.1 35.5998L298.9 34.1998L295 33.4998L294.1 34.8998L297.7 35.5998L297.1 36.6998L299.2 39.6998ZM299 32.3998L301.7 34.9998L302.2 33.3998L299.8 31.0998L300.3 29.6998H296.3L295.8 31.2998H299.4L299 32.3998ZM300.2 27.7998L303.3 29.6998L303.5 28.0998L300.7 26.3998L300.9 24.7998L297 25.6998L296.8 27.2998L300.3 26.5998L300.2 27.7998Z" fill="#CF0022"/>
<path d="M99.7 75.1002L103.9 70.0002C106.8 72.4002 109.9 74.0002 113.6 74.0002C116.5 74.0002 118.3 72.8002 118.3 70.9002V70.8002C118.3 69.0002 117.2 68.1002 111.7 66.7002C105.1 65.0002 100.9 63.2002 100.9 56.7002V56.6002C100.9 50.7002 105.6 46.8002 112.3 46.8002C117 46.8002 121.1 48.3002 124.4 50.9002L120.7 56.3002C117.8 54.3002 115 53.1002 112.2 53.1002C109.5 53.1002 108 54.4002 108 55.9002V56.0002C108 58.1002 109.4 58.8002 115 60.3002C121.6 62.0002 125.3 64.4002 125.3 70.1002V70.2002C125.3 76.7002 120.4 80.3002 113.3 80.3002C108.6 80.3002 103.6 78.6002 99.7 75.1002ZM127.5 75.1002L131.7 70.0002C134.6 72.4002 137.7 74.0002 141.4 74.0002C144.3 74.0002 146.1 72.8002 146.1 70.9002V70.8002C146.1 69.0002 145 68.1002 139.5 66.7002C132.9 65.0002 128.7 63.2002 128.7 56.7002V56.6002C128.7 50.7002 133.4 46.8002 140.1 46.8002C144.8 46.8002 148.9 48.3002 152.2 50.9002L148.5 56.3002C145.6 54.3002 142.8 53.1002 140 53.1002C137.2 53.1002 135.8 54.4002 135.8 55.9002V56.0002C135.8 58.1002 137.2 58.8002 142.8 60.3002C149.4 62.0002 153.1 64.4002 153.1 70.1002V70.2002C153.1 76.7002 148.2 80.3002 141.1 80.3002C136.4 80.3002 131.4 78.6002 127.5 75.1002ZM156.1 63.6002C156.1 54.3002 163.3 46.7002 173.2 46.7002C179.1 46.7002 182.6 48.3002 186 51.2002L181.5 56.6002C179 54.5002 176.8 53.3002 173 53.3002C167.8 53.3002 163.7 57.9002 163.7 63.4002V63.5002C163.7 69.5002 167.8 73.8002 173.6 73.8002C176.2 73.8002 178.5 73.1002 180.3 71.8002V67.1002H173V60.9002H187.1V75.0002C183.8 77.8002 179.1 80.2002 173.2 80.2002C163.1 80.4002 156.1 73.3002 156.1 63.6002Z" fill="white"/>
</g>
<defs>
<clipPath id="clip0_1484_308">
<rect width="432" height="254.7" fill="white"/>
</clipPath>
</defs>
</svg>
