<svg width="434" height="269" viewBox="0 0 434 269" fill="none" xmlns="http://www.w3.org/2000/svg">
<g clip-path="url(#clip0_1484_89)">
<path d="M365.029 134.498C365.029 208.778 304.816 269 230.531 269C156.249 269 96.0347 208.779 96.0347 134.498C96.0359 60.2176 156.249 0 230.532 0C304.816 0 365.029 60.2176 365.029 134.498Z" fill="#F15A28"/>
<path d="M356.73 134.498C356.73 204.187 300.234 260.687 230.539 260.687C160.848 260.687 104.35 204.186 104.35 134.498C104.35 64.8022 160.849 8.3042 230.539 8.3042C300.235 8.3042 356.73 64.8022 356.73 134.498Z" fill="black"/>
<path d="M312.406 139.715C309.527 184.906 270.557 219.215 225.362 216.34C180.164 213.459 145.858 174.489 148.736 129.295C151.615 84.0965 190.58 49.7916 235.781 52.6702C280.979 55.5451 315.282 94.5153 312.406 139.715Z" fill="white"/>
<path d="M166.181 180.627C166.181 180.627 165.991 182.108 165.919 183.117C166.297 183.608 166.66 184.079 167.035 184.543C166.923 183.981 166.545 181.83 166.816 181.355L166.181 180.627ZM169.114 183.212C169.114 183.212 168.845 184.859 168.93 186.913C169.408 187.476 169.893 188.01 170.392 188.56C169.993 187.215 170.029 185.748 169.893 184.259L169.114 183.212ZM174.501 188.271L172.757 186.775C172.757 186.775 173.051 189.903 173.568 190.794C173.626 191.375 173.595 191.712 173.748 192.093C174.473 192.802 175.19 193.491 175.923 194.169C175.695 193.584 175.226 192.34 175.445 191.649C174.48 190.545 174.566 189.299 174.501 188.271ZM179.565 191.731L177.772 190.276C177.546 190.691 177.996 193.728 178.784 195.103C178.695 195.826 178.897 196.421 179.064 196.908C179.758 197.489 180.434 198.029 181.129 198.595C181.041 198.315 180.555 196.815 180.704 195.856C179.676 194.696 179.558 193.015 179.565 191.731ZM184.634 201.148C184.328 200.468 183.335 199.689 183.748 198.785C183.006 197.707 182.586 195.272 182.883 193.62L184.627 195.301C184.588 196.543 184.671 198.562 185.634 199.871C185.194 200.499 187.069 202.607 187.261 202.92L184.634 201.148ZM190.196 203.898C189.879 203.199 190.101 203.172 189.948 202.488C189.237 201.41 188.321 199.041 188.222 197.224L190.627 198.149C190.62 199.368 191.06 201.169 192.023 202.489C191.592 203.127 192.79 205.176 192.954 205.485L190.196 203.898ZM200.017 208.416C199.772 207.498 200.283 206.809 200.662 205.895C199.381 204.456 197.271 202.488 196.369 199.843L193.754 199.048C194.888 201.947 196.729 204.656 197.957 205.833C197.646 206.501 197.589 207.628 197.589 207.628L200.017 208.416ZM207.873 210.034C207.645 209.1 208.377 208.288 208.757 207.38C207.25 206.446 204.982 203.777 203.566 200.543L200.64 200.205C203.08 204.938 204.798 206.444 206.339 207.432C205.823 208.42 205.77 209.432 205.77 209.432L207.873 210.034ZM216.011 210.505C215.962 209.152 216.656 208.858 217.044 207.969C215.541 207.03 212.572 205.053 211.148 201.804L208.238 201.481C211.195 206.115 213.181 208.451 214.478 208.127C213.947 209.09 213.643 210.448 213.643 210.448L216.011 210.505ZM223.48 210.661C223.584 209.604 224.651 208.352 225.02 207.436C223.493 206.503 221.125 205.582 219.74 202.325L216.552 202.332C218.877 206.14 221.152 208.115 222.475 207.79C221.633 208.945 221.026 211.044 221.026 211.044L223.48 210.661ZM230.993 210.195C230.952 208.858 232.158 207.869 232.522 206.982C231.041 206.041 228.542 204.784 227.109 201.535L224.065 201.681C226.296 205.347 228.637 207.389 229.931 207.051C228.803 208.569 228.332 210.71 228.332 210.71L230.993 210.195ZM239.514 208.879C239.438 207.549 240.502 206.276 240.895 205.353C239.372 204.435 237.261 203.464 235.84 200.218L233.072 200.566C236.153 204.953 237.247 205.913 238.537 205.581C237.603 207.077 236.855 209.579 236.855 209.579L239.514 208.879ZM247.398 207.545C247.331 206.17 248.393 204.911 248.775 203.996C247.273 203.076 244.654 201.582 243.237 198.347L240.528 198.961C243.491 203.204 245.094 204.865 246.412 204.536C245.889 205.519 244.868 208.462 244.868 208.462L247.398 207.545ZM255.425 205.389C255.751 203.831 257.002 202.046 257.407 201.14C255.881 200.212 252.728 199.238 251.347 196.016L249.064 196.765C252.029 200.923 252.933 201.307 254.879 201.582C254.347 202.577 252.745 206.404 252.745 206.404L255.425 205.389ZM263.911 202.72C264.36 200.005 265.37 198.397 265.674 197.503C264.167 197.607 261.738 196.077 260.138 192.943L257.74 193.889C260.111 197.327 261.696 198.579 263.007 198.412C262.489 199.449 261.367 203.789 261.367 203.789L263.911 202.72ZM272.308 198.95C272.157 197.835 273.891 194.54 274.271 193.625C274.063 193.595 273.572 193.704 273.028 193.627C272.056 193.493 270.209 192.506 268.32 189.113L266.152 190.185C268.54 193.962 270.218 194.616 270.781 194.715C271.243 194.856 271.819 194.666 272.161 194.572C270.946 196.118 269.988 200.159 269.988 200.159L272.308 198.95ZM286.743 190.467C286.286 189.118 286.14 187.257 286.512 186.346C284.992 185.437 283.907 183.479 283.717 180.336L281.564 181.731C282.043 185.41 283.183 186.729 284.442 187.41C283.909 188.403 284.61 191.943 284.61 191.943L286.743 190.467ZM279.764 194.854C279.734 193.501 280.342 191.012 280.764 190.138C279.354 190.138 278.382 189.773 276.586 184.737L274.431 186.016C277.413 191.45 277.841 191.063 278.613 190.811C278.05 191.799 277.324 196.394 277.324 196.394L279.764 194.854ZM292.283 185.777C291.816 184.278 291.918 183.044 292.313 182.123C291.461 182.297 291.313 181.236 291.14 179.851C291.004 178.595 291.069 177.573 290.987 176.091L288.837 177.484C288.755 180.874 289.025 183.975 290.308 183.64C289.769 184.63 290.172 187.852 290.172 187.852L292.283 185.777ZM297.164 181.609C296.942 180.291 297.043 179.108 297.502 178.152C296.66 177.084 296.478 175.825 296.737 172.283L294.772 173.733C294.205 177.522 295.052 178.686 295.601 179.581C295.008 180.606 295.144 183.27 295.144 183.27L297.164 181.609ZM302.038 174.862C302.72 171.504 302.132 169.877 301.934 167.818L299.978 169.665C300.386 171.329 300.936 174.934 300.037 178.21L302.038 174.862ZM305.779 163.603C305.779 163.603 305.668 166.121 305.398 168.253C305.84 167.278 306.257 166.302 306.667 165.307C306.652 164.339 306.603 163.173 306.417 162.351L305.779 163.603Z" fill="#F9A983"/>
<path d="M226.015 89.6148C226.571 90.6004 225.712 97.6383 225.107 100.007L222.2 98.348C222.2 98.348 223.954 93.1078 224.168 91.7234C224.392 90.339 224.008 89.1497 223.255 88.5208L226.015 89.6148ZM216.648 94.8766L214.422 93.7211C215.61 89.5738 215.572 87.7665 215.631 86.6351C215.661 85.9218 213.699 85.4868 213.823 85.5121C215.478 85.0012 221.678 81.3275 223.097 80.384L225.596 81.6094C222.91 83.4397 217.306 86.117 215.916 86.1025C214.546 86.0844 215.834 86.1519 215.834 86.1519L217.081 85.917C218.806 87.2677 216.764 93.6766 216.648 94.8766ZM208.386 91.4234L206.562 90.6679C206.638 89.1341 207.103 87.1014 208.742 83.518L210.694 84.1795C208.8 88.3063 208.209 90.7438 208.386 91.4234Z" fill="#F9A983"/>
<path d="M217.369 78.2467L215.207 77.4153C212.406 78.7106 209.43 80.63 206.908 82.6928L208.772 83.6049C212.243 81.23 215.471 78.8455 217.369 78.2467Z" fill="#F9A983"/>
<path d="M309.571 127.666L307.796 128.076C307.257 126.049 306.951 123.023 304.772 120.908C305.687 118.91 306.315 117.286 305.176 114.822L306.791 114.878C307.3 117.549 307.033 118.848 306.236 120.675C307.687 122.229 309.339 124.456 309.571 127.666ZM305.21 128.718L303.104 129.019C302.563 126.955 301.843 123.726 299.662 121.599C301.488 119.667 301.429 117.399 301.064 115.142L302.994 115.065C303.503 117.734 302.674 119.593 301.733 121.418C303.191 122.982 304.511 125.532 305.21 128.718ZM309.282 120.533C311.472 122.667 311.16 124.726 311.699 126.784L312.367 126.624C312.245 125.123 312.077 123.626 311.866 122.135C311.518 121.441 311.057 120.809 310.503 120.264C310.934 118.795 310.981 117.775 310.908 116.661C310.753 115.881 310.55 115.101 310.388 114.325L309.249 114.285C309.78 116.034 309.688 118.747 309.282 120.533ZM295.485 121.91C297.448 124.431 298.634 126.624 299.364 129.507L297.243 129.573C296.683 127.529 295.359 124.151 293.182 122.018L295.485 121.91Z" fill="#F9A983"/>
<path d="M292.613 121.997C294.008 120.617 295.378 117.111 295.053 115.106L297.223 115.471C297.294 118.945 296.351 119.839 295.147 121.964L292.613 121.997ZM290.359 121.625C291.661 123.758 293.021 126.2 293.228 129.412L291.132 129.33C290.567 127.278 290.087 123.616 288.115 121.479L290.359 121.625Z" fill="#F9A983"/>
<path d="M287.83 121.491C289.245 120.11 290.696 116.377 290.358 114.388L292.528 114.75C293.032 117.412 291.499 119.518 290.069 121.622L287.83 121.491ZM283.62 121.009C284.761 120.954 285.717 125.882 286.03 128.909L283.684 128.436C283 124.004 284.286 124.404 281.551 120.18L283.62 121.009Z" fill="#F9A983"/>
<path d="M280.831 119.918C284.068 116.822 285.239 115.066 284.785 113.506L286.952 114.005C287.5 115.993 284.373 118.935 282.883 120.755L280.831 119.918ZM273.458 118.703C275.382 117.234 278.05 113.209 278.276 111.123L280.337 112.071C280.187 114.911 276.817 118.375 275.885 119.505L273.458 118.703Z" fill="#F9A983"/>
<path d="M269.424 115.671C270.585 117.399 270.589 121.38 270.286 124.668L267.844 123.463C268.35 121.199 268.481 117.189 266.987 114.868L269.424 115.671ZM276.369 119.604C277.53 121.324 277.557 125.327 277.241 128.589L274.789 127.377C275.314 125.129 275.438 121.122 273.967 118.789L276.369 119.604Z" fill="#F9A983"/>
<path d="M266.288 114.685C268.211 113.217 271.636 110.327 271.823 108.244L274.27 109.449C273.087 112.271 271.408 113.098 268.693 115.49L266.288 114.685Z" fill="#F9A983"/>
<path d="M261.743 111.604C262.799 113.513 262.406 117.742 261.757 121.169L259.307 119.643C260.073 117.318 260.597 113.091 259.275 110.493L261.743 111.604Z" fill="#F9A983"/>
<path d="M258.562 110.225C260.722 108.862 264.633 106.149 265.033 103.976L267.48 105.499C265.977 108.351 264.108 109.067 261.026 111.291L258.562 110.225Z" fill="#F9A983"/>
<path d="M253.367 106.79C254.29 108.775 253.584 112.941 252.725 116.316L250.357 114.626C251.291 112.36 252.125 108.195 250.984 105.5L253.367 106.79Z" fill="#F9A983"/>
<path d="M250.278 105.173C252.551 103.975 256.618 101.57 257.199 99.4241L259.529 101.109C257.799 103.845 255.889 104.432 252.662 106.46L250.278 105.173Z" fill="#F9A983"/>
<path d="M245.061 101.782C245.988 103.773 245.288 107.94 244.402 111.32L242.066 109.629C242.989 107.367 243.815 103.182 242.683 100.493L245.061 101.782Z" fill="#F9A983"/>
<path d="M241.985 100.183C244.259 98.9805 248.313 96.5599 248.899 94.4236L251.222 96.0984C249.496 98.8444 247.607 99.4119 244.357 101.449L241.985 100.183Z" fill="#F9A983"/>
<path d="M235.84 95.9309C236.753 97.9034 236.066 102.088 235.18 105.47L232.837 103.769C233.768 101.514 234.596 97.3371 233.462 94.6477L235.84 95.9309Z" fill="#F9A983"/>
<path d="M232.759 94.3309C235.037 93.1248 239.113 90.7017 239.662 88.5461L242.005 90.2499C240.271 92.991 238.393 93.579 235.126 95.5864L232.759 94.3309Z" fill="#F9A983"/>
<path d="M223.315 88.362C225.581 87.1535 229.668 84.7352 230.243 82.5845L232.568 84.2954C230.848 87.0197 228.941 87.5981 225.704 89.6211L223.315 88.362ZM211.465 75.9936L209.204 75.1755C206.258 76.6214 203.149 78.7637 201.085 80.6976L202.605 81.3133C205.655 79.036 209.51 76.6756 211.465 75.9936ZM205.343 73.5983L202.991 72.932C198.28 75.7611 197.134 76.8033 195.084 78.7541L197.014 79.2228C197.819 78.1938 198.887 77.1106 205.343 73.5983ZM198.977 71.762L196.256 71.4909C193.449 72.8609 190.666 75.7129 188.601 77.6492L190.699 77.8588C192.628 75.7105 196.393 72.8066 198.977 71.762ZM191.576 70.8439L189.243 70.7776C186.184 72.6922 183.404 77.207 184.565 77.5359L185.852 77.5058C186.871 74.7767 188.72 72.8356 191.576 70.8439ZM185.77 70.9716L183.68 71.3463C179.572 74.8453 179.134 78.013 180.258 77.5829L181.124 77.6889C181.287 76.6214 181.411 74.7718 185.77 70.9716ZM180.585 71.7066L178.298 72.4247C175.876 74.1634 174.523 78.2239 175.609 78.0263L176.668 77.8142C176.876 76.372 177.491 74.5007 180.585 71.7066ZM196.504 87.6631L194.547 87.0763C194.679 84.8437 195.851 81.1639 196.986 79.3565L198.792 79.7324C197.316 81.7121 196.47 85.9124 196.504 87.6631Z" fill="#F9A983"/>
<path d="M202.374 89.1187L200.445 88.5319C200.57 86.2968 201.727 82.6207 202.857 80.8133L204.647 81.1664C203.204 83.1677 202.357 87.3584 202.374 89.1187ZM190.199 86.0523L188.437 85.439C188.545 83.1279 189.368 79.7795 190.543 77.9481L192.412 78.0914C190.945 80.0952 190.229 84.8016 190.199 86.0523ZM184.619 84.6425L182.822 84.2726C182.952 82.0351 184.221 79.3735 185.38 77.5637L187.016 77.63C185.559 79.6422 184.634 82.8761 184.619 84.6425ZM179.503 83.9316L177.866 83.7786C177.992 81.5495 179.164 79.4675 180.297 77.6432L182.077 77.648C180.629 79.6385 179.515 82.1664 179.503 83.9316ZM174.999 83.7967L173.609 83.7846C174.177 80.9157 174.955 79.7108 176.106 77.8866L177.607 77.7312C175.861 79.8856 175.491 81.1555 174.999 83.7967ZM171.029 83.9666L169.815 84.2389C170.54 81.2941 170.721 80.588 171.888 78.7517L173.18 78.6349C171.728 80.6205 171.358 82.0182 171.029 83.9666ZM172.457 78.5891C172.516 77.7661 172.755 76.8552 173.326 75.6997C172.698 76.3287 172.074 76.948 171.459 77.6107L171.104 78.771L172.457 78.5891ZM167.497 84.4582C167.962 82.8605 168.477 81.2784 169.694 79.5181C168.743 80.5959 167.82 81.6984 166.927 82.8243C166.754 83.2858 166.595 83.8907 166.376 84.7546L167.497 84.4582Z" fill="#F9A983"/>
<path d="M187.443 72.3262C177.454 76.5229 163.776 79.752 142.699 78.9821C142.699 78.9821 110.044 76.6 92.4536 78.0928V78.1097C85.5772 78.2796 56.4293 81.2352 29.7213 91.1516C26.7537 92.2529 25.3355 93.2457 23.9932 94.6181C23.4125 95.3808 22.1606 97.5219 21.5316 98.8317C21.5316 98.8317 13.3732 99.8016 8.40295 101.851C1.33136 104.767 -1.31823 108.572 0.613233 115.236C5.13886 130.799 23.633 133.853 23.633 133.853C23.633 133.853 19.1856 122.883 23.3124 122.802C25.174 122.767 30.5515 124.078 34.4928 125.916C36.6688 126.854 46.584 131.62 56.4233 140.005L44.8188 176.683H178.587C182.877 176.625 187.122 175.8 191.121 174.248C190.338 175.184 189.768 175.742 189.148 176.823L179.277 194.118H233.672C247.289 193.923 258.975 187.032 263.788 176.684H386.975C402.295 176.684 414.038 169.924 418.458 159.65C423.751 147.745 417.66 141.32 417.66 141.32C423.701 137.607 426.591 132.606 427.674 129.109L433.832 110.04H314.354L320.83 89.4057H304.927C290.033 89.5419 278.795 98.2365 275.009 110.002H170.17C180.15 105.67 196.23 95.4736 204.331 63.7231C204.331 63.7231 197.288 68.6367 187.443 72.3262Z" fill="black"/>
<path d="M125.354 146.803C133.063 146.655 138.838 143.408 141.403 141.219C141.403 141.219 137.462 164.606 109.833 164.74H54.3234L63.7964 134.543C63.7964 134.543 52.6691 121.546 32.1399 116.524C24.896 114.448 14.3531 113.815 13.5904 117.289C13.2891 118.348 13.8819 121.795 14.5699 124.558C14.5699 124.558 11.3083 123.047 9.32017 120.618C8.66952 119.966 5.54038 116.105 5.28373 111.868C5.14276 109.567 6.22959 107.935 7.97308 106.745C12.3903 103.881 24.7972 102.575 24.7972 102.575L25.931 100.061C27.0696 97.5191 28.1143 96.3636 29.7036 95.7334C57.9887 84.4772 91.4212 82.5361 91.7116 82.5361L91.5164 82.5409C93.9094 82.3915 97.0325 82.2866 100.553 82.2276C115.67 81.2432 136.223 83.1927 137.72 83.3385C152.559 84.2771 162.217 83.8374 168.628 82.865C178.39 81.8143 187.227 75.8079 187.227 75.8079C187.227 75.8079 178.864 94.6562 158.918 99.9421C150.558 102.293 141.974 102.404 134.025 102.423H118.942C111.413 102.423 109.439 105.275 108.588 107.744L106.605 114.331H131.812C141.143 114.654 147.547 110.82 150.416 108.38C150.416 108.38 146.529 131.493 118.941 131.895L101.235 131.9L96.5312 146.803H125.354Z" fill="white"/>
<path d="M117.921 97.8924C109.564 97.8924 106.035 101.167 104.54 105.493L101.26 116.231H130.752C135.796 116.179 140.919 116.147 144.682 112.945C141.774 119.987 133.46 127.781 117.925 127.434L97.8537 127.441L91.2629 148.72H122.053C127.092 148.671 131.878 148.424 135.884 145.639C133.109 152.634 124.162 160.444 108.946 160.068H57.9689L66.7298 131.992C66.7298 131.992 48.2779 112.751 21.6567 111.398C16.7322 111.322 13.5043 111.768 11.5234 112.815C9.18713 114.055 10.5848 118.056 10.5848 118.056C10.5848 118.056 7.8051 115.306 7.27133 111.879C6.73996 108.484 11.0439 106.53 17.3455 105.321C22.017 104.488 25.9329 104.148 25.9329 104.148L27.6439 100.447C28.1258 99.4564 28.6656 98.6587 29.3199 98.0767C30.3826 97.1116 32.1743 96.4995 32.1743 96.4995C59.0401 86.9904 90.6881 84.4348 90.6881 84.4348H90.693C93.0136 84.2926 96.1223 84.1854 99.6165 84.1275C114.904 83.1154 136.479 85.2324 136.479 85.2324C172.271 87.8254 179.079 81.8539 182.503 79.42C182.555 79.3682 182.496 79.4766 182.55 79.42C169.741 95.9682 154.049 97.9888 133.006 97.8924H117.921Z" fill="#F15A28"/>
<path d="M69.9938 121.488L73.0398 111.767C75.0712 104.947 76.8292 102.777 83.1092 100.106C89.3879 97.4347 101.482 96.0515 101.482 96.0515C83.8948 93.5115 47.5078 95.0948 34.2671 99.5083C31.4368 100.454 30.4271 103.007 30.4271 103.007L48.985 101.445L41.9797 105.761C35.0961 103.375 29.8716 104.471 29.8716 104.471C25.4484 106.422 24.7339 110.199 24.7339 110.199C47.9078 110.331 69.9938 121.488 69.9938 121.488Z" fill="white"/>
<path d="M305.007 93.8452C293.613 93.8946 283.637 100.538 281.117 108.691L263.761 164.724H287.525L309.579 93.8452H305.007ZM353.471 140.88C356.659 138.517 358.999 135.49 360.1 131.944C360.108 131.927 365.409 114.695 365.409 114.695H327.537C313.365 114.984 307.086 121.769 305.039 127.527L305.015 127.586L293.392 164.717H332.011C342.48 164.7 351.428 159.768 354.525 149.855L357.281 140.88H353.471ZM327.323 132.3L328.585 128.342H337.509L336.242 132.3H327.323ZM330.728 150.823H321.566C322.258 148.606 322.651 147.457 323.129 145.921H334.354C332.592 147.382 331.63 148.627 330.728 150.823ZM233.056 168.343H217.53C206.097 168.343 199.112 171.168 195.66 177.202L192.833 182.162H233.311C244.76 181.995 254.303 176.044 257.105 167.35L273.473 114.695H235.881C235.881 114.695 217.704 114.33 212.909 129.361L201.924 164.718H227.052C230.154 164.692 232.57 164.249 234.567 163.414L233.056 168.343ZM245.466 128.15C243.71 133.787 239.375 147.497 238.352 150.799H230.096C231.849 145.157 236.187 131.452 237.211 128.15H245.466ZM139.117 164.724H178.22C188.82 164.571 197.884 158.711 200.4 150.472C200.402 150.47 211.537 114.695 211.537 114.695H173.033C162.096 114.631 152.883 120.425 150.204 129.08C150.187 129.149 147.225 138.677 147.225 138.677H150.999C147.841 140.885 145.409 144.356 144.308 147.973L139.117 164.724ZM167.311 150.799L168.575 146.702H177.854L176.59 150.799H167.311ZM183.602 128.342L182.12 133.144H170.17C172.441 131.77 173.464 129.91 174.168 128.342H183.602ZM353.422 164.702H386.82C400.001 164.702 407.067 157.043 409.287 149.871C409.287 149.871 410.529 145.889 409.031 142.451C408.157 140.326 406.809 138.695 404.302 137.397C402.982 136.759 400.391 135.518 398.097 134.414C411.511 133.447 416.164 127.738 417.655 122.928L418.895 118.943L420.241 114.644H386.51C375.384 114.76 367.135 120.297 364.404 129.466C362.251 137.872 368.676 140.835 368.676 140.835L376.226 144.499C362.505 145.02 357.681 151.198 356.17 156.077L353.422 164.702ZM388.228 129.685L388.682 128.342H392.311L391.386 131.201L388.228 129.685ZM381.645 150.796C381.937 149.871 382.309 148.7 382.309 148.7L382.65 147.618C383.791 148.171 385.371 148.936 385.783 149.134L385.265 150.797L381.645 150.796Z" fill="white"/>
<path d="M267.34 160.102L283.208 108.985C285.729 101.682 294.665 96.0647 303.993 95.9321L284.023 160.101H267.34V160.102ZM336.582 141.513C346.365 141.085 353.834 136.248 355.873 129.701L359.86 116.6H326.475C317.152 116.832 309.536 121.066 306.886 128.524L296.99 160.091H330.954C340.937 160.058 347.512 155.61 350.244 147.656L351.723 142.973C342.703 142.948 334.217 145.402 332.037 152.271L331.882 152.878H315.994L319.535 141.533L336.582 141.513ZM340.853 123.959L337.624 134.357H321.76L324.985 123.959H340.853ZM239.728 152.853H224.531L233.511 123.959H248.713L239.728 152.853ZM197.679 177.583H232.248C241.582 177.451 250.41 172.765 252.889 165.072L267.923 116.6H234.82C225.481 116.832 217.904 121.906 215.125 129.183L205.508 160.093H225.986C235.052 160.093 238.662 156.298 238.662 156.298L234.496 170.29H216.502C208.445 170.292 200.972 171.824 197.679 177.583ZM177.967 152.853H161.743L165.019 142.32H181.243L177.967 152.853ZM171.97 116.605C162.714 116.59 154.574 121.836 152.415 128.79L150.782 134.064C159.48 134.337 168.375 131.513 170.453 124.7L170.688 123.959H186.962L183.463 135.199H166.125C156.215 135.276 148.644 140.868 146.564 147.68L142.698 160.102H177.114C186.445 159.968 194.007 155.047 196.084 148.241L205.879 116.605H171.97ZM405.057 147.631C402.948 154.444 396.361 160.078 385.806 160.078H357.091L358.419 155.797C360.532 148.989 368.757 146.577 378.083 146.442L376.056 152.847H386.643L388.197 147.855C388.498 146.878 388.197 146.078 387.476 145.527L369.325 136.698C367.271 135.671 365.711 132.261 366.666 129.172V129.153C368.871 121.745 375.456 116.8 385.594 116.597H414.672L413.43 120.686C411.314 127.496 403.564 129.925 393.776 129.984L395.666 123.957H385.081L383.688 128.45C383.382 129.43 383.688 130.232 384.408 130.78L402.228 139.326C406.709 142.019 405.057 147.631 405.057 147.631Z" fill="#F15A28"/>
<path d="M227.415 239.364L231.183 239.275C231.993 239.255 232.59 239.149 232.982 238.961C233.627 238.643 233.942 238.063 233.921 237.211C233.895 236.406 233.57 235.888 232.953 235.643C232.599 235.497 231.985 235.434 231.122 235.46L227.995 235.531C226.918 235.559 226.14 235.748 225.69 236.106C225.271 236.444 225.066 236.975 225.083 237.692C225.166 238.853 225.942 239.408 227.415 239.364ZM235.059 245.655L228.01 245.822C226.022 245.872 224.596 245.302 223.723 244.126C223.235 243.476 223.007 242.718 222.9 241.916C222.752 240.85 222.8 238.23 222.785 237.632C222.75 236.096 223.257 235.149 223.78 234.552C224.327 233.93 225.287 233.372 226.128 233.351C226.865 233.324 226.869 233.33 227.597 233.316L231.201 233.23C232.858 233.195 234.015 233.38 234.698 233.813C235.629 234.391 236.115 235.552 236.159 237.305C236.171 238.949 235.683 240.08 234.764 240.694C234.095 241.144 232.969 241.383 231.384 241.419C231.384 241.419 225.238 241.521 225.242 241.56C225.255 242.185 225.437 242.914 226.077 243.25C226.696 243.583 227.454 243.627 228.141 243.612L235.065 243.45L235.059 245.655ZM218.554 238.519C217.937 238.008 216.99 237.693 215.982 237.507L211.533 236.681C210.939 236.572 209.624 236.212 209.826 235.108L210.004 234.127C210.148 233.36 210.52 233.024 212.038 233.306C212.038 233.306 219.554 234.694 219.835 234.748C219.885 234.468 220.123 233.178 220.175 232.898L212.623 231.506C211.364 231.268 210.388 231.246 209.721 231.439C208.665 231.733 208.023 232.536 207.77 233.908L207.587 234.896C207.398 235.926 207.654 236.767 208.357 237.461C208.925 238.01 209.647 238.372 210.51 238.528L215.659 239.481C217.105 239.752 217.288 240.197 217.14 240.985L216.986 241.827C216.853 242.556 216.582 243.029 215.3 242.789L206.743 241.206C206.693 241.486 206.443 242.835 206.39 243.117C206.731 243.179 214.642 244.645 214.642 244.645C216.702 245.026 218.046 244.744 218.644 243.816C218.881 243.446 219.072 242.856 219.216 242.07L219.376 241.206C219.591 240.056 219.392 239.225 218.554 238.519ZM199.578 234.986L195.984 233.821C195.206 233.572 194.607 233.468 194.172 233.52C193.454 233.607 192.965 234.056 192.701 234.868C192.461 235.641 192.592 236.241 193.101 236.671C193.39 236.93 193.945 237.191 194.765 237.457L197.755 238.424C198.788 238.76 199.586 238.834 200.135 238.646C200.645 238.471 201.007 238.039 201.233 237.349C201.542 236.223 200.989 235.436 199.578 234.986ZM194.433 226.49L201.157 228.672C203.063 229.288 204.223 230.301 204.656 231.712C205.228 233.517 204.274 235.46 203.727 237.148C203.54 237.726 203.354 238.296 203.165 238.874C202.881 239.756 202.362 240.505 201.707 240.97C201.074 241.417 200.302 241.6 199.504 241.342C198.8 241.118 198.1 240.891 197.399 240.663L193.949 239.542C192.367 239.034 191.337 238.466 190.838 237.836C190.146 236.977 190.073 235.711 190.616 234.038C191.144 232.478 191.98 231.567 193.063 231.292C193.842 231.09 194.989 231.238 196.502 231.727C196.502 231.727 202.353 233.663 202.366 233.631C202.557 233.036 202.635 232.29 202.14 231.753C201.665 231.232 200.959 230.938 200.299 230.726L193.69 228.582L194.433 226.49ZM264.313 234.107L260.706 235.248C259.931 235.495 259.38 235.759 259.058 236.053C258.527 236.544 258.385 237.194 258.644 238.008C258.893 238.776 259.355 239.186 260.019 239.243C260.404 239.286 261.007 239.172 261.833 238.912L264.826 237.969C265.861 237.642 266.552 237.237 266.888 236.766C267.204 236.326 267.246 235.764 267.029 235.074C266.626 233.973 265.718 233.653 264.313 234.107ZM255.185 230.181L261.927 228.047C263.834 227.445 265.367 227.591 266.54 228.487C268.053 229.628 268.409 231.763 268.94 233.457L269.486 235.185C269.768 236.067 269.78 236.985 269.516 237.736C269.264 238.475 268.744 239.07 267.941 239.327C267.237 239.551 266.531 239.774 265.832 239.99L262.376 241.087C260.794 241.588 259.622 241.727 258.85 241.506C257.789 241.203 256.991 240.222 256.455 238.543C255.984 236.966 256.134 235.734 256.857 234.884C257.375 234.262 258.393 233.721 259.914 233.242C259.914 233.242 265.8 231.418 265.788 231.385C265.6 230.79 265.228 230.133 264.514 229.987C263.823 229.837 263.082 230.013 262.42 230.222L255.791 232.314L255.185 230.181Z" fill="white"/>
<path d="M268.23 221.344L270.303 220.551L276.233 236.054L274.161 236.847L268.23 221.344ZM281.809 233.453L279.752 234.305L273.395 218.97L275.443 218.121L281.809 233.453Z" fill="white"/>
<path d="M187.189 228.169L187.091 228.066C188.014 228.117 188.718 228.103 189.39 227.384C189.726 227.026 190.147 226.391 190.645 225.489C191.131 224.603 191.325 223.699 191.219 222.795C191.124 221.959 190.756 221.178 190.171 220.573C189.759 220.143 189.1 219.677 188.214 219.183L180.102 214.695L172.117 229.132L180.474 233.754C181.62 234.391 182.74 234.66 183.782 234.549C185.115 234.394 186.137 233.636 186.911 232.236C187.286 231.565 187.55 230.892 187.701 230.224C187.903 229.358 187.787 228.811 187.189 228.169ZM184.706 231.561C184.123 232.349 183.025 232.302 181.515 231.467L175.225 227.988L177.372 224.107L177.622 224.244L183.857 227.693C185.309 228.493 185.842 229.338 185.44 230.224L184.706 231.561ZM188.048 225.512C187.592 226.339 186.642 226.367 185.236 225.588L178.626 221.931L180.831 217.947L181.08 218.085L187.207 221.475C188.769 222.339 189.308 223.24 188.804 224.148L188.048 225.512ZM253.051 238.621L252.71 236.232C252.49 234.66 251.846 233.497 250.776 232.756C249.7 232.008 248.689 231.707 246.879 231.961L245.326 232.183L240.869 232.809L240.318 228.94L238.092 229.254L238.642 233.125L238.941 235.271L239.45 238.878L239.682 240.51C239.904 242.085 240.553 243.245 241.623 243.993C242.699 244.739 243.708 245.045 245.514 244.786L247.385 244.52L248.63 244.345C250.435 244.086 251.329 243.516 252.151 242.505C252.98 241.489 253.271 240.195 253.051 238.621ZM250.794 238.724C250.923 239.652 250.735 240.43 250.226 241.072C249.723 241.715 249.375 242.047 248.335 242.191L247.083 242.369L246.767 242.414L245.204 242.635C244.165 242.783 243.731 242.558 243.072 242.08C242.408 241.603 242.008 240.903 241.876 239.981L241.679 238.561L241.168 234.954L245.938 234.28L247.195 234.105C248.235 233.959 248.664 234.184 249.323 234.662C249.984 235.136 250.384 235.837 250.513 236.757L250.794 238.724ZM294.608 204.389L305.615 216.704C305.78 216.559 307 215.465 307.279 215.22C306.98 214.893 296.573 203.246 296.269 202.907C295.932 203.207 294.69 204.313 294.608 204.389ZM285.488 216.36C285.639 215.224 285.827 214.456 287.095 213.437C287.095 213.437 293.134 208.615 293.683 208.173C293.217 207.589 292.75 207.006 292.282 206.424C291.734 206.866 285.707 211.684 285.707 211.684C283.717 213.274 283.191 214.515 282.947 216.118C282.697 217.774 283.231 219.446 284.526 221.063L286.61 223.675C287.913 225.299 289.424 226.181 291.103 226.306C292.715 226.417 294.036 226.177 296.024 224.583C296.024 224.583 302.051 219.769 302.601 219.324C302.29 218.938 301.517 217.966 301.208 217.583C300.655 218.02 294.621 222.849 294.621 222.849C293.35 223.864 292.564 223.874 291.419 223.775C290.199 223.666 289.135 223.059 288.268 221.972L286.552 219.829C285.684 218.744 285.327 217.572 285.488 216.36ZM325.17 183.913L323.151 182.588C321.821 181.716 320.25 181.86 318.983 182.173C317.719 182.486 316.818 183.053 315.82 184.576L314.961 185.891L312.49 189.662L309.221 187.52L307.988 189.401L311.26 191.545L313.074 192.73L316.122 194.723L317.499 195.627C318.829 196.498 320.13 196.773 321.398 196.462C322.664 196.144 323.558 195.584 324.561 194.057L325.593 192.474L326.28 191.427C327.283 189.901 327.438 188.852 327.221 187.567C327.002 186.278 326.503 184.778 325.17 183.913ZM323.491 186.094C324.271 186.605 324.731 187.259 324.879 188.069C325.032 188.871 325.051 189.351 324.471 190.234L323.782 191.283L323.608 191.552L322.744 192.87C322.163 193.755 321.711 193.932 320.917 194.115C320.124 194.296 319.331 194.137 318.557 193.628L317.352 192.843L314.309 190.85L316.946 186.811L317.637 185.756C318.214 184.874 318.667 184.702 319.462 184.521C320.257 184.336 321.047 184.497 321.822 185.008L323.491 186.094ZM314.107 208.083C313.078 209.249 311.914 209.856 310.631 209.888C309.349 209.916 308.357 209.62 307.014 208.429L301.639 203.691L303.166 201.961L308.541 206.704C309.32 207.391 309.791 207.438 310.591 207.405C311.396 207.372 312.092 207.01 312.702 206.323L313.761 205.121C314.368 204.436 314.643 203.689 314.573 202.889C314.507 202.091 314.397 201.627 313.625 200.941L308.247 196.201L309.77 194.475L315.143 199.21C316.484 200.396 316.904 201.349 317.037 202.625C317.169 203.899 316.714 205.127 315.682 206.299L314.107 208.083ZM153.395 191.048C153.333 190.009 152.969 188.942 152.312 187.873C152.312 187.873 147.672 180.326 147.385 179.863C146.909 180.13 133.463 187.671 132.995 187.935C133.208 188.29 133.96 189.515 134.178 189.869C134.628 189.615 139.309 186.988 139.309 186.988L142.995 192.996C143.745 194.215 144.604 195.076 145.555 195.563C146.819 196.217 148.141 196.138 149.594 195.326L151.782 194.097C152.951 193.444 153.48 192.444 153.395 191.048ZM148.505 193.387C147.768 193.797 146.627 193.861 145.372 191.812L141.611 185.696L146.266 183.089L146.417 183.329L150.029 189.2C150.305 189.65 150.499 190.172 150.61 190.739C150.782 191.615 150.605 192.208 150.071 192.504L148.505 193.387ZM143.601 203.671L150.173 198.03C152.164 196.319 154.08 196.615 156.015 198.959L159.067 202.658C158.793 202.893 157.657 203.87 157.388 204.098C157.158 203.816 154.344 200.407 154.344 200.407C153.205 199.026 152.127 199.449 151.652 199.859L145.1 205.483C144.602 204.877 144.102 204.273 143.601 203.671ZM168.795 213.023C168.649 211.71 168.21 210.74 166.829 209.535L165.635 208.495L163.474 206.617C162.095 205.415 161.069 205.113 159.752 205.155C158.44 205.2 157.26 205.824 156.212 207.029L154.615 208.862C153.565 210.067 153.116 211.321 153.252 212.629C153.393 213.938 153.833 214.91 155.217 216.11L157.139 217.784L157.138 217.786L158.568 219.034C159.951 220.236 160.978 220.532 162.295 220.495C163.606 220.448 164.784 219.829 165.834 218.621L167.43 216.792C168.481 215.582 168.933 214.327 168.795 213.023ZM164.268 216.972C163.652 217.68 162.93 218.05 162.11 218.093C161.291 218.132 160.804 218.083 160.007 217.389L158.808 216.344L158.569 216.137L156.645 214.463C155.843 213.767 155.73 213.293 155.656 212.478C155.582 211.658 155.853 210.898 156.47 210.188L157.782 208.682C158.398 207.974 159.115 207.603 159.937 207.559C160.756 207.524 161.242 207.569 162.038 208.263L163.964 209.937L164.203 210.146L165.403 211.188C166.201 211.885 166.317 212.358 166.384 213.174C166.463 213.996 166.199 214.756 165.577 215.463L164.268 216.972Z" fill="white"/>
<path d="M165.339 60.6879L163.828 62.2434L157.644 56.2309L150.43 63.6507L156.61 69.6632L155.097 71.2151L143.208 59.654L144.719 58.0985L148.635 61.9036L155.845 54.4814L151.936 50.6799L153.449 49.1232L165.339 60.6879ZM241.251 30.7399L237.486 30.4375C236.674 30.3724 236.064 30.4134 235.657 30.564C234.977 30.8158 234.605 31.3641 234.536 32.2171C234.482 33.022 234.751 33.5715 235.341 33.8763C235.682 34.0607 236.287 34.186 237.148 34.2522L240.276 34.5041C241.358 34.592 242.148 34.4763 242.639 34.1679C243.091 33.8835 243.348 33.3751 243.407 32.6521C243.447 31.4846 242.726 30.8484 241.251 30.7399ZM234.28 23.6695L241.321 24.2334C243.314 24.3913 244.679 25.1034 245.425 26.3758C246.397 27.9976 245.924 30.1086 245.78 31.8774C245.733 32.4822 245.684 33.0823 245.632 33.6847C245.561 34.6041 245.235 35.4547 244.703 36.0584C244.192 36.6404 243.486 36.9934 242.651 36.9307C241.913 36.8741 241.18 36.8151 240.441 36.7548L236.832 36.4681C235.18 36.3379 234.045 36.0283 233.412 35.5318C232.539 34.8559 232.176 33.6426 232.319 31.8918C232.47 30.2544 233.072 29.1736 234.059 28.653C234.772 28.2759 235.918 28.1554 237.504 28.2831C237.504 28.2831 243.644 28.8085 243.644 28.7735C243.698 28.1518 243.595 27.4035 242.99 27.0023C242.409 26.6047 241.656 26.4818 240.966 26.4276L234.04 25.8733L234.28 23.6695ZM181.229 35.3379C182.64 34.5992 183.957 34.4462 185.185 34.8764C186.422 35.3138 187.261 35.9596 188.112 37.5802L191.503 44.0325L189.582 45.0446L186.181 38.5754C185.695 37.6477 185.259 37.4272 184.486 37.1681C183.715 36.909 182.911 36.9958 182.088 37.4272L180.325 38.3549C179.499 38.7899 178.974 39.402 178.753 40.184C178.523 40.966 178.459 41.4503 178.948 42.3805L182.346 48.8436L180.423 49.8558L177.032 43.4011C176.185 41.7793 176.126 40.725 176.467 39.4574C176.808 38.2007 177.684 37.2006 179.094 36.462L181.229 35.3379ZM208.959 25.6468L210.937 32.4497C211.236 33.4618 211.073 33.9173 210.695 34.6402C210.318 35.3656 209.687 35.8548 208.789 36.1174L207.49 36.4946C206.596 36.7536 205.796 36.6813 205.092 36.2704C204.385 35.8608 204 35.562 203.709 34.5523L201.729 27.7494L199.545 28.3843L201.522 35.1872C201.819 36.1982 201.66 36.6548 201.28 37.3814C200.901 38.1043 200.265 38.5935 199.369 38.8574L198.076 39.2345C197.183 39.4924 196.378 39.4177 195.672 39.0116C194.964 38.6031 194.585 38.3007 194.288 37.2898L192.309 30.4869L190.226 31.0918L192.26 38.0947C192.771 39.8466 193.463 40.6479 194.586 41.3202C195.707 41.9938 197.029 42.1082 198.561 41.6612L200.265 41.1648C201.793 40.7226 202.85 39.9129 203.435 38.7501C203.504 38.6116 203.567 38.473 203.622 38.3332C203.744 38.42 203.875 38.5007 204.005 38.5827C205.126 39.2514 206.451 39.3659 207.977 38.9224L209.687 38.4224C211.21 37.9826 212.265 37.1753 212.853 36.0078C213.438 34.8378 213.593 33.7883 213.083 32.0352L211.048 25.0335L208.959 25.6468ZM227.3 25.1757C226.337 24.2973 225.062 23.919 223.48 24.0455L221.07 24.2407C219.917 24.3347 218.978 24.6672 218.23 25.2311L217.828 20.2705L215.655 20.4464L216.998 37.085L219.206 36.9066L218.618 29.6266C218.534 28.5783 218.786 28.1626 219.297 27.5264C219.814 26.8999 220.535 26.5432 221.465 26.4685L223.449 26.3095C224.375 26.2324 225.149 26.4685 225.759 27.0059C226.366 27.5493 226.681 27.9229 226.766 28.9711L227.349 36.2524L229.519 36.0765L228.931 28.8073C228.784 26.9879 228.26 26.0625 227.3 25.1757ZM170.808 48.9629L167.776 51.2257C167.124 51.7101 166.693 52.1451 166.482 52.5307C166.143 53.1632 166.223 53.8223 166.734 54.5091C167.225 55.1477 167.792 55.3839 168.435 55.2236C168.812 55.1393 169.345 54.8332 170.045 54.3175L172.557 52.4391C173.427 51.7896 173.942 51.1872 174.111 50.6293C174.26 50.1136 174.119 49.5654 173.685 48.9834C172.952 48.0821 171.986 48.0761 170.808 48.9629ZM160.898 48.2581L166.57 44.03C168.168 42.8348 169.667 42.4673 171.063 42.9336C172.866 43.5119 173.899 45.4097 174.958 46.8339C175.32 47.3206 175.686 47.805 176.04 48.287C176.594 49.028 176.912 49.8811 176.906 50.6859C176.909 51.4631 176.613 52.1957 175.944 52.7017L174.169 54.0223L171.263 56.1851C169.938 57.1804 168.875 57.6937 168.075 57.7383C166.971 57.8045 165.896 57.1358 164.845 55.7261C163.879 54.3946 163.623 53.1849 164.018 52.1439C164.31 51.3908 165.089 50.5414 166.364 49.5907C166.364 49.5907 171.329 45.9374 171.303 45.9073C170.934 45.4085 170.365 44.9132 169.642 45.0084C168.939 45.0952 168.301 45.5 167.746 45.9145L162.172 50.0702L160.898 48.2581ZM310.521 51.0956L298.863 63.9845C299.038 64.1399 300.307 65.2954 300.604 65.5569C300.914 65.2111 311.935 53.0259 312.257 52.6704C311.678 52.1463 311.099 51.6214 310.521 51.0956ZM310.625 66.6365L313.256 69.5981C313.821 70.2355 314.318 70.6416 314.735 70.8283C315.426 71.132 316.105 70.9838 316.775 70.3862C317.405 69.8259 317.599 69.209 317.375 68.5463C317.248 68.1655 316.883 67.6305 316.276 66.951L314.091 64.4917C313.343 63.6483 312.659 63.1543 312.067 63.0362C311.509 62.929 310.942 63.1194 310.38 63.6278C309.499 64.4809 309.585 65.4834 310.625 66.6365ZM310.771 77.0457L305.847 71.5055C304.459 69.9452 303.939 68.4137 304.294 66.9136C304.485 66.0822 304.939 65.3798 305.506 64.7496C306.264 63.9013 308.393 62.1578 308.864 61.7385C310.074 60.6638 311.175 60.4324 312.008 60.4469C312.882 60.4638 313.98 60.8517 314.573 61.512C315.094 62.088 315.089 62.0916 315.6 62.6687L318.121 65.5027C319.278 66.8064 319.916 67.8631 320.032 68.7005C320.201 69.8391 319.599 71.0272 318.227 72.2477C316.911 73.3767 315.678 73.7551 314.558 73.4346C313.738 73.202 312.783 72.4598 311.674 71.2175C311.674 71.2175 307.417 66.3557 307.384 66.3835C306.892 66.8184 306.428 67.463 306.596 68.2029C306.749 68.9234 307.228 69.5656 307.714 70.1054L312.555 75.5528L310.771 77.0457ZM324.531 85.9198C324.484 85.0788 324.053 84.1221 323.474 83.2088L320.933 79.182C320.597 78.6434 319.938 77.3674 320.933 76.7396L321.822 76.1793C322.514 75.7444 323.044 75.7865 323.906 77.1601C323.906 77.1601 328.197 83.963 328.354 84.2148L330.025 83.1606L325.721 76.3324C325.001 75.1913 324.321 74.4214 323.699 74.043C322.711 73.4321 321.638 73.5141 320.398 74.2937L319.501 74.8612C318.565 75.4516 318.099 76.242 318.07 77.2854C318.046 78.1156 318.284 78.9337 318.776 79.7121L321.717 84.3763C322.541 85.6824 322.324 86.1379 321.616 86.5885L320.853 87.0657C320.189 87.4874 319.634 87.6091 318.903 86.4512C318.903 86.4512 314.214 79.0193 314.026 78.7133L312.294 79.8037C312.489 80.1085 317.002 87.2645 317.002 87.2645C318.18 89.1285 319.353 89.9707 320.494 89.7683C320.948 89.6863 321.541 89.4104 322.257 88.9658L323.034 88.4718C324.081 87.8163 324.58 87.0681 324.531 85.9198ZM282.411 43.5457L278.902 41.6648C278.147 41.2624 277.542 41.0455 277.085 41.019C276.322 40.9732 275.734 41.3455 275.31 42.1407C274.915 42.8938 274.943 43.5348 275.387 44.0794C275.637 44.4036 276.168 44.7747 276.967 45.2048L279.88 46.7652C280.885 47.3038 281.697 47.5303 282.302 47.4399C282.858 47.3544 283.317 46.97 283.68 46.3001C284.208 45.188 283.782 44.2734 282.411 43.5457ZM278.661 33.7871L285.219 37.3006C287.071 38.2959 288.091 39.5574 288.274 41.0985C288.526 43.0746 287.177 44.906 286.297 46.5519C285.991 47.1182 285.694 47.6749 285.395 48.2376C284.934 49.0906 284.259 49.7714 283.492 50.1317C282.755 50.4799 281.922 50.5221 281.143 50.1076C280.456 49.7425 279.771 49.3762 279.091 49.0111L275.728 47.2086C274.192 46.3844 273.225 45.6061 272.827 44.8602C272.274 43.8409 272.429 42.5191 273.304 40.8852C274.141 39.3695 275.178 38.5839 276.351 38.4995C277.194 38.4357 278.354 38.8044 279.827 39.5936C279.827 39.5936 285.525 42.689 285.544 42.6577C285.857 42.0793 286.072 41.319 285.659 40.672C285.269 40.0442 284.59 39.6092 283.951 39.2646L277.504 35.8126L278.661 33.7871ZM303.195 51.5101L303.217 51.4848L303.185 51.4559C303.128 51.2101 303.081 50.9558 302.977 50.7016C302.584 49.6823 301.901 48.7906 300.943 48.0448L297.707 45.5109C295.104 43.4782 293.104 43.4288 291.589 45.3651L288.206 49.6919C286.54 51.8246 286.992 53.844 289.576 55.867L293.367 58.8287C293.892 59.1359 294.626 59.6047 295.476 59.4577L294.777 60.3396C294.398 60.7626 293.913 61.1518 293.224 61.1325C292.492 61.1108 291.651 60.6758 291.085 60.2336L285.284 55.6959L284.063 57.2611L290.158 62.0265C291.067 62.7326 291.884 63.1519 292.677 63.3158C293.321 63.4538 293.991 63.4222 294.62 63.2242C295.383 62.9941 295.964 62.4964 296.501 61.9253L297.037 61.2385L302.459 54.3007C303.139 53.4295 303.369 52.5053 303.195 51.5101ZM297.813 56.4394C296.347 58.3154 294.582 56.6719 294.582 56.6719L294.569 56.6912L291.115 53.9922C291.066 53.9524 291.026 53.9139 290.974 53.8765L290.986 53.8621C290.986 53.8621 288.934 52.5307 290.455 50.6402L290.443 50.6293L292.801 47.6158L292.813 47.6255C294.281 45.6844 296.074 47.3616 296.074 47.3616L296.096 47.3279C296.814 47.8954 299.148 49.7196 299.148 49.7196C299.279 49.822 299.466 49.9738 299.671 50.1594L299.664 50.1702C299.664 50.1702 299.73 50.216 299.822 50.2919C299.989 50.4413 300.153 50.61 300.304 50.7968C300.736 51.3547 301.082 52.2595 300.219 53.3632L297.813 56.4394ZM261.268 27.7927C261.574 26.9035 262.402 26.3059 264.085 26.6228C264.663 26.7035 272.873 29.5808 274.144 30.0098L275.003 27.5108C274.615 27.3795 265.651 24.2985 265.651 24.2985C265.053 24.0918 264.43 23.9666 263.799 23.9262C261.878 23.8202 259.972 24.5335 259.308 26.4685L258.802 27.9409C258.202 29.6796 257.276 32.3822 257.169 32.6907C256.895 33.496 256.618 34.3005 256.339 35.1041C256.112 35.768 256.045 36.4765 256.223 37.1633C256.668 38.8959 258.405 40.1611 260.008 40.7129C260.008 40.7129 268.971 43.7927 269.365 43.9252C269.491 43.5541 270.097 41.7925 270.224 41.4274C268.956 40.9877 260.712 38.2031 260.207 37.926C258.684 37.1356 258.397 36.1524 258.698 35.268L259.357 33.3425C259.51 32.9015 259.468 33.028 259.468 33.028C259.468 33.028 269.989 36.6404 270.444 36.7982C270.57 36.4259 271.169 34.6824 271.3 34.3065C270.846 34.1486 260.327 30.5351 260.327 30.5351L260.962 28.6807L261.268 27.7927Z" fill="white"/>
<path d="M173.158 220.169L171.893 221.989L168.869 219.982L170.136 218.161L173.158 220.169Z" fill="white"/>
</g>
<defs>
<clipPath id="clip0_1484_89">
<rect width="433.833" height="269" fill="white"/>
</clipPath>
</defs>
</svg>
